<svg viewBox="0 0 600 400" xmlns="http://www.w3.org/2000/svg">
<g transform="translate(72, 364)">
<g>
<g>
<path d="M0,-5.190665 L0,-5.190665 L0.46875,-1.3073525 L0.9375,-0.88634264 L1.40625,-0.45918545 L1.875,-0.49605143 L2.34375,-0.3819913 L2.8125,-0.36244285 L3.28125,-0.25487733 L3.75,-0.22784624 L4.21875,-0.24676178 L4.6875,-0.2659572 L5.15625,-0.24949391 L5.625,-0.2469887 L6.09375,-0.25549218 L6.5625,-0.24021702 L7.03125,-0.24145356 L7.5,-0.23334634 L7.96875,-0.23089322 L8.4375,-0.22866918 L8.90625,-0.22257428 L9.375,-0.23755176 L9.84375,-0.23135647 L10.3125,-0.22774619 L10.78125,-0.23203309 L11.25,-0.23104906 L11.71875,-0.23370892 L12.1875,-0.23125947 L12.65625,-0.2322647 L13.125,-0.23559429 L13.59375,-0.23660035 L14.0625,-0.24074021 L14.53125,-0.23725443 L15,-0.24345644 L15.46875,-0.24094594 L15.9375,-0.24959429 L16.40625,-0.2492334 L16.875,-0.25157732 L17.34375,-0.25445673 L17.8125,-0.25818574 L18.28125,-0.26044154 L18.75,-0.26251644 L19.21875,-0.26499352 L19.6875,-0.2713721 L20.15625,-0.27158907 L20.625,-0.27381 L21.09375,-0.27866068 L21.5625,-0.2824658 L22.03125,-0.28279096 L22.5,-0.28650507 L22.96875,-0.2859031 L23.4375,-0.29152596 L23.90625,-0.30242375 L24.375,-0.29594076 L24.84375,-0.30080193 L25.3125,-0.30968493 L25.78125,-0.30761027 L26.25,-0.3188834 L26.71875,-0.32073045 L27.1875,-0.32332507 L27.65625,-0.32886922 L28.125,-0.33153725 L28.59375,-0.34194 L29.0625,-0.34027824 L29.53125,-0.34858257 L30,-0.35455793 L30.46875,-0.35049626 L30.9375,-0.3603618 L31.40625,-0.37580508 L31.875,-0.3733859 L32.34375,-0.3784764 L32.8125,-0.37815914 L33.28125,-0.38788188 L33.75,-0.39278078 L34.21875,-0.3961843 L34.6875,-0.40592852 L35.15625,-0.41435993 L35.625,-0.40955544 L36.09375,-0.42643884 L36.5625,-0.42874417 L37.03125,-0.42972422 L37.5,-0.44125155 L37.96875,-0.44989046 L38.4375,-0.4485027 L38.90625,-0.45314217 L39.375,-0.47268686 L39.84375,-0.46755734 L40.3125,-0.494837 L40.78125,-0.48746762 L41.25,-0.5002677 L41.71875,-0.5031187 L42.1875,-0.5154683 L42.65625,-0.526141 L43.125,-0.51606506 L43.59375,-0.5393995 L44.0625,-0.557102 L44.53125,-0.5626162 L45,-0.5649832 L45.46875,-0.56106603 L45.9375,-0.5818936 L46.40625,-0.59733397 L46.875,-0.60868233 L47.34375,-0.6167866 L47.8125,-0.6325699 L48.28125,-0.64532477 L48.75,-0.66067344 L49.21875,-0.66890997 L49.6875,-0.6881336 L50.15625,-0.6934301 L50.625,-0.71559924 L51.09375,-0.7191333 L51.5625,-0.7391417 L52.03125,-0.75610226 L52.5,-0.75784063 L52.96875,-0.77916515 L53.4375,-0.7979636 L53.90625,-0.82493836 L54.375,-0.8533921 L54.84375,-0.8552038 L55.3125,-0.8823549 L55.78125,-0.8889569 L56.25,-0.92730343 L56.71875,-0.93593985 L57.1875,-0.9628954 L57.65625,-0.9840702 L58.125,-1.0045655 L58.59375,-1.0484318 L59.0625,-1.073729 L59.53125,-1.1013339 L60,-1.1107705 L60.46875,-1.1414034 L60.9375,-1.212381 L61.40625,-1.2243094 L61.875,-1.2834723 L62.34375,-1.2989697 L62.8125,-1.3479551 L63.28125,-1.3728533 L63.75,-1.4313272 L64.21875,-1.4905088 L64.6875,-1.5578119 L65.15625,-1.6315861 L65.625,-1.7189937 L66.09375,-1.7459136 L66.5625,-1.8082374 L67.03125,-1.911452 L67.5,-1.9766251 L67.96875,-2.1087818 L68.4375,-2.2131147 L68.90625,-2.3125405 L69.375,-2.479974 L69.84375,-2.632283 L70.3125,-2.824422 L70.78125,-2.9769268 L71.25,-3.28334 L71.71875,-3.5305772 L72.1875,-3.8829408 L72.65625,-4.319538 L73.125,-4.9021096 L73.59375,-5.5400963 L74.0625,-6.4115815 L74.53125,-7.795722 L75,-10.070643 L75.46875,-13.845868 L75.9375,-23.403238 L76.40625,-69.495674 L76.875,-62.91056 L77.34375,-21.458317 L77.8125,-12.693731 L78.28125,-8.900674 L78.75,-6.8314104 L79.21875,-5.5104294 L79.6875,-4.532769 L80.15625,-3.864478 L80.625,-3.28749 L81.09375,-2.8492534 L81.5625,-2.5670047 L82.03125,-2.2771134 L82.5,-2.0721323 L82.96875,-1.9187868 L83.4375,-1.7934585 L83.90625,-1.673714 L84.375,-1.6585811 L84.84375,-1.6794164 L85.3125,-1.7154974 L85.78125,-1.8607163 L86.25,-1.9931765 L86.71875,-2.2467058 L87.1875,-2.630552 L87.65625,-3.0595229 L88.125,-3.6744344 L88.59375,-4.502652 L89.0625,-5.657456 L89.53125,-7.533856 L90,-11.199342 L90.46875,-19.89792 L90.9375,-72.37228 L91.40625,-48.85917 L91.875,-18.77118 L92.34375,-11.797252 L92.8125,-8.801901 L93.28125,-7.1610236 L93.75,-5.8973536 L94.21875,-5.098897 L94.6875,-4.5138507 L95.15625,-4.094272 L95.625,-3.739132 L96.09375,-3.449259 L96.5625,-3.1949522 L97.03125,-2.9815342 L97.5,-2.7917845 L97.96875,-2.645339 L98.4375,-2.4872608 L98.90625,-2.4268713 L99.375,-2.3135717 L99.84375,-2.189167 L100.3125,-2.1051674 L100.78125,-2.0194263 L101.25,-1.9349731 L101.71875,-1.8742212 L102.1875,-1.8536867 L102.65625,-1.7919278 L103.125,-1.731978 L103.59375,-1.6801444 L104.0625,-1.6283008 L104.53125,-1.6030118 L105,-1.5618734 L105.46875,-1.5210941 L105.9375,-1.4984221 L106.40625,-1.4521629 L106.875,-1.4444655 L107.34375,-1.4200113 L107.8125,-1.3925964 L108.28125,-1.3826675 L108.75,-1.3502282 L109.21875,-1.3352021 L109.6875,-1.3554683 L110.15625,-1.3680247 L110.625,-1.4066637 L111.09375,-1.4253083 L111.5625,-1.5042568 L112.03125,-1.4595096 L112.5,-1.6682103 L112.96875,-1.9530871 L113.4375,-2.3503373 L113.90625,-3.384446 L114.375,-6.8378286 L114.84375,-105.38849 L115.3125,-6.122651 L115.78125,-2.977177 L116.25,-2.261903 L116.71875,-1.7358972 L117.1875,-1.5913521 L117.65625,-1.2853885 L118.125,-1.2279065 L118.59375,-1.1254597 L119.0625,-1.1142666 L119.53125,-1.0745077 L120,-1.0237229 L120.46875,-0.9572621 L120.9375,-0.9458248 L121.40625,-0.9463489 L121.875,-0.91971457 L122.34375,-0.9085216 L122.8125,-0.8684356 L123.28125,-0.8543506 L123.75,-0.8296407 L124.21875,-0.82278454 L124.6875,-0.81391615 L125.15625,-0.8044788 L125.625,-0.7959941 L126.09375,-0.7858653 L126.5625,-0.7749958 L127.03125,-0.7533972 L127.5,-0.7512429 L127.96875,-0.7270525 L128.4375,-0.73781633 L128.90625,-0.73241 L129.375,-0.71765685 L129.84375,-0.7245474 L130.3125,-0.7087615 L130.78125,-0.70194006 L131.25,-0.6838781 L131.71875,-0.6877936 L132.1875,-0.6801448 L132.65625,-0.65585554 L133.125,-0.6656762 L133.59375,-0.6635507 L134.0625,-0.6567477 L134.53125,-0.6520523 L135,-0.65075195 L135.46875,-0.63493466 L135.9375,-0.6346114 L136.40625,-0.6316631 L136.875,-0.62429583 L137.34375,-0.60975677 L137.8125,-0.60785306 L138.28125,-0.60259825 L138.75,-0.5983747 L139.21875,-0.59111375 L139.6875,-0.58567905 L140.15625,-0.5868309 L140.625,-0.5856228 L141.09375,-0.5801571 L141.5625,-0.57226866 L142.03125,-0.56351286 L142.5,-0.5667157 L142.96875,-0.5594546 L143.4375,-0.5589892 L143.90625,-0.5552182 L144.375,-0.5475814 L144.84375,-0.5430855 L145.3125,-0.54353166 L145.78125,-0.5377776 L146.25,-0.5337129 L146.71875,-0.52724785 L147.1875,-0.5225296 L147.65625,-0.5224606 L148.125,-0.5181621 L148.59375,-0.5187911 L149.0625,-0.5160173 L149.53125,-0.509547 L150,-0.50676423 L150.46875,-0.5032818 L150.9375,-0.50103706 L151.40625,-0.4960968 L151.875,-0.49209255 L152.34375,-0.49148372 L152.8125,-0.48956805 L153.28125,-0.489893 L153.75,-0.48489702 L154.21875,-0.48015544 L154.6875,-0.47762448 L155.15625,-0.4751976 L155.625,-0.47177348 L156.09375,-0.46669254 L156.5625,-0.47004077 L157.03125,-0.46567947 L157.5,-0.46184897 L157.96875,-0.46069852 L158.4375,-0.45678785 L158.90625,-0.4541267 L159.375,-0.4523408 L159.84375,-0.44988874 L160.3125,-0.44851127 L160.78125,-0.4466465 L161.25,-0.44251195 L161.71875,-0.4405893 L162.1875,-0.43857613 L162.65625,-0.43713552 L163.125,-0.433127 L163.59375,-0.43098342 L164.0625,-0.43092254 L164.53125,-0.42779154 L165,-0.42395365 L165.46875,-0.42399415 L165.9375,-0.41999137 L166.40625,-0.4197925 L166.875,-0.4162179 L167.34375,-0.41464537 L167.8125,-0.4150323 L168.28125,-0.41151464 L168.75,-0.4086051 L169.21875,-0.40902558 L169.6875,-0.40515485 L170.15625,-0.40228486 L170.625,-0.40184698 L171.09375,-0.39988577 L171.5625,-0.39985138 L172.03125,-0.3967071 L172.5,-0.39454392 L172.96875,-0.39086285 L173.4375,-0.39078626 L173.90625,-0.390443 L174.375,-0.38745034 L174.84375,-0.38609862 L175.3125,-0.38339567 L175.78125,-0.38242605 L176.25,-0.38067654 L176.71875,-0.379529 L177.1875,-0.37714833 L177.65625,-0.37713683 L178.125,-0.37470612 L178.59375,-0.37312454 L179.0625,-0.37189627 L179.53125,-0.36888334 L180,-0.36998352 L180.46875,-0.36660686 L180.9375,-0.36548823 L181.40625,-0.36490536 L181.875,-0.36360347 L182.34375,-0.36126965 L182.8125,-0.35994738 L183.28125,-0.3586958 L183.75,-0.35764655 L184.21875,-0.35590628 L184.6875,-0.35380164 L185.15625,-0.35323587 L185.625,-0.35145813 L186.09375,-0.35057482 L186.5625,-0.3490271 L187.03125,-0.34767842 L187.5,-0.34658512 L187.96875,-0.3452719 L188.4375,-0.34368265 L188.90625,-0.34257323 L189.375,-0.34031743 L189.84375,-0.3406246 L190.3125,-0.33862877 L190.78125,-0.33679843 L191.25,-0.33610877 L191.71875,-0.33597258 L192.1875,-0.33401212 L192.65625,-0.33265254 L193.125,-0.33081886 L193.59375,-0.33184916 L194.0625,-0.3288441 L194.53125,-0.32761535 L195,-0.32629445 L195.46875,-0.32547542 L195.9375,-0.32433903 L196.40625,-0.323334 L196.875,-0.3227749 L197.34375,-0.32112154 L197.8125,-0.3198581 L198.28125,-0.31909895 L198.75,-0.3181021 L199.21875,-0.31726277 L199.6875,-0.31489608 L200.15625,-0.31379083 L200.625,-0.31384987 L201.09375,-0.31255606 L201.5625,-0.3116356 L202.03125,-0.31067646 L202.5,-0.30933753 L202.96875,-0.30893916 L203.4375,-0.30791897 L203.90625,-0.30659676 L204.375,-0.30569386 L204.84375,-0.3048033 L205.3125,-0.30398452 L205.78125,-0.30277508 L206.25,-0.30141687 L206.71875,-0.301964 L207.1875,-0.30020273 L207.65625,-0.29909146 L208.125,-0.29786828 L208.59375,-0.29759493 L209.0625,-0.29666206 L209.53125,-0.2950317 L210,-0.29471114 L210.46875,-0.29357263 L210.9375,-0.29289728 L211.40625,-0.29123715 L211.875,-0.2913806 L212.34375,-0.29034856 L212.8125,-0.28921586 L213.28125,-0.2885958 L213.75,-0.28760096 L214.21875,-0.28651744 L214.6875,-0.28625834 L215.15625,-0.2853957 L215.625,-0.2838485 L216.09375,-0.28360718 L216.5625,-0.28243586 L217.03125,-0.2816416 L217.5,-0.2812261 L217.96875,-0.28008705 L218.4375,-0.27941284 L218.90625,-0.27810943 L219.375,-0.27770787 L219.84375,-0.2775645 L220.3125,-0.27625382 L220.78125,-0.2761639 L221.25,-0.2747469 L221.71875,-0.27433068 L222.1875,-0.2729445 L222.65625,-0.2723441 L223.125,-0.2721632 L223.59375,-0.2713928 L224.0625,-0.27048668 L224.53125,-0.2693005 L225,-0.2687075 L225.46875,-0.26826128 L225.9375,-0.26734164 L226.40625,-0.26675546 L226.875,-0.2659652 L227.34375,-0.26564175 L227.8125,-0.26512045 L228.28125,-0.26464945 L228.75,-0.2637164 L229.21875,-0.26335436 L229.6875,-0.26668927 L230.15625,-0.2582797 L230.625,-0.25942475 L231.09375,-0.25906688 L231.5625,-0.25856245 L232.03125,-0.25892752 L232.5,-0.25725788 L232.96875,-0.25663975 L233.4375,-0.25635675 L233.90625,-0.25537935 L234.375,-0.2549177 L234.84375,-0.25449243 L235.3125,-0.25376588 L235.78125,-0.25330642 L236.25,-0.25225413 L236.71875,-0.25215188 L237.1875,-0.25128692 L237.65625,-0.25064042 L238.125,-0.2504752 L238.59375,-0.24939404 L239.0625,-0.24891639 L239.53125,-0.24819 L240,-0.24780318 L240.46875,-0.24722329 L240.9375,-0.24613728 L241.40625,-0.24572809 L241.875,-0.24535485 L242.34375,-0.24481688 L242.8125,-0.24388927 L243.28125,-0.24346176 L243.75,-0.24292836 L244.21875,-0.24242862 L244.6875,-0.24232681 L245.15625,-0.24134512 L245.625,-0.24061003 L246.09375,-0.24041437 L246.5625,-0.23967405 L247.03125,-0.23908786 L247.5,-0.23822111 L247.96875,-0.2380649 L248.4375,-0.23731816 L248.90625,-0.2367676 L249.375,-0.23632342 L249.84375,-0.23583396 L250.3125,-0.23528163 L250.78125,-0.2348514 L251.25,-0.2339128 L251.71875,-0.23352142 L252.1875,-0.2332503 L252.65625,-0.2323565 L253.125,-0.23207599 L253.59375,-0.23158425 L254.0625,-0.23105691 L254.53125,-0.23058313 L255,-0.23006088 L255.46875,-0.22944768 L255.9375,-0.22927696 L256.40625,-0.22889239 L256.875,-0.2280805 L257.34375,-0.22769965 L257.8125,-0.22716543 L258.28125,-0.22675711 L258.75,-0.22615127 L259.21875,-0.22544898 L259.6875,-0.22529505 L260.15625,-0.22490194 L260.625,-0.22442344 L261.09375,-0.22408286 L261.5625,-0.22346167 L262.03125,-0.22287004 L262.5,-0.22217557 L262.96875,-0.22213526 L263.4375,-0.2213331 L263.90625,-0.22116227 L264.375,-0.2207118 L264.84375,-0.22010162 L265.3125,-0.21958247 L265.78125,-0.21929763 L266.25,-0.21906513 L266.71875,-0.21839726 L267.1875,-0.21797298 L267.65625,-0.2173655 L268.125,-0.21690078 L268.59375,-0.21669377 L269.0625,-0.21622738 L269.53125,-0.21631196 L270,-0.21597092 L270.46875,-0.2136292 L270.9375,-0.21440125 L271.40625,-0.21407238 L271.875,-0.21341665 L272.34375,-0.21344323 L272.8125,-0.21275169 L273.28125,-0.21182713 L273.75,-0.21106681 L274.21875,-0.2111113 L274.6875,-0.2107475 L275.15625,-0.21044368 L275.625,-0.20991522 L276.09375,-0.20974854 L276.5625,-0.20943893 L277.03125,-0.20850007 L277.5,-0.2084038 L277.96875,-0.2083401 L278.4375,-0.20779334 L278.90625,-0.20735966 L279.375,-0.20703769 L279.84375,-0.20642322 L280.3125,-0.20617335 L280.78125,-0.20568275 L281.25,-0.20553173 L281.71875,-0.20513362 L282.1875,-0.20460899 L282.65625,-0.20432478 L283.125,-0.2039446 L283.59375,-0.20347036 L284.0625,-0.20314364 L284.53125,-0.20272036 L285,-0.20249236 L285.46875,-0.20205633 L285.9375,-0.20177469 L286.40625,-0.20119916 L286.875,-0.20106852 L287.34375,-0.20075256 L287.8125,-0.2002976 L288.28125,-0.19981436 L288.75,-0.19963717 L289.21875,-0.19929545 L289.6875,-0.198858 L290.15625,-0.19832444 L290.625,-0.19812588 L291.09375,-0.19780189 L291.5625,-0.19749942 L292.03125,-0.19722869 L292.5,-0.19646434 L292.96875,-0.1962333 L293.4375,-0.19589558 L293.90625,-0.19577737 L294.375,-0.19542521 L294.84375,-0.19517188 L295.3125,-0.19443105 L295.78125,-0.19423574 L296.25,-0.19396676 L296.71875,-0.19363582 L297.1875,-0.19332497 L297.65625,-0.19313248 L298.125,-0.19235562 L298.59375,-0.19237718 L299.0625,-0.19197434 L299.53125,-0.19178519 L300,-0.19128424 L300.46875,-0.19115789 L300.9375,-0.19045506 L301.40625,-0.19024666 L301.875,-0.19023368 L302.34375,-0.18977866 L302.8125,-0.18893744 L303.28125,-0.18928154 L303.75,-0.18884756 L304.21875,-0.18826401 L304.6875,-0.18798353 L305.15625,-0.18791378 L305.625,-0.18758602 L306.09375,-0.18726577 L306.5625,-0.1868882 L307.03125,-0.18662274 L307.5,-0.18629088 L307.96875,-0.1858821 L308.4375,-0.18559998 L308.90625,-0.1854184 L309.375,-0.18499807 L309.84375,-0.18473239 L310.3125,-0.18450105 L310.78125,-0.1841783 L311.25,-0.1838483 L311.71875,-0.18368989 L312.1875,-0.18367164 L312.65625,-0.18314786 L313.125,-0.18268389 L313.59375,-0.18260191 L314.0625,-0.18203308 L314.53125,-0.18173675 L315,-0.18157831 L315.46875,-0.18139704 L315.9375,-0.18104035 L316.40625,-0.1809221 L316.875,-0.18036237 L317.34375,-0.18007652 L317.8125,-0.17989442 L318.28125,-0.17975092 L318.75,-0.17941439 L319.21875,-0.17923321 L319.6875,-0.17894566 L320.15625,-0.17866232 L320.625,-0.17842795 L321.09375,-0.17811581 L321.5625,-0.1779072 L322.03125,-0.17634928 L322.5,-0.17586055 L322.96875,-0.17636651 L323.4375,-0.17621034 L323.90625,-0.17616782 L324.375,-0.17586532 L324.84375,-0.17559077 L325.3125,-0.17527251 L325.78125,-0.17519647 L326.25,-0.1749236 L326.71875,-0.17454524 L327.1875,-0.17456675 L327.65625,-0.17415446 L328.125,-0.17388539 L328.59375,-0.17374419 L329.0625,-0.17352104 L329.53125,-0.17315745 L330,-0.17302246 L330.46875,-0.17264047 L330.9375,-0.17261033 L331.40625,-0.17215672 L331.875,-0.17194319 L332.34375,-0.17189373 L332.8125,-0.17143647 L333.28125,-0.17103676 L333.75,-0.1710437 L334.21875,-0.17070332 L334.6875,-0.17058338 L335.15625,-0.17031655 L335.625,-0.16987592 L336.09375,-0.16958617 L336.5625,-0.16937444 L337.03125,-0.16914245 L337.5,-0.16893977 L337.96875,-0.16873102 L338.4375,-0.16856709 L338.90625,-0.16841166 L339.375,-0.16787526 L339.84375,-0.16762812 L340.3125,-0.16741604 L340.78125,-0.16731401 L341.25,-0.1670144 L341.71875,-0.16693941 L342.1875,-0.16657022 L342.65625,-0.16637698 L343.125,-0.16598478 L343.59375,-0.16575664 L344.0625,-0.1648636 L344.53125,-0.16710708 L345,-0.1659027 L345.46875,-0.1654666 L345.9375,-0.16514912 L346.40625,-0.16470328 L346.875,-0.16464671 L347.34375,-0.16425084 L347.8125,-0.16400139 L348.28125,-0.16374195 L348.75,-0.16351758 L349.21875,-0.16338174 L349.6875,-0.16311255 L350.15625,-0.16294384 L350.625,-0.16270195 L351.09375,-0.1625647 L351.5625,-0.16209537 L352.03125,-0.1619257 L352.5,-0.16189565 L352.96875,-0.16161913 L353.4375,-0.16128236 L353.90625,-0.16116585 L354.375,-0.16107316 L354.84375,-0.16076615 L355.3125,-0.1605198 L355.78125,-0.16050301 L356.25,-0.16016372 L356.71875,-0.15988214 L357.1875,-0.15975446 L357.65625,-0.15951282 L358.125,-0.15933086 L358.59375,-0.15910769 L359.0625,-0.15887968 L359.53125,-0.15876631 L360,-0.15838045 L360.46875,-0.15834561 L360.9375,-0.1581464 L361.40625,-0.15802982 L361.875,-0.1574958 L362.34375,-0.15744843 L362.8125,-0.15736704 L363.28125,-0.15711834 L363.75,-0.1567976 L364.21875,-0.15673007 L364.6875,-0.15649986 L365.15625,-0.15628672 L365.625,-0.15613629 L366.09375,-0.1558936 L366.5625,-0.15579192 L367.03125,-0.155804 L367.5,-0.15533066 L367.96875,-0.15508746 L368.4375,-0.1550446 L368.90625,-0.15476081 L369.375,-0.15449537 L369.84375,-0.15431464 L370.3125,-0.15408804 L370.78125,-0.15420133 L371.25,-0.15386418 L371.71875,-0.15354162 L372.1875,-0.15350659 L372.65625,-0.15326694 L373.125,-0.1531039 L373.59375,-0.15295678 L374.0625,-0.15270178 L374.53125,-0.15244678 L375,-0.15223174 L375.46875,-0.15213807 L375.9375,-0.15209109 L376.40625,-0.15189973 L376.875,-0.15169713 L377.34375,-0.15168147 L377.8125,-0.1513694 L378.28125,-0.15106237 L378.75,-0.15092662 L379.21875,-0.15094337 L379.6875,-0.15082034 L380.15625,-0.15053265 L380.625,-0.15057115 L381.09375,-0.15027966 L381.5625,-0.15036193 L382.03125,-0.15046799 L382.5,-0.15091257 L382.96875,-0.15575074 L383.4375,-0.14588687 L383.90625,-0.14766097 L384.375,-0.14792308 L384.84375,-0.14790775 L385.3125,-0.1478362 L385.78125,-0.14194582 L386.25,-0.14785431 L386.71875,-0.14775255 L387.1875,-0.14755593 L387.65625,-0.14732407 L388.125,-0.14720266 L388.59375,-0.14718115 L389.0625,-0.1470217 L389.53125,-0.14687248 L390,-0.14653817 L390.46875,-0.1463875 L390.9375,-0.14625898 L391.40625,-0.14619532 L391.875,-0.14592968 L392.34375,-0.14593914 L392.8125,-0.14545847 L393.28125,-0.14546186 L393.75,-0.14525715 L394.21875,-0.14520258 L394.6875,-0.14509423 L395.15625,-0.14496092 L395.625,-0.14474265 L396.09375,-0.1444569 L396.5625,-0.14450791 L397.03125,-0.14419258 L397.5,-0.14425054 L397.96875,-0.14387842 L398.4375,-0.14390287 L398.90625,-0.14352973 L399.375,-0.14339 L399.84375,-0.14335582 L400.3125,-0.14319049 L400.78125,-0.14296345 L401.25,-0.14284582 L401.71875,-0.14280784 L402.1875,-0.1425003 L402.65625,-0.14259833 L403.125,-0.1423431 L403.59375,-0.14208382 L404.0625,-0.14207534 L404.53125,-0.14188531 L405,-0.14165391 L405.46875,-0.14143483 L405.9375,-0.14140366 L406.40625,-0.1413206 L406.875,-0.14110373 L407.34375,-0.14091454 L407.8125,-0.1407633 L408.28125,-0.14055613 L408.75,-0.14050211 L409.21875,-0.14037175 L409.6875,-0.14026417 L410.15625,-0.14014788 L410.625,-0.13987811 L411.09375,-0.13963842 L411.5625,-0.13972776 L412.03125,-0.13962159 L412.5,-0.13943295 L412.96875,-0.13921885 L413.4375,-0.13891874 L413.90625,-0.13892275 L414.375,-0.13886409 L414.84375,-0.13857327 L415.3125,-0.13846876 L415.78125,-0.13828914 L416.25,-0.13828823 L416.71875,-0.13821238 L417.1875,-0.13793108 L417.65625,-0.13797864 L418.125,-0.13750881 L418.59375,-0.13746473 L419.0625,-0.1374783 L419.53125,-0.1371484 L420,-0.13730781 L420.46875,-0.13707729 L420.9375,-0.136741 L421.40625,-0.13676597 L421.875,-0.13685574 L422.34375,-0.1367745 L422.8125,-0.13689688 L423.28125,-0.13814393 L423.75,-0.13303903 L424.21875,-0.13519973 L424.6875,-0.13537659 L425.15625,-0.13543768 L425.625,-0.1352452 L426.09375,-0.13516493 L426.5625,-0.13506678 L427.03125,-0.13490435 L427.5,-0.13498059 L427.96875,-0.13482322 L428.4375,-0.13451596 L428.90625,-0.13442332 L429.375,-0.13428289 L429.84375,-0.13421749 L430.3125,-0.1341293 L430.78125,-0.13405481 L431.25,-0.13382393 L431.71875,-0.13380732 L432.1875,-0.13355374 L432.65625,-0.13351344 L433.125,-0.1333714 L433.59375,-0.133291 L434.0625,-0.13303523 L434.53125,-0.13289618 L435,-0.1329166 L435.46875,-0.1327708 L435.9375,-0.13260023 L436.40625,-0.1324964 L436.875,-0.132422 L437.34375,-0.13214523 L437.8125,-0.13192192 L438.28125,-0.13213623 L438.75,-0.1317285 L439.21875,-0.13173299 L439.6875,-0.13170291 L440.15625,-0.13164435 L440.625,-0.13149175 L441.09375,-0.13129765 L441.5625,-0.13122395 L442.03125,-0.13096413 L442.5,-0.13091366 L442.96875,-0.13087283 L443.4375,-0.13064076 L443.90625,-0.1304885 L444.375,-0.13038102 L444.84375,-0.1304647 L445.3125,-0.1302306 L445.78125,-0.12999853 L446.25,-0.12996922 L446.71875,-0.12976742 L447.1875,-0.12961234 L447.65625,-0.12954168 L448.125,-0.12939218 L448.59375,-0.12927361 L449.0625,-0.12926163 L449.53125,-0.1290863 L450,-0.12895045 L450.46875,-0.12889816 L450.9375,-0.12870559 L451.40625,-0.12861429 L451.875,-0.12864465 L452.34375,-0.1284197 L452.8125,-0.12832838 L453.28125,-0.12803717 L453.75,-0.12789801 L454.21875,-0.12779532 L454.6875,-0.12744235 L455.15625,-0.12634529 L455.625,-0.1376319 L456.09375,-0.12825264 L456.5625,-0.1277938 L457.03125,-0.127703 L457.5,-0.12753148 L457.96875,-0.12729289 L458.4375,-0.12715352 L458.90625,-0.12721163 L459.375,-0.12695198 L459.84375,-0.12693854 L460.3125,-0.12673844 L460.78125,-0.12672225 L461.25,-0.12653898 L461.71875,-0.12642491 L462.1875,-0.12627938 L462.65625,-0.12619416 L463.125,-0.12600437 L463.59375,-0.12590203 L464.0625,-0.12586416 L464.53125,-0.1257817 L465,-0.12573406 L465.46875,-0.12549452 L465.9375,-0.12545218 L466.40625,-0.12534998 L466.875,-0.12539056 L467.34375,-0.12515432 L467.8125,-0.124948636 L468.28125,-0.12486073 L468.75,-0.12470533 L469.21875,-0.12476439 L469.6875,-0.12466905 L470.15625,-0.12451332 L470.625,-0.1245465 L471.09375,-0.124289654 L471.5625,-0.12414049 L472.03125,-0.124154165 L472.5,-0.123970084 L472.96875,-0.12401406 L473.4375,-0.1237273 L473.90625,-0.12372033 L474.375,-0.123575166 L474.84375,-0.12352141 L475.3125,-0.12336275 L475.78125,-0.12329238 L476.25,-0.123259835 L476.71875,-0.123154834 L477.1875,-0.123019226 L477.65625,-0.123064086 L478.125,-0.12281067 L478.59375,-0.12271704 L479.0625,-0.12265965 L479.53125,-0.12246752" fill="none" stroke="#ff0000" stroke-linejoin="round" stroke-width="2"/>
</g>
<g>
<circle cx="0" cy="-5.190664685983611" fill="" r="0"/>
<circle cx="0.46875" cy="-1.3073525575547753" fill="" r="0"/>
<circle cx="0.9375" cy="-0.8863426194004691" fill="" r="0"/>
<circle cx="1.40625" cy="-0.45918544078410234" fill="" r="0"/>
<circle cx="1.875" cy="-0.49605141933213065" fill="" r="0"/>
<circle cx="2.34375" cy="-0.38199130501488293" fill="" r="0"/>
<circle cx="2.8125" cy="-0.362442840807119" fill="" r="0"/>
<circle cx="3.28125" cy="-0.25487732202398033" fill="" r="0"/>
<circle cx="3.75" cy="-0.22784623972200013" fill="" r="0"/>
<circle cx="4.21875" cy="-0.24676178011442676" fill="" r="0"/>
<circle cx="4.6875" cy="-0.2659572005753086" fill="" r="0"/>
<circle cx="5.15625" cy="-0.24949391315382222" fill="" r="0"/>
<circle cx="5.625" cy="-0.24698869424101344" fill="" r="0"/>
<circle cx="6.09375" cy="-0.2554921919179187" fill="" r="0"/>
<circle cx="6.5625" cy="-0.24021701325005207" fill="" r="0"/>
<circle cx="7.03125" cy="-0.24145355383478434" fill="" r="0"/>
<circle cx="7.5" cy="-0.23334634490324263" fill="" r="0"/>
<circle cx="7.96875" cy="-0.23089322699251708" fill="" r="0"/>
<circle cx="8.4375" cy="-0.2286691756550698" fill="" r="0"/>
<circle cx="8.90625" cy="-0.22257427263086837" fill="" r="0"/>
<circle cx="9.375" cy="-0.23755176797146463" fill="" r="0"/>
<circle cx="9.84375" cy="-0.23135647862776365" fill="" r="0"/>
<circle cx="10.3125" cy="-0.22774619426085208" fill="" r="0"/>
<circle cx="10.78125" cy="-0.23203308297504024" fill="" r="0"/>
<circle cx="11.25" cy="-0.23104906130417485" fill="" r="0"/>
<circle cx="11.71875" cy="-0.23370891245395586" fill="" r="0"/>
<circle cx="12.1875" cy="-0.2312594685893922" fill="" r="0"/>
<circle cx="12.65625" cy="-0.2322647039072475" fill="" r="0"/>
<circle cx="13.125" cy="-0.23559428302204385" fill="" r="0"/>
<circle cx="13.59375" cy="-0.23660034794736634" fill="" r="0"/>
<circle cx="14.0625" cy="-0.24074020815810176" fill="" r="0"/>
<circle cx="14.53125" cy="-0.23725443180211395" fill="" r="0"/>
<circle cx="15" cy="-0.243456432893277" fill="" r="0"/>
<circle cx="15.46875" cy="-0.24094593923413724" fill="" r="0"/>
<circle cx="15.9375" cy="-0.2495942921015626" fill="" r="0"/>
<circle cx="16.40625" cy="-0.24923339224899163" fill="" r="0"/>
<circle cx="16.875" cy="-0.2515773159027495" fill="" r="0"/>
<circle cx="17.34375" cy="-0.254456741419554" fill="" r="0"/>
<circle cx="17.8125" cy="-0.25818573521270444" fill="" r="0"/>
<circle cx="18.28125" cy="-0.2604415362558956" fill="" r="0"/>
<circle cx="18.75" cy="-0.2625164321905566" fill="" r="0"/>
<circle cx="19.21875" cy="-0.264993533329554" fill="" r="0"/>
<circle cx="19.6875" cy="-0.2713721192303363" fill="" r="0"/>
<circle cx="20.15625" cy="-0.2715890599406556" fill="" r="0"/>
<circle cx="20.625" cy="-0.2738100016879491" fill="" r="0"/>
<circle cx="21.09375" cy="-0.2786606716004389" fill="" r="0"/>
<circle cx="21.5625" cy="-0.28246579989293563" fill="" r="0"/>
<circle cx="22.03125" cy="-0.2827909517450248" fill="" r="0"/>
<circle cx="22.5" cy="-0.2865050637353158" fill="" r="0"/>
<circle cx="22.96875" cy="-0.2859031045322903" fill="" r="0"/>
<circle cx="23.4375" cy="-0.2915259575915914" fill="" r="0"/>
<circle cx="23.90625" cy="-0.30242373171764775" fill="" r="0"/>
<circle cx="24.375" cy="-0.2959407533144293" fill="" r="0"/>
<circle cx="24.84375" cy="-0.300801936677409" fill="" r="0"/>
<circle cx="25.3125" cy="-0.30968493337365377" fill="" r="0"/>
<circle cx="25.78125" cy="-0.3076102587943355" fill="" r="0"/>
<circle cx="26.25" cy="-0.3188833923049277" fill="" r="0"/>
<circle cx="26.71875" cy="-0.3207304547217681" fill="" r="0"/>
<circle cx="27.1875" cy="-0.32332507931209487" fill="" r="0"/>
<circle cx="27.65625" cy="-0.32886922491712167" fill="" r="0"/>
<circle cx="28.125" cy="-0.331537256127545" fill="" r="0"/>
<circle cx="28.59375" cy="-0.3419399867234797" fill="" r="0"/>
<circle cx="29.0625" cy="-0.34027823910559096" fill="" r="0"/>
<circle cx="29.53125" cy="-0.3485825764817391" fill="" r="0"/>
<circle cx="30" cy="-0.35455793973675565" fill="" r="0"/>
<circle cx="30.46875" cy="-0.3504962484428388" fill="" r="0"/>
<circle cx="30.9375" cy="-0.3603618178446025" fill="" r="0"/>
<circle cx="31.40625" cy="-0.37580507033403393" fill="" r="0"/>
<circle cx="31.875" cy="-0.3733859134409327" fill="" r="0"/>
<circle cx="32.34375" cy="-0.37847641984554764" fill="" r="0"/>
<circle cx="32.8125" cy="-0.3781591328096433" fill="" r="0"/>
<circle cx="33.28125" cy="-0.38788187987062517" fill="" r="0"/>
<circle cx="33.75" cy="-0.3927807795734436" fill="" r="0"/>
<circle cx="34.21875" cy="-0.39618428545188084" fill="" r="0"/>
<circle cx="34.6875" cy="-0.4059285077542626" fill="" r="0"/>
<circle cx="35.15625" cy="-0.41435991631489405" fill="" r="0"/>
<circle cx="35.625" cy="-0.4095554316337876" fill="" r="0"/>
<circle cx="36.09375" cy="-0.4264388387161542" fill="" r="0"/>
<circle cx="36.5625" cy="-0.4287441577893883" fill="" r="0"/>
<circle cx="37.03125" cy="-0.42972420822440954" fill="" r="0"/>
<circle cx="37.5" cy="-0.4412515332433353" fill="" r="0"/>
<circle cx="37.96875" cy="-0.4498904789931217" fill="" r="0"/>
<circle cx="38.4375" cy="-0.44850267850236897" fill="" r="0"/>
<circle cx="38.90625" cy="-0.45314216721241546" fill="" r="0"/>
<circle cx="39.375" cy="-0.4726868442716208" fill="" r="0"/>
<circle cx="39.84375" cy="-0.4675573268046039" fill="" r="0"/>
<circle cx="40.3125" cy="-0.49483698875908355" fill="" r="0"/>
<circle cx="40.78125" cy="-0.48746762812136046" fill="" r="0"/>
<circle cx="41.25" cy="-0.5002676846773337" fill="" r="0"/>
<circle cx="41.71875" cy="-0.503118691200538" fill="" r="0"/>
<circle cx="42.1875" cy="-0.5154682702170278" fill="" r="0"/>
<circle cx="42.65625" cy="-0.5261410049382942" fill="" r="0"/>
<circle cx="43.125" cy="-0.5160650641250635" fill="" r="0"/>
<circle cx="43.59375" cy="-0.5393994862412661" fill="" r="0"/>
<circle cx="44.0625" cy="-0.5571020141995001" fill="" r="0"/>
<circle cx="44.53125" cy="-0.5626162397438984" fill="" r="0"/>
<circle cx="45" cy="-0.5649831981722225" fill="" r="0"/>
<circle cx="45.46875" cy="-0.561066048185617" fill="" r="0"/>
<circle cx="45.9375" cy="-0.5818936329826973" fill="" r="0"/>
<circle cx="46.40625" cy="-0.5973339783181265" fill="" r="0"/>
<circle cx="46.875" cy="-0.6086823561115049" fill="" r="0"/>
<circle cx="47.34375" cy="-0.6167865819003844" fill="" r="0"/>
<circle cx="47.8125" cy="-0.6325699307091885" fill="" r="0"/>
<circle cx="48.28125" cy="-0.645324763444174" fill="" r="0"/>
<circle cx="48.75" cy="-0.6606734648311068" fill="" r="0"/>
<circle cx="49.21875" cy="-0.6689099483894161" fill="" r="0"/>
<circle cx="49.6875" cy="-0.6881335867494169" fill="" r="0"/>
<circle cx="50.15625" cy="-0.6934301248031983" fill="" r="0"/>
<circle cx="50.625" cy="-0.715599239579874" fill="" r="0"/>
<circle cx="51.09375" cy="-0.7191333149584177" fill="" r="0"/>
<circle cx="51.5625" cy="-0.7391417082509756" fill="" r="0"/>
<circle cx="52.03125" cy="-0.7561022846093693" fill="" r="0"/>
<circle cx="52.5" cy="-0.7578406379364744" fill="" r="0"/>
<circle cx="52.96875" cy="-0.7791651577265997" fill="" r="0"/>
<circle cx="53.4375" cy="-0.797963639515274" fill="" r="0"/>
<circle cx="53.90625" cy="-0.8249383689620522" fill="" r="0"/>
<circle cx="54.375" cy="-0.853392152562307" fill="" r="0"/>
<circle cx="54.84375" cy="-0.8552037939039786" fill="" r="0"/>
<circle cx="55.3125" cy="-0.882354912813269" fill="" r="0"/>
<circle cx="55.78125" cy="-0.8889568919830058" fill="" r="0"/>
<circle cx="56.25" cy="-0.927303461041784" fill="" r="0"/>
<circle cx="56.71875" cy="-0.9359398298463324" fill="" r="0"/>
<circle cx="57.1875" cy="-0.9628953752898354" fill="" r="0"/>
<circle cx="57.65625" cy="-0.9840701655691618" fill="" r="0"/>
<circle cx="58.125" cy="-1.0045655257815331" fill="" r="0"/>
<circle cx="58.59375" cy="-1.048431796958079" fill="" r="0"/>
<circle cx="59.0625" cy="-1.0737290221160127" fill="" r="0"/>
<circle cx="59.53125" cy="-1.1013338679953033" fill="" r="0"/>
<circle cx="60" cy="-1.110770492224299" fill="" r="0"/>
<circle cx="60.46875" cy="-1.1414034666032395" fill="" r="0"/>
<circle cx="60.9375" cy="-1.2123809908459469" fill="" r="0"/>
<circle cx="61.40625" cy="-1.2243094932439889" fill="" r="0"/>
<circle cx="61.875" cy="-1.2834723151379834" fill="" r="0"/>
<circle cx="62.34375" cy="-1.2989697103840054" fill="" r="0"/>
<circle cx="62.8125" cy="-1.347955053881173" fill="" r="0"/>
<circle cx="63.28125" cy="-1.3728533137973233" fill="" r="0"/>
<circle cx="63.75" cy="-1.4313272711449438" fill="" r="0"/>
<circle cx="64.21875" cy="-1.4905087407298934" fill="" r="0"/>
<circle cx="64.6875" cy="-1.5578118402701282" fill="" r="0"/>
<circle cx="65.15625" cy="-1.631586086631163" fill="" r="0"/>
<circle cx="65.625" cy="-1.718993605025018" fill="" r="0"/>
<circle cx="66.09375" cy="-1.7459135860571153" fill="" r="0"/>
<circle cx="66.5625" cy="-1.8082373847574953" fill="" r="0"/>
<circle cx="67.03125" cy="-1.9114520677126778" fill="" r="0"/>
<circle cx="67.5" cy="-1.9766250785392812" fill="" r="0"/>
<circle cx="67.96875" cy="-2.108781776418607" fill="" r="0"/>
<circle cx="68.4375" cy="-2.213114748291716" fill="" r="0"/>
<circle cx="68.90625" cy="-2.3125405604452256" fill="" r="0"/>
<circle cx="69.375" cy="-2.4799740547144475" fill="" r="0"/>
<circle cx="69.84375" cy="-2.632282932919141" fill="" r="0"/>
<circle cx="70.3125" cy="-2.8244218395839433" fill="" r="0"/>
<circle cx="70.78125" cy="-2.9769268364200405" fill="" r="0"/>
<circle cx="71.25" cy="-3.283340077247084" fill="" r="0"/>
<circle cx="71.71875" cy="-3.530577249594983" fill="" r="0"/>
<circle cx="72.1875" cy="-3.882940818523069" fill="" r="0"/>
<circle cx="72.65625" cy="-4.319537944194585" fill="" r="0"/>
<circle cx="73.125" cy="-4.902109690555349" fill="" r="0"/>
<circle cx="73.59375" cy="-5.540096052395519" fill="" r="0"/>
<circle cx="74.0625" cy="-6.41158166148229" fill="" r="0"/>
<circle cx="74.53125" cy="-7.795721848487636" fill="" r="0"/>
<circle cx="75" cy="-10.070643455779182" fill="" r="0"/>
<circle cx="75.46875" cy="-13.845868404638091" fill="" r="0"/>
<circle cx="75.9375" cy="-23.403238792691905" fill="" r="0"/>
<circle cx="76.40625" cy="-69.49567390266647" fill="" r="0"/>
<circle cx="76.875" cy="-62.91055871649011" fill="" r="0"/>
<circle cx="77.34375" cy="-21.458316851972803" fill="" r="0"/>
<circle cx="77.8125" cy="-12.693731343791447" fill="" r="0"/>
<circle cx="78.28125" cy="-8.90067399726667" fill="" r="0"/>
<circle cx="78.75" cy="-6.831410590067895" fill="" r="0"/>
<circle cx="79.21875" cy="-5.510429360037224" fill="" r="0"/>
<circle cx="79.6875" cy="-4.532768996890525" fill="" r="0"/>
<circle cx="80.15625" cy="-3.8644781255683602" fill="" r="0"/>
<circle cx="80.625" cy="-3.287489790347162" fill="" r="0"/>
<circle cx="81.09375" cy="-2.8492533770353523" fill="" r="0"/>
<circle cx="81.5625" cy="-2.567004788658322" fill="" r="0"/>
<circle cx="82.03125" cy="-2.277113384791828" fill="" r="0"/>
<circle cx="82.5" cy="-2.072132346193659" fill="" r="0"/>
<circle cx="82.96875" cy="-1.9187867337712639" fill="" r="0"/>
<circle cx="83.4375" cy="-1.793458449459494" fill="" r="0"/>
<circle cx="83.90625" cy="-1.6737140919410647" fill="" r="0"/>
<circle cx="84.375" cy="-1.6585811443050913" fill="" r="0"/>
<circle cx="84.84375" cy="-1.6794164543136192" fill="" r="0"/>
<circle cx="85.3125" cy="-1.7154973257122184" fill="" r="0"/>
<circle cx="85.78125" cy="-1.860716332245342" fill="" r="0"/>
<circle cx="86.25" cy="-1.9931764334604265" fill="" r="0"/>
<circle cx="86.71875" cy="-2.246705725260003" fill="" r="0"/>
<circle cx="87.1875" cy="-2.6305519482616786" fill="" r="0"/>
<circle cx="87.65625" cy="-3.05952284121675" fill="" r="0"/>
<circle cx="88.125" cy="-3.674434327327588" fill="" r="0"/>
<circle cx="88.59375" cy="-4.50265226579582" fill="" r="0"/>
<circle cx="89.0625" cy="-5.657455926453907" fill="" r="0"/>
<circle cx="89.53125" cy="-7.533855687681189" fill="" r="0"/>
<circle cx="90" cy="-11.199341860278958" fill="" r="0"/>
<circle cx="90.46875" cy="-19.897921296041105" fill="" r="0"/>
<circle cx="90.9375" cy="-72.37227610439196" fill="" r="0"/>
<circle cx="91.40625" cy="-48.859168268315464" fill="" r="0"/>
<circle cx="91.875" cy="-18.771178821525677" fill="" r="0"/>
<circle cx="92.34375" cy="-11.797251707498766" fill="" r="0"/>
<circle cx="92.8125" cy="-8.801900919364172" fill="" r="0"/>
<circle cx="93.28125" cy="-7.161023669065304" fill="" r="0"/>
<circle cx="93.75" cy="-5.897353793832489" fill="" r="0"/>
<circle cx="94.21875" cy="-5.098897003501511" fill="" r="0"/>
<circle cx="94.6875" cy="-4.5138508386444895" fill="" r="0"/>
<circle cx="95.15625" cy="-4.09427193897347" fill="" r="0"/>
<circle cx="95.625" cy="-3.7391320368551093" fill="" r="0"/>
<circle cx="96.09375" cy="-3.4492590127813747" fill="" r="0"/>
<circle cx="96.5625" cy="-3.19495226870492" fill="" r="0"/>
<circle cx="97.03125" cy="-2.981534147708853" fill="" r="0"/>
<circle cx="97.5" cy="-2.791784444215929" fill="" r="0"/>
<circle cx="97.96875" cy="-2.64533896090069" fill="" r="0"/>
<circle cx="98.4375" cy="-2.4872608100258367" fill="" r="0"/>
<circle cx="98.90625" cy="-2.426871361456157" fill="" r="0"/>
<circle cx="99.375" cy="-2.313571682971659" fill="" r="0"/>
<circle cx="99.84375" cy="-2.1891671102574377" fill="" r="0"/>
<circle cx="100.3125" cy="-2.1051672915224353" fill="" r="0"/>
<circle cx="100.78125" cy="-2.0194264013069927" fill="" r="0"/>
<circle cx="101.25" cy="-1.9349731691775862" fill="" r="0"/>
<circle cx="101.71875" cy="-1.8742212514453613" fill="" r="0"/>
<circle cx="102.1875" cy="-1.8536866506794534" fill="" r="0"/>
<circle cx="102.65625" cy="-1.7919278684721816" fill="" r="0"/>
<circle cx="103.125" cy="-1.7319780219433842" fill="" r="0"/>
<circle cx="103.59375" cy="-1.6801444670418655" fill="" r="0"/>
<circle cx="104.0625" cy="-1.6283007575697959" fill="" r="0"/>
<circle cx="104.53125" cy="-1.6030118541636096" fill="" r="0"/>
<circle cx="105" cy="-1.5618734745859546" fill="" r="0"/>
<circle cx="105.46875" cy="-1.5210941230912103" fill="" r="0"/>
<circle cx="105.9375" cy="-1.4984221211145181" fill="" r="0"/>
<circle cx="106.40625" cy="-1.4521628962545587" fill="" r="0"/>
<circle cx="106.875" cy="-1.444465575362629" fill="" r="0"/>
<circle cx="107.34375" cy="-1.4200112776618363" fill="" r="0"/>
<circle cx="107.8125" cy="-1.3925964229170966" fill="" r="0"/>
<circle cx="108.28125" cy="-1.38266753707659" fill="" r="0"/>
<circle cx="108.75" cy="-1.3502282032778554" fill="" r="0"/>
<circle cx="109.21875" cy="-1.335202140800885" fill="" r="0"/>
<circle cx="109.6875" cy="-1.3554683321828283" fill="" r="0"/>
<circle cx="110.15625" cy="-1.368024719543725" fill="" r="0"/>
<circle cx="110.625" cy="-1.4066635975341817" fill="" r="0"/>
<circle cx="111.09375" cy="-1.4253084030822185" fill="" r="0"/>
<circle cx="111.5625" cy="-1.5042568416289444" fill="" r="0"/>
<circle cx="112.03125" cy="-1.4595096104173517" fill="" r="0"/>
<circle cx="112.5" cy="-1.668210212215755" fill="" r="0"/>
<circle cx="112.96875" cy="-1.9530871460360608" fill="" r="0"/>
<circle cx="113.4375" cy="-2.3503372643714586" fill="" r="0"/>
<circle cx="113.90625" cy="-3.3844458555547248" fill="" r="0"/>
<circle cx="114.375" cy="-6.837828826709218" fill="" r="0"/>
<circle cx="114.84375" cy="-105.38849054483946" fill="" r="0"/>
<circle cx="115.3125" cy="-6.122650940268823" fill="" r="0"/>
<circle cx="115.78125" cy="-2.977176989753925" fill="" r="0"/>
<circle cx="116.25" cy="-2.2619031004268675" fill="" r="0"/>
<circle cx="116.71875" cy="-1.735897170764428" fill="" r="0"/>
<circle cx="117.1875" cy="-1.5913521143581624" fill="" r="0"/>
<circle cx="117.65625" cy="-1.2853884587795514" fill="" r="0"/>
<circle cx="118.125" cy="-1.2279064955697387" fill="" r="0"/>
<circle cx="118.59375" cy="-1.1254596920280762" fill="" r="0"/>
<circle cx="119.0625" cy="-1.1142666418267717" fill="" r="0"/>
<circle cx="119.53125" cy="-1.0745077717412925" fill="" r="0"/>
<circle cx="120" cy="-1.0237228607149016" fill="" r="0"/>
<circle cx="120.46875" cy="-0.9572620734996397" fill="" r="0"/>
<circle cx="120.9375" cy="-0.9458247856918749" fill="" r="0"/>
<circle cx="121.40625" cy="-0.9463489243970755" fill="" r="0"/>
<circle cx="121.875" cy="-0.9197145979167312" fill="" r="0"/>
<circle cx="122.34375" cy="-0.9085215910460505" fill="" r="0"/>
<circle cx="122.8125" cy="-0.8684356461031382" fill="" r="0"/>
<circle cx="123.28125" cy="-0.8543506234579841" fill="" r="0"/>
<circle cx="123.75" cy="-0.8296407016553958" fill="" r="0"/>
<circle cx="124.21875" cy="-0.8227845277254452" fill="" r="0"/>
<circle cx="124.6875" cy="-0.8139161203906848" fill="" r="0"/>
<circle cx="125.15625" cy="-0.8044788536482059" fill="" r="0"/>
<circle cx="125.625" cy="-0.7959940762819724" fill="" r="0"/>
<circle cx="126.09375" cy="-0.7858652983597083" fill="" r="0"/>
<circle cx="126.5625" cy="-0.7749957924516749" fill="" r="0"/>
<circle cx="127.03125" cy="-0.7533972193133585" fill="" r="0"/>
<circle cx="127.5" cy="-0.7512428760218848" fill="" r="0"/>
<circle cx="127.96875" cy="-0.7270524935633663" fill="" r="0"/>
<circle cx="128.4375" cy="-0.7378163419579993" fill="" r="0"/>
<circle cx="128.90625" cy="-0.7324099916977216" fill="" r="0"/>
<circle cx="129.375" cy="-0.7176568594254" fill="" r="0"/>
<circle cx="129.84375" cy="-0.7245473711107054" fill="" r="0"/>
<circle cx="130.3125" cy="-0.7087614885697011" fill="" r="0"/>
<circle cx="130.78125" cy="-0.7019400724138247" fill="" r="0"/>
<circle cx="131.25" cy="-0.683878122095529" fill="" r="0"/>
<circle cx="131.71875" cy="-0.6877936212148187" fill="" r="0"/>
<circle cx="132.1875" cy="-0.6801447920487914" fill="" r="0"/>
<circle cx="132.65625" cy="-0.6558555173539288" fill="" r="0"/>
<circle cx="133.125" cy="-0.6656761628900101" fill="" r="0"/>
<circle cx="133.59375" cy="-0.6635506539407923" fill="" r="0"/>
<circle cx="134.0625" cy="-0.6567477165200468" fill="" r="0"/>
<circle cx="134.53125" cy="-0.6520522787913428" fill="" r="0"/>
<circle cx="135" cy="-0.6507519605278989" fill="" r="0"/>
<circle cx="135.46875" cy="-0.6349346628583477" fill="" r="0"/>
<circle cx="135.9375" cy="-0.634611453157449" fill="" r="0"/>
<circle cx="136.40625" cy="-0.6316631001542823" fill="" r="0"/>
<circle cx="136.875" cy="-0.62429585531004" fill="" r="0"/>
<circle cx="137.34375" cy="-0.6097567725324868" fill="" r="0"/>
<circle cx="137.8125" cy="-0.6078530783880888" fill="" r="0"/>
<circle cx="138.28125" cy="-0.6025982356519696" fill="" r="0"/>
<circle cx="138.75" cy="-0.5983747413084487" fill="" r="0"/>
<circle cx="139.21875" cy="-0.5911137306837297" fill="" r="0"/>
<circle cx="139.6875" cy="-0.5856790747564374" fill="" r="0"/>
<circle cx="140.15625" cy="-0.5868309385896161" fill="" r="0"/>
<circle cx="140.625" cy="-0.5856228155431104" fill="" r="0"/>
<circle cx="141.09375" cy="-0.5801571199350267" fill="" r="0"/>
<circle cx="141.5625" cy="-0.5722686465227617" fill="" r="0"/>
<circle cx="142.03125" cy="-0.5635128705700645" fill="" r="0"/>
<circle cx="142.5" cy="-0.5667157210061363" fill="" r="0"/>
<circle cx="142.96875" cy="-0.5594546303108965" fill="" r="0"/>
<circle cx="143.4375" cy="-0.5589892306293363" fill="" r="0"/>
<circle cx="143.90625" cy="-0.5552181991784986" fill="" r="0"/>
<circle cx="144.375" cy="-0.547581380585957" fill="" r="0"/>
<circle cx="144.84375" cy="-0.5430855111412318" fill="" r="0"/>
<circle cx="145.3125" cy="-0.5435316663058005" fill="" r="0"/>
<circle cx="145.78125" cy="-0.5377775894034114" fill="" r="0"/>
<circle cx="146.25" cy="-0.5337129115175974" fill="" r="0"/>
<circle cx="146.71875" cy="-0.5272478180251929" fill="" r="0"/>
<circle cx="147.1875" cy="-0.5225296070893801" fill="" r="0"/>
<circle cx="147.65625" cy="-0.5224605960315364" fill="" r="0"/>
<circle cx="148.125" cy="-0.5181620495168546" fill="" r="0"/>
<circle cx="148.59375" cy="-0.5187910776544314" fill="" r="0"/>
<circle cx="149.0625" cy="-0.5160173350773165" fill="" r="0"/>
<circle cx="149.53125" cy="-0.5095469671767049" fill="" r="0"/>
<circle cx="150" cy="-0.50676420886272" fill="" r="0"/>
<circle cx="150.46875" cy="-0.5032817569373512" fill="" r="0"/>
<circle cx="150.9375" cy="-0.5010370467719031" fill="" r="0"/>
<circle cx="151.40625" cy="-0.49609679640261434" fill="" r="0"/>
<circle cx="151.875" cy="-0.49209255765316157" fill="" r="0"/>
<circle cx="152.34375" cy="-0.4914837057631082" fill="" r="0"/>
<circle cx="152.8125" cy="-0.4895680518490374" fill="" r="0"/>
<circle cx="153.28125" cy="-0.4898929898615023" fill="" r="0"/>
<circle cx="153.75" cy="-0.4848970108529313" fill="" r="0"/>
<circle cx="154.21875" cy="-0.4801554443154687" fill="" r="0"/>
<circle cx="154.6875" cy="-0.4776244734262005" fill="" r="0"/>
<circle cx="155.15625" cy="-0.47519762404083327" fill="" r="0"/>
<circle cx="155.625" cy="-0.4717734736628204" fill="" r="0"/>
<circle cx="156.09375" cy="-0.4666925305780838" fill="" r="0"/>
<circle cx="156.5625" cy="-0.4700407824709339" fill="" r="0"/>
<circle cx="157.03125" cy="-0.4656794788261938" fill="" r="0"/>
<circle cx="157.5" cy="-0.46184898313434114" fill="" r="0"/>
<circle cx="157.96875" cy="-0.4606985157056583" fill="" r="0"/>
<circle cx="158.4375" cy="-0.4567878453759047" fill="" r="0"/>
<circle cx="158.90625" cy="-0.45412668995912114" fill="" r="0"/>
<circle cx="159.375" cy="-0.45234081696296075" fill="" r="0"/>
<circle cx="159.84375" cy="-0.4498887332057232" fill="" r="0"/>
<circle cx="160.3125" cy="-0.4485112684030746" fill="" r="0"/>
<circle cx="160.78125" cy="-0.44664650046922344" fill="" r="0"/>
<circle cx="161.25" cy="-0.4425119508669345" fill="" r="0"/>
<circle cx="161.71875" cy="-0.44058929717159917" fill="" r="0"/>
<circle cx="162.1875" cy="-0.4385761333638112" fill="" r="0"/>
<circle cx="162.65625" cy="-0.43713551578085913" fill="" r="0"/>
<circle cx="163.125" cy="-0.43312698552390044" fill="" r="0"/>
<circle cx="163.59375" cy="-0.430983428099424" fill="" r="0"/>
<circle cx="164.0625" cy="-0.4309225298151328" fill="" r="0"/>
<circle cx="164.53125" cy="-0.4277915214506525" fill="" r="0"/>
<circle cx="165" cy="-0.4239536567384556" fill="" r="0"/>
<circle cx="165.46875" cy="-0.42399416223859043" fill="" r="0"/>
<circle cx="165.9375" cy="-0.4199913601476405" fill="" r="0"/>
<circle cx="166.40625" cy="-0.419792515385423" fill="" r="0"/>
<circle cx="166.875" cy="-0.41621789380564284" fill="" r="0"/>
<circle cx="167.34375" cy="-0.41464536611659286" fill="" r="0"/>
<circle cx="167.8125" cy="-0.41503228869022013" fill="" r="0"/>
<circle cx="168.28125" cy="-0.4115146316988708" fill="" r="0"/>
<circle cx="168.75" cy="-0.40860510383089427" fill="" r="0"/>
<circle cx="169.21875" cy="-0.409025578932088" fill="" r="0"/>
<circle cx="169.6875" cy="-0.4051548625368903" fill="" r="0"/>
<circle cx="170.15625" cy="-0.4022848507177732" fill="" r="0"/>
<circle cx="170.625" cy="-0.40184697878149594" fill="" r="0"/>
<circle cx="171.09375" cy="-0.3998857842879951" fill="" r="0"/>
<circle cx="171.5625" cy="-0.3998513771606434" fill="" r="0"/>
<circle cx="172.03125" cy="-0.3967070761151745" fill="" r="0"/>
<circle cx="172.5" cy="-0.39454390977492143" fill="" r="0"/>
<circle cx="172.96875" cy="-0.39086284024048606" fill="" r="0"/>
<circle cx="173.4375" cy="-0.39078624762277614" fill="" r="0"/>
<circle cx="173.90625" cy="-0.3904430029010155" fill="" r="0"/>
<circle cx="174.375" cy="-0.38745033265857876" fill="" r="0"/>
<circle cx="174.84375" cy="-0.3860986250374268" fill="" r="0"/>
<circle cx="175.3125" cy="-0.3833956775385518" fill="" r="0"/>
<circle cx="175.78125" cy="-0.382426048073376" fill="" r="0"/>
<circle cx="176.25" cy="-0.38067653985701705" fill="" r="0"/>
<circle cx="176.71875" cy="-0.37952900042682464" fill="" r="0"/>
<circle cx="177.1875" cy="-0.377148338442695" fill="" r="0"/>
<circle cx="177.65625" cy="-0.37713681799840876" fill="" r="0"/>
<circle cx="178.125" cy="-0.3747061047239165" fill="" r="0"/>
<circle cx="178.59375" cy="-0.37312452895604775" fill="" r="0"/>
<circle cx="179.0625" cy="-0.37189626931295955" fill="" r="0"/>
<circle cx="179.53125" cy="-0.3688833454371001" fill="" r="0"/>
<circle cx="180" cy="-0.36998352973626286" fill="" r="0"/>
<circle cx="180.46875" cy="-0.3666068705915333" fill="" r="0"/>
<circle cx="180.9375" cy="-0.36548822959405436" fill="" r="0"/>
<circle cx="181.40625" cy="-0.3649053681581025" fill="" r="0"/>
<circle cx="181.875" cy="-0.3636034706406387" fill="" r="0"/>
<circle cx="182.34375" cy="-0.3612696577202718" fill="" r="0"/>
<circle cx="182.8125" cy="-0.3599473826677494" fill="" r="0"/>
<circle cx="183.28125" cy="-0.3586958110033143" fill="" r="0"/>
<circle cx="183.75" cy="-0.3576465535456282" fill="" r="0"/>
<circle cx="184.21875" cy="-0.3559062851414423" fill="" r="0"/>
<circle cx="184.6875" cy="-0.35380162943479154" fill="" r="0"/>
<circle cx="185.15625" cy="-0.35323587198119044" fill="" r="0"/>
<circle cx="185.625" cy="-0.3514581445830024" fill="" r="0"/>
<circle cx="186.09375" cy="-0.3505748214793279" fill="" r="0"/>
<circle cx="186.5625" cy="-0.3490270846420686" fill="" r="0"/>
<circle cx="187.03125" cy="-0.347678434423303" fill="" r="0"/>
<circle cx="187.5" cy="-0.34658513626080084" fill="" r="0"/>
<circle cx="187.96875" cy="-0.34527189907953626" fill="" r="0"/>
<circle cx="188.4375" cy="-0.3436826394116001" fill="" r="0"/>
<circle cx="188.90625" cy="-0.34257323579957255" fill="" r="0"/>
<circle cx="189.375" cy="-0.3403174303511438" fill="" r="0"/>
<circle cx="189.84375" cy="-0.34062459000330625" fill="" r="0"/>
<circle cx="190.3125" cy="-0.33862876612568543" fill="" r="0"/>
<circle cx="190.78125" cy="-0.33679842426258233" fill="" r="0"/>
<circle cx="191.25" cy="-0.33610878469701594" fill="" r="0"/>
<circle cx="191.71875" cy="-0.3359725703377119" fill="" r="0"/>
<circle cx="192.1875" cy="-0.3340121218498162" fill="" r="0"/>
<circle cx="192.65625" cy="-0.3326525495193394" fill="" r="0"/>
<circle cx="193.125" cy="-0.33081887131932414" fill="" r="0"/>
<circle cx="193.59375" cy="-0.3318491488703002" fill="" r="0"/>
<circle cx="194.0625" cy="-0.32884409419368826" fill="" r="0"/>
<circle cx="194.53125" cy="-0.3276153456858662" fill="" r="0"/>
<circle cx="195" cy="-0.32629445058783524" fill="" r="0"/>
<circle cx="195.46875" cy="-0.3254754243643584" fill="" r="0"/>
<circle cx="195.9375" cy="-0.3243390299362303" fill="" r="0"/>
<circle cx="196.40625" cy="-0.32333402145772366" fill="" r="0"/>
<circle cx="196.875" cy="-0.32277489374705853" fill="" r="0"/>
<circle cx="197.34375" cy="-0.32112154623504613" fill="" r="0"/>
<circle cx="197.8125" cy="-0.31985808983235964" fill="" r="0"/>
<circle cx="198.28125" cy="-0.3190989358757401" fill="" r="0"/>
<circle cx="198.75" cy="-0.3181020844174424" fill="" r="0"/>
<circle cx="199.21875" cy="-0.31726276731561515" fill="" r="0"/>
<circle cx="199.6875" cy="-0.3148960894534744" fill="" r="0"/>
<circle cx="200.15625" cy="-0.31379082272491887" fill="" r="0"/>
<circle cx="200.625" cy="-0.3138498803140052" fill="" r="0"/>
<circle cx="201.09375" cy="-0.3125560690842213" fill="" r="0"/>
<circle cx="201.5625" cy="-0.3116356198898925" fill="" r="0"/>
<circle cx="202.03125" cy="-0.3106764470140015" fill="" r="0"/>
<circle cx="202.5" cy="-0.30933753290365246" fill="" r="0"/>
<circle cx="202.96875" cy="-0.3089391597695738" fill="" r="0"/>
<circle cx="203.4375" cy="-0.30791896885135334" fill="" r="0"/>
<circle cx="203.90625" cy="-0.3065967653672149" fill="" r="0"/>
<circle cx="204.375" cy="-0.3056938711318138" fill="" r="0"/>
<circle cx="204.84375" cy="-0.3048033035999593" fill="" r="0"/>
<circle cx="205.3125" cy="-0.30398452024857386" fill="" r="0"/>
<circle cx="205.78125" cy="-0.3027750915694148" fill="" r="0"/>
<circle cx="206.25" cy="-0.3014168649958571" fill="" r="0"/>
<circle cx="206.71875" cy="-0.30196401245193877" fill="" r="0"/>
<circle cx="207.1875" cy="-0.30020273311604245" fill="" r="0"/>
<circle cx="207.65625" cy="-0.2990914607251762" fill="" r="0"/>
<circle cx="208.125" cy="-0.29786828640391255" fill="" r="0"/>
<circle cx="208.59375" cy="-0.29759493359582156" fill="" r="0"/>
<circle cx="209.0625" cy="-0.2966620742555934" fill="" r="0"/>
<circle cx="209.53125" cy="-0.2950316891300088" fill="" r="0"/>
<circle cx="210" cy="-0.2947111548026163" fill="" r="0"/>
<circle cx="210.46875" cy="-0.29357263480437545" fill="" r="0"/>
<circle cx="210.9375" cy="-0.2928972782967525" fill="" r="0"/>
<circle cx="211.40625" cy="-0.29123715937001476" fill="" r="0"/>
<circle cx="211.875" cy="-0.2913806282055567" fill="" r="0"/>
<circle cx="212.34375" cy="-0.29034857300023237" fill="" r="0"/>
<circle cx="212.8125" cy="-0.28921587629841017" fill="" r="0"/>
<circle cx="213.28125" cy="-0.28859579400130336" fill="" r="0"/>
<circle cx="213.75" cy="-0.28760095577791095" fill="" r="0"/>
<circle cx="214.21875" cy="-0.28651744894940345" fill="" r="0"/>
<circle cx="214.6875" cy="-0.286258342169876" fill="" r="0"/>
<circle cx="215.15625" cy="-0.285395719710334" fill="" r="0"/>
<circle cx="215.625" cy="-0.28384850491231417" fill="" r="0"/>
<circle cx="216.09375" cy="-0.283607182307023" fill="" r="0"/>
<circle cx="216.5625" cy="-0.2824358704915643" fill="" r="0"/>
<circle cx="217.03125" cy="-0.2816415940705701" fill="" r="0"/>
<circle cx="217.5" cy="-0.2812260948196151" fill="" r="0"/>
<circle cx="217.96875" cy="-0.28008706363810343" fill="" r="0"/>
<circle cx="218.4375" cy="-0.2794128479483406" fill="" r="0"/>
<circle cx="218.90625" cy="-0.27810943414771" fill="" r="0"/>
<circle cx="219.375" cy="-0.2777078868803444" fill="" r="0"/>
<circle cx="219.84375" cy="-0.277564495590155" fill="" r="0"/>
<circle cx="220.3125" cy="-0.27625380983735665" fill="" r="0"/>
<circle cx="220.78125" cy="-0.27616391490543274" fill="" r="0"/>
<circle cx="221.25" cy="-0.27474690597128054" fill="" r="0"/>
<circle cx="221.71875" cy="-0.2743306795092285" fill="" r="0"/>
<circle cx="222.1875" cy="-0.27294449735680243" fill="" r="0"/>
<circle cx="222.65625" cy="-0.27234412216762244" fill="" r="0"/>
<circle cx="223.125" cy="-0.27216322202752136" fill="" r="0"/>
<circle cx="223.59375" cy="-0.2713927857707366" fill="" r="0"/>
<circle cx="224.0625" cy="-0.27048667852048186" fill="" r="0"/>
<circle cx="224.53125" cy="-0.26930048627224895" fill="" r="0"/>
<circle cx="225" cy="-0.26870750801173776" fill="" r="0"/>
<circle cx="225.46875" cy="-0.26826129276110233" fill="" r="0"/>
<circle cx="225.9375" cy="-0.2673416470092508" fill="" r="0"/>
<circle cx="226.40625" cy="-0.2667554607609601" fill="" r="0"/>
<circle cx="226.875" cy="-0.2659651829619344" fill="" r="0"/>
<circle cx="227.34375" cy="-0.2656417501987026" fill="" r="0"/>
<circle cx="227.8125" cy="-0.2651204409515755" fill="" r="0"/>
<circle cx="228.28125" cy="-0.26464945569409715" fill="" r="0"/>
<circle cx="228.75" cy="-0.2637164134156042" fill="" r="0"/>
<circle cx="229.21875" cy="-0.26335436015831415" fill="" r="0"/>
<circle cx="229.6875" cy="-0.2666892852764712" fill="" r="0"/>
<circle cx="230.15625" cy="-0.25827970183220944" fill="" r="0"/>
<circle cx="230.625" cy="-0.2594247605451824" fill="" r="0"/>
<circle cx="231.09375" cy="-0.2590668830228275" fill="" r="0"/>
<circle cx="231.5625" cy="-0.2585624518653955" fill="" r="0"/>
<circle cx="232.03125" cy="-0.2589275156599944" fill="" r="0"/>
<circle cx="232.5" cy="-0.2572578702377458" fill="" r="0"/>
<circle cx="232.96875" cy="-0.2566397507921539" fill="" r="0"/>
<circle cx="233.4375" cy="-0.25635673443246304" fill="" r="0"/>
<circle cx="233.90625" cy="-0.255379360821984" fill="" r="0"/>
<circle cx="234.375" cy="-0.2549177095347623" fill="" r="0"/>
<circle cx="234.84375" cy="-0.2544924283802534" fill="" r="0"/>
<circle cx="235.3125" cy="-0.25376589420430307" fill="" r="0"/>
<circle cx="235.78125" cy="-0.25330641530871123" fill="" r="0"/>
<circle cx="236.25" cy="-0.2522541195483085" fill="" r="0"/>
<circle cx="236.71875" cy="-0.25215188074234923" fill="" r="0"/>
<circle cx="237.1875" cy="-0.2512869237316994" fill="" r="0"/>
<circle cx="237.65625" cy="-0.250640417106485" fill="" r="0"/>
<circle cx="238.125" cy="-0.25047518508813155" fill="" r="0"/>
<circle cx="238.59375" cy="-0.24939404685624472" fill="" r="0"/>
<circle cx="239.0625" cy="-0.24891639085929293" fill="" r="0"/>
<circle cx="239.53125" cy="-0.24819000393061444" fill="" r="0"/>
<circle cx="240" cy="-0.24780318292254067" fill="" r="0"/>
<circle cx="240.46875" cy="-0.24722328745989455" fill="" r="0"/>
<circle cx="240.9375" cy="-0.24613726937149374" fill="" r="0"/>
<circle cx="241.40625" cy="-0.24572809631113224" fill="" r="0"/>
<circle cx="241.875" cy="-0.24535484028918314" fill="" r="0"/>
<circle cx="242.34375" cy="-0.24481687832177376" fill="" r="0"/>
<circle cx="242.8125" cy="-0.24388927526582885" fill="" r="0"/>
<circle cx="243.28125" cy="-0.2434617591778466" fill="" r="0"/>
<circle cx="243.75" cy="-0.24292835414819625" fill="" r="0"/>
<circle cx="244.21875" cy="-0.2424286218119275" fill="" r="0"/>
<circle cx="244.6875" cy="-0.2423268082906296" fill="" r="0"/>
<circle cx="245.15625" cy="-0.2413451204942613" fill="" r="0"/>
<circle cx="245.625" cy="-0.24061003343114304" fill="" r="0"/>
<circle cx="246.09375" cy="-0.24041436599502206" fill="" r="0"/>
<circle cx="246.5625" cy="-0.23967404834924383" fill="" r="0"/>
<circle cx="247.03125" cy="-0.23908787120060374" fill="" r="0"/>
<circle cx="247.5" cy="-0.238221113880974" fill="" r="0"/>
<circle cx="247.96875" cy="-0.2380649062514822" fill="" r="0"/>
<circle cx="248.4375" cy="-0.23731815739044085" fill="" r="0"/>
<circle cx="248.90625" cy="-0.23676761168319987" fill="" r="0"/>
<circle cx="249.375" cy="-0.23632342259234942" fill="" r="0"/>
<circle cx="249.84375" cy="-0.23583395995783196" fill="" r="0"/>
<circle cx="250.3125" cy="-0.2352816355091749" fill="" r="0"/>
<circle cx="250.78125" cy="-0.23485141241964916" fill="" r="0"/>
<circle cx="251.25" cy="-0.23391279457452518" fill="" r="0"/>
<circle cx="251.71875" cy="-0.23352142270232618" fill="" r="0"/>
<circle cx="252.1875" cy="-0.23325029922190033" fill="" r="0"/>
<circle cx="252.65625" cy="-0.23235650288464288" fill="" r="0"/>
<circle cx="253.125" cy="-0.23207598394810575" fill="" r="0"/>
<circle cx="253.59375" cy="-0.2315842462628005" fill="" r="0"/>
<circle cx="254.0625" cy="-0.23105691076997523" fill="" r="0"/>
<circle cx="254.53125" cy="-0.23058313211243628" fill="" r="0"/>
<circle cx="255" cy="-0.23006088141818964" fill="" r="0"/>
<circle cx="255.46875" cy="-0.22944768047507227" fill="" r="0"/>
<circle cx="255.9375" cy="-0.22927695107036267" fill="" r="0"/>
<circle cx="256.40625" cy="-0.22889238321102728" fill="" r="0"/>
<circle cx="256.875" cy="-0.2280804973933034" fill="" r="0"/>
<circle cx="257.34375" cy="-0.227699649280226" fill="" r="0"/>
<circle cx="257.8125" cy="-0.2271654271345187" fill="" r="0"/>
<circle cx="258.28125" cy="-0.22675710446163932" fill="" r="0"/>
<circle cx="258.75" cy="-0.22615127810726227" fill="" r="0"/>
<circle cx="259.21875" cy="-0.22544897739996336" fill="" r="0"/>
<circle cx="259.6875" cy="-0.22529505539000647" fill="" r="0"/>
<circle cx="260.15625" cy="-0.22490194834805483" fill="" r="0"/>
<circle cx="260.625" cy="-0.22442343774439558" fill="" r="0"/>
<circle cx="261.09375" cy="-0.22408286241328476" fill="" r="0"/>
<circle cx="261.5625" cy="-0.2234616663086925" fill="" r="0"/>
<circle cx="262.03125" cy="-0.22287004407099945" fill="" r="0"/>
<circle cx="262.5" cy="-0.2221755618344185" fill="" r="0"/>
<circle cx="262.96875" cy="-0.22213526781313592" fill="" r="0"/>
<circle cx="263.4375" cy="-0.22133310212458232" fill="" r="0"/>
<circle cx="263.90625" cy="-0.22116226775121706" fill="" r="0"/>
<circle cx="264.375" cy="-0.22071179297958896" fill="" r="0"/>
<circle cx="264.84375" cy="-0.22010162483613827" fill="" r="0"/>
<circle cx="265.3125" cy="-0.2195824747788512" fill="" r="0"/>
<circle cx="265.78125" cy="-0.21929763676444933" fill="" r="0"/>
<circle cx="266.25" cy="-0.21906512386655339" fill="" r="0"/>
<circle cx="266.71875" cy="-0.2183972631111536" fill="" r="0"/>
<circle cx="267.1875" cy="-0.21797297467732238" fill="" r="0"/>
<circle cx="267.65625" cy="-0.2173655012946857" fill="" r="0"/>
<circle cx="268.125" cy="-0.2169007792591759" fill="" r="0"/>
<circle cx="268.59375" cy="-0.21669377844679136" fill="" r="0"/>
<circle cx="269.0625" cy="-0.21622738661868793" fill="" r="0"/>
<circle cx="269.53125" cy="-0.21631196043263612" fill="" r="0"/>
<circle cx="270" cy="-0.21597091877363758" fill="" r="0"/>
<circle cx="270.46875" cy="-0.21362919980391923" fill="" r="0"/>
<circle cx="270.9375" cy="-0.21440124586444048" fill="" r="0"/>
<circle cx="271.40625" cy="-0.21407236930247406" fill="" r="0"/>
<circle cx="271.875" cy="-0.21341665221994924" fill="" r="0"/>
<circle cx="272.34375" cy="-0.21344322877709956" fill="" r="0"/>
<circle cx="272.8125" cy="-0.21275167979270138" fill="" r="0"/>
<circle cx="273.28125" cy="-0.21182712792005007" fill="" r="0"/>
<circle cx="273.75" cy="-0.2110668149936301" fill="" r="0"/>
<circle cx="274.21875" cy="-0.211111310991483" fill="" r="0"/>
<circle cx="274.6875" cy="-0.21074750005869491" fill="" r="0"/>
<circle cx="275.15625" cy="-0.2104436775127165" fill="" r="0"/>
<circle cx="275.625" cy="-0.209915227188849" fill="" r="0"/>
<circle cx="276.09375" cy="-0.2097485315537688" fill="" r="0"/>
<circle cx="276.5625" cy="-0.20943892910173645" fill="" r="0"/>
<circle cx="277.03125" cy="-0.20850006941327173" fill="" r="0"/>
<circle cx="277.5" cy="-0.20840379073736748" fill="" r="0"/>
<circle cx="277.96875" cy="-0.20834009550981425" fill="" r="0"/>
<circle cx="278.4375" cy="-0.20779334464259272" fill="" r="0"/>
<circle cx="278.90625" cy="-0.20735965519284758" fill="" r="0"/>
<circle cx="279.375" cy="-0.2070376808926728" fill="" r="0"/>
<circle cx="279.84375" cy="-0.2064232219340397" fill="" r="0"/>
<circle cx="280.3125" cy="-0.20617334634913007" fill="" r="0"/>
<circle cx="280.78125" cy="-0.20568275781385773" fill="" r="0"/>
<circle cx="281.25" cy="-0.2055317320561773" fill="" r="0"/>
<circle cx="281.71875" cy="-0.2051336169709654" fill="" r="0"/>
<circle cx="282.1875" cy="-0.20460898997604834" fill="" r="0"/>
<circle cx="282.65625" cy="-0.2043247891323704" fill="" r="0"/>
<circle cx="283.125" cy="-0.20394459607057291" fill="" r="0"/>
<circle cx="283.59375" cy="-0.2034703622542103" fill="" r="0"/>
<circle cx="284.0625" cy="-0.20314363998007956" fill="" r="0"/>
<circle cx="284.53125" cy="-0.20272036261722126" fill="" r="0"/>
<circle cx="285" cy="-0.20249235572962293" fill="" r="0"/>
<circle cx="285.46875" cy="-0.20205633160202552" fill="" r="0"/>
<circle cx="285.9375" cy="-0.201774687466425" fill="" r="0"/>
<circle cx="286.40625" cy="-0.2011991621138889" fill="" r="0"/>
<circle cx="286.875" cy="-0.20106852572717765" fill="" r="0"/>
<circle cx="287.34375" cy="-0.20075255104100193" fill="" r="0"/>
<circle cx="287.8125" cy="-0.2002976001232666" fill="" r="0"/>
<circle cx="288.28125" cy="-0.19981436428823002" fill="" r="0"/>
<circle cx="288.75" cy="-0.19963718049685303" fill="" r="0"/>
<circle cx="289.21875" cy="-0.1992954460383962" fill="" r="0"/>
<circle cx="289.6875" cy="-0.19885799404403331" fill="" r="0"/>
<circle cx="290.15625" cy="-0.19832444803290206" fill="" r="0"/>
<circle cx="290.625" cy="-0.19812588491379918" fill="" r="0"/>
<circle cx="291.09375" cy="-0.1978018839573664" fill="" r="0"/>
<circle cx="291.5625" cy="-0.19749942752630426" fill="" r="0"/>
<circle cx="292.03125" cy="-0.19722868846565011" fill="" r="0"/>
<circle cx="292.5" cy="-0.19646434120159934" fill="" r="0"/>
<circle cx="292.96875" cy="-0.19623329508164097" fill="" r="0"/>
<circle cx="293.4375" cy="-0.19589558737342436" fill="" r="0"/>
<circle cx="293.90625" cy="-0.195777373034461" fill="" r="0"/>
<circle cx="294.375" cy="-0.19542521533339552" fill="" r="0"/>
<circle cx="294.84375" cy="-0.19517188147459824" fill="" r="0"/>
<circle cx="295.3125" cy="-0.1944310561311869" fill="" r="0"/>
<circle cx="295.78125" cy="-0.19423574371836788" fill="" r="0"/>
<circle cx="296.25" cy="-0.19396676399555454" fill="" r="0"/>
<circle cx="296.71875" cy="-0.19363581777661104" fill="" r="0"/>
<circle cx="297.1875" cy="-0.1933249732329243" fill="" r="0"/>
<circle cx="297.65625" cy="-0.1931324764278668" fill="" r="0"/>
<circle cx="298.125" cy="-0.19235562292305416" fill="" r="0"/>
<circle cx="298.59375" cy="-0.19237718271101248" fill="" r="0"/>
<circle cx="299.0625" cy="-0.191974349082494" fill="" r="0"/>
<circle cx="299.53125" cy="-0.19178518905699377" fill="" r="0"/>
<circle cx="300" cy="-0.19128423194639155" fill="" r="0"/>
<circle cx="300.46875" cy="-0.19115789749165613" fill="" r="0"/>
<circle cx="300.9375" cy="-0.19045507040324114" fill="" r="0"/>
<circle cx="301.40625" cy="-0.19024666226792003" fill="" r="0"/>
<circle cx="301.875" cy="-0.1902336791623294" fill="" r="0"/>
<circle cx="302.34375" cy="-0.1897786552100198" fill="" r="0"/>
<circle cx="302.8125" cy="-0.18893744600778553" fill="" r="0"/>
<circle cx="303.28125" cy="-0.18928154198863248" fill="" r="0"/>
<circle cx="303.75" cy="-0.18884755369259884" fill="" r="0"/>
<circle cx="304.21875" cy="-0.18826400978835112" fill="" r="0"/>
<circle cx="304.6875" cy="-0.18798352177041952" fill="" r="0"/>
<circle cx="305.15625" cy="-0.18791378014061969" fill="" r="0"/>
<circle cx="305.625" cy="-0.18758603124763137" fill="" r="0"/>
<circle cx="306.09375" cy="-0.18726576397275868" fill="" r="0"/>
<circle cx="306.5625" cy="-0.1868881984151632" fill="" r="0"/>
<circle cx="307.03125" cy="-0.1866227455830374" fill="" r="0"/>
<circle cx="307.5" cy="-0.18629087665108085" fill="" r="0"/>
<circle cx="307.96875" cy="-0.18588210083418832" fill="" r="0"/>
<circle cx="308.4375" cy="-0.18559998450806264" fill="" r="0"/>
<circle cx="308.90625" cy="-0.18541839966247017" fill="" r="0"/>
<circle cx="309.375" cy="-0.18499806121059884" fill="" r="0"/>
<circle cx="309.84375" cy="-0.18473238710836923" fill="" r="0"/>
<circle cx="310.3125" cy="-0.18450105191841285" fill="" r="0"/>
<circle cx="310.78125" cy="-0.18417829000224295" fill="" r="0"/>
<circle cx="311.25" cy="-0.18384830897445176" fill="" r="0"/>
<circle cx="311.71875" cy="-0.18368988899620875" fill="" r="0"/>
<circle cx="312.1875" cy="-0.18367163834787253" fill="" r="0"/>
<circle cx="312.65625" cy="-0.1831478655115702" fill="" r="0"/>
<circle cx="313.125" cy="-0.18268388758429382" fill="" r="0"/>
<circle cx="313.59375" cy="-0.18260191110246152" fill="" r="0"/>
<circle cx="314.0625" cy="-0.18203307055389326" fill="" r="0"/>
<circle cx="314.53125" cy="-0.18173674989802183" fill="" r="0"/>
<circle cx="315" cy="-0.18157830851003418" fill="" r="0"/>
<circle cx="315.46875" cy="-0.18139703668264354" fill="" r="0"/>
<circle cx="315.9375" cy="-0.18104034802854002" fill="" r="0"/>
<circle cx="316.40625" cy="-0.18092210322910637" fill="" r="0"/>
<circle cx="316.875" cy="-0.18036236859185406" fill="" r="0"/>
<circle cx="317.34375" cy="-0.1800765231984251" fill="" r="0"/>
<circle cx="317.8125" cy="-0.17989441959249508" fill="" r="0"/>
<circle cx="318.28125" cy="-0.17975091207668856" fill="" r="0"/>
<circle cx="318.75" cy="-0.17941438897971362" fill="" r="0"/>
<circle cx="319.21875" cy="-0.17923321504479284" fill="" r="0"/>
<circle cx="319.6875" cy="-0.17894565691472916" fill="" r="0"/>
<circle cx="320.15625" cy="-0.17866231201487998" fill="" r="0"/>
<circle cx="320.625" cy="-0.17842794857010938" fill="" r="0"/>
<circle cx="321.09375" cy="-0.17811580823248607" fill="" r="0"/>
<circle cx="321.5625" cy="-0.17790719682250244" fill="" r="0"/>
<circle cx="322.03125" cy="-0.1763492760127442" fill="" r="0"/>
<circle cx="322.5" cy="-0.1758605486895876" fill="" r="0"/>
<circle cx="322.96875" cy="-0.1763665032065638" fill="" r="0"/>
<circle cx="323.4375" cy="-0.17621034480707842" fill="" r="0"/>
<circle cx="323.90625" cy="-0.17616782074433537" fill="" r="0"/>
<circle cx="324.375" cy="-0.17586532917005313" fill="" r="0"/>
<circle cx="324.84375" cy="-0.17559077588756447" fill="" r="0"/>
<circle cx="325.3125" cy="-0.17527251092673488" fill="" r="0"/>
<circle cx="325.78125" cy="-0.1751964689296521" fill="" r="0"/>
<circle cx="326.25" cy="-0.17492359879165376" fill="" r="0"/>
<circle cx="326.71875" cy="-0.1745452403740894" fill="" r="0"/>
<circle cx="327.1875" cy="-0.17456675123615945" fill="" r="0"/>
<circle cx="327.65625" cy="-0.1741544676725511" fill="" r="0"/>
<circle cx="328.125" cy="-0.1738853959751783" fill="" r="0"/>
<circle cx="328.59375" cy="-0.17374418878732628" fill="" r="0"/>
<circle cx="329.0625" cy="-0.17352104239688354" fill="" r="0"/>
<circle cx="329.53125" cy="-0.173157456700685" fill="" r="0"/>
<circle cx="330" cy="-0.17302246516329486" fill="" r="0"/>
<circle cx="330.46875" cy="-0.1726404681658095" fill="" r="0"/>
<circle cx="330.9375" cy="-0.17261033123573694" fill="" r="0"/>
<circle cx="331.40625" cy="-0.17215672767079468" fill="" r="0"/>
<circle cx="331.875" cy="-0.1719431942573796" fill="" r="0"/>
<circle cx="332.34375" cy="-0.1718937320972962" fill="" r="0"/>
<circle cx="332.8125" cy="-0.17143647104461138" fill="" r="0"/>
<circle cx="333.28125" cy="-0.1710367694197711" fill="" r="0"/>
<circle cx="333.75" cy="-0.1710436931744835" fill="" r="0"/>
<circle cx="334.21875" cy="-0.17070331719711773" fill="" r="0"/>
<circle cx="334.6875" cy="-0.17058338055469033" fill="" r="0"/>
<circle cx="335.15625" cy="-0.1703165457737271" fill="" r="0"/>
<circle cx="335.625" cy="-0.16987591676830963" fill="" r="0"/>
<circle cx="336.09375" cy="-0.16958617135953757" fill="" r="0"/>
<circle cx="336.5625" cy="-0.1693744368261036" fill="" r="0"/>
<circle cx="337.03125" cy="-0.16914245062974118" fill="" r="0"/>
<circle cx="337.5" cy="-0.16893977257838613" fill="" r="0"/>
<circle cx="337.96875" cy="-0.1687310168415634" fill="" r="0"/>
<circle cx="338.4375" cy="-0.16856709770328182" fill="" r="0"/>
<circle cx="338.90625" cy="-0.168411652701994" fill="" r="0"/>
<circle cx="339.375" cy="-0.16787526519638493" fill="" r="0"/>
<circle cx="339.84375" cy="-0.16762812638598404" fill="" r="0"/>
<circle cx="340.3125" cy="-0.16741603984625555" fill="" r="0"/>
<circle cx="340.78125" cy="-0.16731400598929766" fill="" r="0"/>
<circle cx="341.25" cy="-0.16701440804786058" fill="" r="0"/>
<circle cx="341.71875" cy="-0.16693940769662613" fill="" r="0"/>
<circle cx="342.1875" cy="-0.16657021982874015" fill="" r="0"/>
<circle cx="342.65625" cy="-0.16637698391543254" fill="" r="0"/>
<circle cx="343.125" cy="-0.16598477376332166" fill="" r="0"/>
<circle cx="343.59375" cy="-0.16575663817497668" fill="" r="0"/>
<circle cx="344.0625" cy="-0.16486360143068135" fill="" r="0"/>
<circle cx="344.53125" cy="-0.16710707311726183" fill="" r="0"/>
<circle cx="345" cy="-0.16590271058533212" fill="" r="0"/>
<circle cx="345.46875" cy="-0.16546659941382794" fill="" r="0"/>
<circle cx="345.9375" cy="-0.1651491271376575" fill="" r="0"/>
<circle cx="346.40625" cy="-0.16470327418008326" fill="" r="0"/>
<circle cx="346.875" cy="-0.16464670825305375" fill="" r="0"/>
<circle cx="347.34375" cy="-0.16425082875681427" fill="" r="0"/>
<circle cx="347.8125" cy="-0.16400138543849355" fill="" r="0"/>
<circle cx="348.28125" cy="-0.16374195233001385" fill="" r="0"/>
<circle cx="348.75" cy="-0.16351757618804422" fill="" r="0"/>
<circle cx="349.21875" cy="-0.1633817385493932" fill="" r="0"/>
<circle cx="349.6875" cy="-0.16311255210188982" fill="" r="0"/>
<circle cx="350.15625" cy="-0.1629438347433727" fill="" r="0"/>
<circle cx="350.625" cy="-0.16270195438500468" fill="" r="0"/>
<circle cx="351.09375" cy="-0.1625646952297578" fill="" r="0"/>
<circle cx="351.5625" cy="-0.1620953621052699" fill="" r="0"/>
<circle cx="352.03125" cy="-0.16192570834904738" fill="" r="0"/>
<circle cx="352.5" cy="-0.16189565233549974" fill="" r="0"/>
<circle cx="352.96875" cy="-0.16161913400145617" fill="" r="0"/>
<circle cx="353.4375" cy="-0.16128235614940883" fill="" r="0"/>
<circle cx="353.90625" cy="-0.16116584722075564" fill="" r="0"/>
<circle cx="354.375" cy="-0.16107316386429044" fill="" r="0"/>
<circle cx="354.84375" cy="-0.16076616120261192" fill="" r="0"/>
<circle cx="355.3125" cy="-0.1605197894604432" fill="" r="0"/>
<circle cx="355.78125" cy="-0.16050301081552976" fill="" r="0"/>
<circle cx="356.25" cy="-0.1601637153621455" fill="" r="0"/>
<circle cx="356.71875" cy="-0.15988213853909147" fill="" r="0"/>
<circle cx="357.1875" cy="-0.1597544481366722" fill="" r="0"/>
<circle cx="357.65625" cy="-0.15951281741095336" fill="" r="0"/>
<circle cx="358.125" cy="-0.15933085806536026" fill="" r="0"/>
<circle cx="358.59375" cy="-0.15910767828188316" fill="" r="0"/>
<circle cx="359.0625" cy="-0.15887968346625478" fill="" r="0"/>
<circle cx="359.53125" cy="-0.15876630729018745" fill="" r="0"/>
<circle cx="360" cy="-0.15838045009693766" fill="" r="0"/>
<circle cx="360.46875" cy="-0.15834560721905522" fill="" r="0"/>
<circle cx="360.9375" cy="-0.15814638911005718" fill="" r="0"/>
<circle cx="361.40625" cy="-0.15802982573889812" fill="" r="0"/>
<circle cx="361.875" cy="-0.15749579585462362" fill="" r="0"/>
<circle cx="362.34375" cy="-0.15744841857604713" fill="" r="0"/>
<circle cx="362.8125" cy="-0.15736704255796694" fill="" r="0"/>
<circle cx="363.28125" cy="-0.1571183359131654" fill="" r="0"/>
<circle cx="363.75" cy="-0.15679760636724463" fill="" r="0"/>
<circle cx="364.21875" cy="-0.15673006341591372" fill="" r="0"/>
<circle cx="364.6875" cy="-0.1564998641810657" fill="" r="0"/>
<circle cx="365.15625" cy="-0.15628671809676373" fill="" r="0"/>
<circle cx="365.625" cy="-0.15613629048927205" fill="" r="0"/>
<circle cx="366.09375" cy="-0.15589360127630442" fill="" r="0"/>
<circle cx="366.5625" cy="-0.15579192309178483" fill="" r="0"/>
<circle cx="367.03125" cy="-0.1558039912141917" fill="" r="0"/>
<circle cx="367.5" cy="-0.15533065141404043" fill="" r="0"/>
<circle cx="367.96875" cy="-0.1550874505274579" fill="" r="0"/>
<circle cx="368.4375" cy="-0.15504460552253838" fill="" r="0"/>
<circle cx="368.90625" cy="-0.15476080206007325" fill="" r="0"/>
<circle cx="369.375" cy="-0.15449536995077004" fill="" r="0"/>
<circle cx="369.84375" cy="-0.15431463042051716" fill="" r="0"/>
<circle cx="370.3125" cy="-0.15408803036619284" fill="" r="0"/>
<circle cx="370.78125" cy="-0.15420132559990118" fill="" r="0"/>
<circle cx="371.25" cy="-0.15386418142358202" fill="" r="0"/>
<circle cx="371.71875" cy="-0.15354161815320094" fill="" r="0"/>
<circle cx="372.1875" cy="-0.15350659138141712" fill="" r="0"/>
<circle cx="372.65625" cy="-0.15326693299758207" fill="" r="0"/>
<circle cx="373.125" cy="-0.1531039085506352" fill="" r="0"/>
<circle cx="373.59375" cy="-0.15295678946575067" fill="" r="0"/>
<circle cx="374.0625" cy="-0.15270177913770402" fill="" r="0"/>
<circle cx="374.53125" cy="-0.15244677747238752" fill="" r="0"/>
<circle cx="375" cy="-0.15223174159355993" fill="" r="0"/>
<circle cx="375.46875" cy="-0.15213806447299003" fill="" r="0"/>
<circle cx="375.9375" cy="-0.1520910927977381" fill="" r="0"/>
<circle cx="376.40625" cy="-0.15189973160793716" fill="" r="0"/>
<circle cx="376.875" cy="-0.15169713141622454" fill="" r="0"/>
<circle cx="377.34375" cy="-0.15168146785850656" fill="" r="0"/>
<circle cx="377.8125" cy="-0.15136938630392968" fill="" r="0"/>
<circle cx="378.28125" cy="-0.15106236950027058" fill="" r="0"/>
<circle cx="378.75" cy="-0.15092661522594386" fill="" r="0"/>
<circle cx="379.21875" cy="-0.1509433754533301" fill="" r="0"/>
<circle cx="379.6875" cy="-0.1508203401110424" fill="" r="0"/>
<circle cx="380.15625" cy="-0.15053265539415092" fill="" r="0"/>
<circle cx="380.625" cy="-0.15057115586725664" fill="" r="0"/>
<circle cx="381.09375" cy="-0.1502796595862397" fill="" r="0"/>
<circle cx="381.5625" cy="-0.15036193081757973" fill="" r="0"/>
<circle cx="382.03125" cy="-0.15046799822013035" fill="" r="0"/>
<circle cx="382.5" cy="-0.15091256526434957" fill="" r="0"/>
<circle cx="382.96875" cy="-0.15575073292257402" fill="" r="0"/>
<circle cx="383.4375" cy="-0.1458868675519364" fill="" r="0"/>
<circle cx="383.90625" cy="-0.14766097692339428" fill="" r="0"/>
<circle cx="384.375" cy="-0.1479230850297318" fill="" r="0"/>
<circle cx="384.84375" cy="-0.14790775009980706" fill="" r="0"/>
<circle cx="385.3125" cy="-0.14783619694859937" fill="" r="0"/>
<circle cx="385.78125" cy="-0.14194583017376483" fill="" r="0"/>
<circle cx="386.25" cy="-0.1478543176606488" fill="" r="0"/>
<circle cx="386.71875" cy="-0.1477525481695958" fill="" r="0"/>
<circle cx="387.1875" cy="-0.14755592684673016" fill="" r="0"/>
<circle cx="387.65625" cy="-0.14732406398139852" fill="" r="0"/>
<circle cx="388.125" cy="-0.14720264890888252" fill="" r="0"/>
<circle cx="388.59375" cy="-0.1471811515007148" fill="" r="0"/>
<circle cx="389.0625" cy="-0.14702168909576524" fill="" r="0"/>
<circle cx="389.53125" cy="-0.14687248237922063" fill="" r="0"/>
<circle cx="390" cy="-0.14653817395022087" fill="" r="0"/>
<circle cx="390.46875" cy="-0.1463875046752449" fill="" r="0"/>
<circle cx="390.9375" cy="-0.14625897973086194" fill="" r="0"/>
<circle cx="391.40625" cy="-0.146195317813702" fill="" r="0"/>
<circle cx="391.875" cy="-0.14592968303903883" fill="" r="0"/>
<circle cx="392.34375" cy="-0.1459391446723364" fill="" r="0"/>
<circle cx="392.8125" cy="-0.1454584735874485" fill="" r="0"/>
<circle cx="393.28125" cy="-0.1454618603223531" fill="" r="0"/>
<circle cx="393.75" cy="-0.14525714149696786" fill="" r="0"/>
<circle cx="394.21875" cy="-0.1452025697519431" fill="" r="0"/>
<circle cx="394.6875" cy="-0.14509422483496875" fill="" r="0"/>
<circle cx="395.15625" cy="-0.14496092086573634" fill="" r="0"/>
<circle cx="395.625" cy="-0.14474264616694005" fill="" r="0"/>
<circle cx="396.09375" cy="-0.14445689871483577" fill="" r="0"/>
<circle cx="396.5625" cy="-0.14450791217634645" fill="" r="0"/>
<circle cx="397.03125" cy="-0.1441925790023079" fill="" r="0"/>
<circle cx="397.5" cy="-0.14425053631894125" fill="" r="0"/>
<circle cx="397.96875" cy="-0.14387841326170958" fill="" r="0"/>
<circle cx="398.4375" cy="-0.1439028671674796" fill="" r="0"/>
<circle cx="398.90625" cy="-0.14352972301137762" fill="" r="0"/>
<circle cx="399.375" cy="-0.14338999889071585" fill="" r="0"/>
<circle cx="399.84375" cy="-0.14335581269071948" fill="" r="0"/>
<circle cx="400.3125" cy="-0.14319048214564506" fill="" r="0"/>
<circle cx="400.78125" cy="-0.14296345300051352" fill="" r="0"/>
<circle cx="401.25" cy="-0.14284582829295936" fill="" r="0"/>
<circle cx="401.71875" cy="-0.1428078458722925" fill="" r="0"/>
<circle cx="402.1875" cy="-0.14250029528667213" fill="" r="0"/>
<circle cx="402.65625" cy="-0.14259833248360163" fill="" r="0"/>
<circle cx="403.125" cy="-0.1423431043096367" fill="" r="0"/>
<circle cx="403.59375" cy="-0.14208381694628036" fill="" r="0"/>
<circle cx="404.0625" cy="-0.1420753395762582" fill="" r="0"/>
<circle cx="404.53125" cy="-0.1418853093845374" fill="" r="0"/>
<circle cx="405" cy="-0.14165391552529846" fill="" r="0"/>
<circle cx="405.46875" cy="-0.14143482743584024" fill="" r="0"/>
<circle cx="405.9375" cy="-0.14140365449293146" fill="" r="0"/>
<circle cx="406.40625" cy="-0.14132060397236973" fill="" r="0"/>
<circle cx="406.875" cy="-0.14110372216298003" fill="" r="0"/>
<circle cx="407.34375" cy="-0.14091455093292674" fill="" r="0"/>
<circle cx="407.8125" cy="-0.14076329907335064" fill="" r="0"/>
<circle cx="408.28125" cy="-0.14055612548701835" fill="" r="0"/>
<circle cx="408.75" cy="-0.14050210434133337" fill="" r="0"/>
<circle cx="409.21875" cy="-0.14037176120197473" fill="" r="0"/>
<circle cx="409.6875" cy="-0.14026416496332497" fill="" r="0"/>
<circle cx="410.15625" cy="-0.14014788487345192" fill="" r="0"/>
<circle cx="410.625" cy="-0.13987811362857494" fill="" r="0"/>
<circle cx="411.09375" cy="-0.13963842493108336" fill="" r="0"/>
<circle cx="411.5625" cy="-0.1397277586112301" fill="" r="0"/>
<circle cx="412.03125" cy="-0.13962158915092107" fill="" r="0"/>
<circle cx="412.5" cy="-0.13943295634456618" fill="" r="0"/>
<circle cx="412.96875" cy="-0.13921885590404132" fill="" r="0"/>
<circle cx="413.4375" cy="-0.13891873874646374" fill="" r="0"/>
<circle cx="413.90625" cy="-0.13892274358587972" fill="" r="0"/>
<circle cx="414.375" cy="-0.13886408739511155" fill="" r="0"/>
<circle cx="414.84375" cy="-0.13857326965236633" fill="" r="0"/>
<circle cx="415.3125" cy="-0.13846876409164094" fill="" r="0"/>
<circle cx="415.78125" cy="-0.13828913935876835" fill="" r="0"/>
<circle cx="416.25" cy="-0.1382882245189496" fill="" r="0"/>
<circle cx="416.71875" cy="-0.13821238680006223" fill="" r="0"/>
<circle cx="417.1875" cy="-0.13793108421232422" fill="" r="0"/>
<circle cx="417.65625" cy="-0.13797864217886685" fill="" r="0"/>
<circle cx="418.125" cy="-0.13750880312955896" fill="" r="0"/>
<circle cx="418.59375" cy="-0.1374647337085471" fill="" r="0"/>
<circle cx="419.0625" cy="-0.13747830868390248" fill="" r="0"/>
<circle cx="419.53125" cy="-0.13714839004958368" fill="" r="0"/>
<circle cx="420" cy="-0.13730780345922405" fill="" r="0"/>
<circle cx="420.46875" cy="-0.1370772839496097" fill="" r="0"/>
<circle cx="420.9375" cy="-0.13674100154316612" fill="" r="0"/>
<circle cx="421.40625" cy="-0.13676596488549678" fill="" r="0"/>
<circle cx="421.875" cy="-0.1368557362332908" fill="" r="0"/>
<circle cx="422.34375" cy="-0.13677449657593277" fill="" r="0"/>
<circle cx="422.8125" cy="-0.13689687408734108" fill="" r="0"/>
<circle cx="423.28125" cy="-0.13814392195296063" fill="" r="0"/>
<circle cx="423.75" cy="-0.13303903058649874" fill="" r="0"/>
<circle cx="424.21875" cy="-0.13519972061130292" fill="" r="0"/>
<circle cx="424.6875" cy="-0.13537658981145054" fill="" r="0"/>
<circle cx="425.15625" cy="-0.13543768553263538" fill="" r="0"/>
<circle cx="425.625" cy="-0.13524520490917297" fill="" r="0"/>
<circle cx="426.09375" cy="-0.13516492744116082" fill="" r="0"/>
<circle cx="426.5625" cy="-0.13506678137305805" fill="" r="0"/>
<circle cx="427.03125" cy="-0.1349043599491911" fill="" r="0"/>
<circle cx="427.5" cy="-0.1349805881555079" fill="" r="0"/>
<circle cx="427.96875" cy="-0.1348232202242073" fill="" r="0"/>
<circle cx="428.4375" cy="-0.13451595508441677" fill="" r="0"/>
<circle cx="428.90625" cy="-0.13442331610646452" fill="" r="0"/>
<circle cx="429.375" cy="-0.13428288213363365" fill="" r="0"/>
<circle cx="429.84375" cy="-0.13421749240715902" fill="" r="0"/>
<circle cx="430.3125" cy="-0.13412929753230285" fill="" r="0"/>
<circle cx="430.78125" cy="-0.13405481242614797" fill="" r="0"/>
<circle cx="431.25" cy="-0.13382393141692447" fill="" r="0"/>
<circle cx="431.71875" cy="-0.13380731897256243" fill="" r="0"/>
<circle cx="432.1875" cy="-0.13355374320890867" fill="" r="0"/>
<circle cx="432.65625" cy="-0.13351343973731608" fill="" r="0"/>
<circle cx="433.125" cy="-0.13337140462381875" fill="" r="0"/>
<circle cx="433.59375" cy="-0.13329100161038515" fill="" r="0"/>
<circle cx="434.0625" cy="-0.13303523169671483" fill="" r="0"/>
<circle cx="434.53125" cy="-0.1328961815627452" fill="" r="0"/>
<circle cx="435" cy="-0.132916594820503" fill="" r="0"/>
<circle cx="435.46875" cy="-0.1327708079918557" fill="" r="0"/>
<circle cx="435.9375" cy="-0.13260023892186715" fill="" r="0"/>
<circle cx="436.40625" cy="-0.1324964059492271" fill="" r="0"/>
<circle cx="436.875" cy="-0.13242199500921162" fill="" r="0"/>
<circle cx="437.34375" cy="-0.1321452210426868" fill="" r="0"/>
<circle cx="437.8125" cy="-0.13192192303035746" fill="" r="0"/>
<circle cx="438.28125" cy="-0.13213622384925977" fill="" r="0"/>
<circle cx="438.75" cy="-0.13172849381933982" fill="" r="0"/>
<circle cx="439.21875" cy="-0.1317329869384016" fill="" r="0"/>
<circle cx="439.6875" cy="-0.13170291979813425" fill="" r="0"/>
<circle cx="440.15625" cy="-0.1316443499903319" fill="" r="0"/>
<circle cx="440.625" cy="-0.13149175617804543" fill="" r="0"/>
<circle cx="441.09375" cy="-0.13129764781434144" fill="" r="0"/>
<circle cx="441.5625" cy="-0.13122394787759786" fill="" r="0"/>
<circle cx="442.03125" cy="-0.1309641316232067" fill="" r="0"/>
<circle cx="442.5" cy="-0.13091365364425062" fill="" r="0"/>
<circle cx="442.96875" cy="-0.1308728261431677" fill="" r="0"/>
<circle cx="443.4375" cy="-0.13064076090892293" fill="" r="0"/>
<circle cx="443.90625" cy="-0.1304885046463663" fill="" r="0"/>
<circle cx="444.375" cy="-0.13038101977385258" fill="" r="0"/>
<circle cx="444.84375" cy="-0.13046470028587098" fill="" r="0"/>
<circle cx="445.3125" cy="-0.13023060595059519" fill="" r="0"/>
<circle cx="445.78125" cy="-0.12999853033407105" fill="" r="0"/>
<circle cx="446.25" cy="-0.12996921751686402" fill="" r="0"/>
<circle cx="446.71875" cy="-0.12976741833707947" fill="" r="0"/>
<circle cx="447.1875" cy="-0.12961234545029152" fill="" r="0"/>
<circle cx="447.65625" cy="-0.12954167294564137" fill="" r="0"/>
<circle cx="448.125" cy="-0.12939217360830105" fill="" r="0"/>
<circle cx="448.59375" cy="-0.12927361232291354" fill="" r="0"/>
<circle cx="449.0625" cy="-0.12926163227480128" fill="" r="0"/>
<circle cx="449.53125" cy="-0.1290862950539895" fill="" r="0"/>
<circle cx="450" cy="-0.12895045388048756" fill="" r="0"/>
<circle cx="450.46875" cy="-0.12889816220944406" fill="" r="0"/>
<circle cx="450.9375" cy="-0.12870558936340132" fill="" r="0"/>
<circle cx="451.40625" cy="-0.12861428839998923" fill="" r="0"/>
<circle cx="451.875" cy="-0.12864464910457704" fill="" r="0"/>
<circle cx="452.34375" cy="-0.12841969141698528" fill="" r="0"/>
<circle cx="452.8125" cy="-0.12832838955746995" fill="" r="0"/>
<circle cx="453.28125" cy="-0.1280371683335793" fill="" r="0"/>
<circle cx="453.75" cy="-0.12789800669945547" fill="" r="0"/>
<circle cx="454.21875" cy="-0.12779531867412336" fill="" r="0"/>
<circle cx="454.6875" cy="-0.12744234627897705" fill="" r="0"/>
<circle cx="455.15625" cy="-0.12634528597128208" fill="" r="0"/>
<circle cx="455.625" cy="-0.13763188845694288" fill="" r="0"/>
<circle cx="456.09375" cy="-0.12825263807841875" fill="" r="0"/>
<circle cx="456.5625" cy="-0.12779381098887635" fill="" r="0"/>
<circle cx="457.03125" cy="-0.1277030003716005" fill="" r="0"/>
<circle cx="457.5" cy="-0.12753148957057478" fill="" r="0"/>
<circle cx="457.96875" cy="-0.12729288256421858" fill="" r="0"/>
<circle cx="458.4375" cy="-0.12715352320412038" fill="" r="0"/>
<circle cx="458.90625" cy="-0.12721162937700647" fill="" r="0"/>
<circle cx="459.375" cy="-0.12695197243517098" fill="" r="0"/>
<circle cx="459.84375" cy="-0.12693853232353147" fill="" r="0"/>
<circle cx="460.3125" cy="-0.1267384415399125" fill="" r="0"/>
<circle cx="460.78125" cy="-0.1267222445956263" fill="" r="0"/>
<circle cx="461.25" cy="-0.12653897925391744" fill="" r="0"/>
<circle cx="461.71875" cy="-0.12642490360540695" fill="" r="0"/>
<circle cx="462.1875" cy="-0.1262793859856544" fill="" r="0"/>
<circle cx="462.65625" cy="-0.12619416492102994" fill="" r="0"/>
<circle cx="463.125" cy="-0.1260043695290579" fill="" r="0"/>
<circle cx="463.59375" cy="-0.1259020324757364" fill="" r="0"/>
<circle cx="464.0625" cy="-0.12586416471338777" fill="" r="0"/>
<circle cx="464.53125" cy="-0.1257816948998446" fill="" r="0"/>
<circle cx="465" cy="-0.12573406077270344" fill="" r="0"/>
<circle cx="465.46875" cy="-0.12549453117345458" fill="" r="0"/>
<circle cx="465.9375" cy="-0.12545217181104565" fill="" r="0"/>
<circle cx="466.40625" cy="-0.1253499804700325" fill="" r="0"/>
<circle cx="466.875" cy="-0.12539056093980674" fill="" r="0"/>
<circle cx="467.34375" cy="-0.12515430937641267" fill="" r="0"/>
<circle cx="467.8125" cy="-0.12494863609471422" fill="" r="0"/>
<circle cx="468.28125" cy="-0.12486072622008086" fill="" r="0"/>
<circle cx="468.75" cy="-0.12470532705653174" fill="" r="0"/>
<circle cx="469.21875" cy="-0.12476439031034374" fill="" r="0"/>
<circle cx="469.6875" cy="-0.12466905444307742" fill="" r="0"/>
<circle cx="470.15625" cy="-0.12451332008823562" fill="" r="0"/>
<circle cx="470.625" cy="-0.12454649614059357" fill="" r="0"/>
<circle cx="471.09375" cy="-0.12428965687905659" fill="" r="0"/>
<circle cx="471.5625" cy="-0.12414049139542634" fill="" r="0"/>
<circle cx="472.03125" cy="-0.12415416876533035" fill="" r="0"/>
<circle cx="472.5" cy="-0.12397008411869365" fill="" r="0"/>
<circle cx="472.96875" cy="-0.12401405808673548" fill="" r="0"/>
<circle cx="473.4375" cy="-0.12372729879396853" fill="" r="0"/>
<circle cx="473.90625" cy="-0.1237203303414767" fill="" r="0"/>
<circle cx="474.375" cy="-0.12357516421427579" fill="" r="0"/>
<circle cx="474.84375" cy="-0.12352141201876365" fill="" r="0"/>
<circle cx="475.3125" cy="-0.12336275065745923" fill="" r="0"/>
<circle cx="475.78125" cy="-0.12329237829213757" fill="" r="0"/>
<circle cx="476.25" cy="-0.12325983555183634" fill="" r="0"/>
<circle cx="476.71875" cy="-0.12315483222697098" fill="" r="0"/>
<circle cx="477.1875" cy="-0.12301922592710987" fill="" r="0"/>
<circle cx="477.65625" cy="-0.12306408474589979" fill="" r="0"/>
<circle cx="478.125" cy="-0.12281066746724725" fill="" r="0"/>
<circle cx="478.59375" cy="-0.12271703839620904" fill="" r="0"/>
<circle cx="479.0625" cy="-0.12265965593747517" fill="" r="0"/>
<circle cx="479.53125" cy="-0.12246751692474953" fill="" r="0"/>
</g>
</g>
<g>
<g>
<line stroke="black" stroke-width="1" x1="0" x2="0" y1="0" y2="10"/>
<line stroke="black" stroke-width="1" x1="87.07482993197279" x2="87.07482993197279" y1="0" y2="10"/>
<line stroke="black" stroke-width="1" x1="174.14965986394557" x2="174.14965986394557" y1="0" y2="10"/>
<line stroke="black" stroke-width="1" x1="261.2244897959184" x2="261.2244897959184" y1="0" y2="10"/>
<line stroke="black" stroke-width="1" x1="348.29931972789115" x2="348.29931972789115" y1="0" y2="10"/>
<line stroke="black" stroke-width="1" x1="435.3741496598639" x2="435.3741496598639" y1="0" y2="10"/>
</g>
<line stroke="black" stroke-width="1" x1="0" x2="480" y1="0" y2="0"/>
<g>
<text font-size="12" text-anchor="middle" x="0" y="20">
0
</text>
<text font-size="12" text-anchor="middle" x="87.07482993197279" y="20">
4000
</text>
<text font-size="12" text-anchor="middle" x="174.14965986394557" y="20">
8000
</text>
<text font-size="12" text-anchor="middle" x="261.2244897959184" y="20">
12000
</text>
<text font-size="12" text-anchor="middle" x="348.29931972789115" y="20">
16000
</text>
<text font-size="12" text-anchor="middle" x="435.3741496598639" y="20">
20000
</text>
</g>
<text font-size="12" text-anchor="middle" x="240" y="30">
Frequency (Hz)
</text>
</g>
<g>
<g>
<line stroke="black" stroke-width="1" x1="0" x2="-10" y1="-0" y2="-0"/>
<line stroke="black" stroke-width="1" x1="0" x2="-10" y1="-103.76293221839046" y2="-103.76293221839046"/>
<line stroke="black" stroke-width="1" x1="0" x2="-10" y1="-207.52586443678092" y2="-207.52586443678092"/>
<line stroke="black" stroke-width="1" x1="0" x2="-10" y1="-311.2887966551714" y2="-311.2887966551714"/>
</g>
<line stroke="black" stroke-width="1" x1="0" x2="0" y1="0" y2="-340"/>
<g>
<text dominant-baseline="middle" font-size="12" text-anchor="end" x="-15" y="-0">
0
</text>
<text dominant-baseline="middle" font-size="12" text-anchor="end" x="-15" y="-103.76293221839046">
10000
</text>
<text dominant-baseline="middle" font-size="12" text-anchor="end" x="-15" y="-207.52586443678092">
20000
</text>
<text dominant-baseline="middle" font-size="12" text-anchor="end" x="-15" y="-311.2887966551714">
30000
</text>
</g>
<text font-size="12" text-anchor="middle" transform="rotate(-90 -60 -170)" x="-60" y="-182">
Amplitude
</text>
</g>
</g>
</svg>