<svg viewBox="0 0 600 400" xmlns="http://www.w3.org/2000/svg">
<g transform="translate(72, 364)">
<g>
<g>
<path d="M0,-33.449764 L0,-33.449764 L0.46875,-10.250676 L0.9375,-5.310319 L1.40625,-3.5213406 L1.875,-2.601549 L2.34375,-2.0730128 L2.8125,-1.6605864 L3.28125,-1.3914684 L3.75,-1.1785531 L4.21875,-1.0246496 L4.6875,-0.8976951 L5.15625,-0.77059346 L5.625,-0.6829954 L6.09375,-0.6011462 L6.5625,-0.5342282 L7.03125,-0.48315254 L7.5,-0.42515373 L7.96875,-0.38468826 L8.4375,-0.34274572 L8.90625,-0.31052122 L9.375,-0.2827485 L9.84375,-0.2505071 L10.3125,-0.22819424 L10.78125,-0.20329323 L11.25,-0.18648492 L11.71875,-0.16807282 L12.1875,-0.15553746 L12.65625,-0.13787708 L13.125,-0.12614177 L13.59375,-0.11518439 L14.0625,-0.10375679 L14.53125,-0.09460166 L15,-0.08938284 L15.46875,-0.081495345 L15.9375,-0.07888357 L16.40625,-0.071943566 L16.875,-0.068563536 L17.34375,-0.06505156 L17.8125,-0.06363566 L18.28125,-0.06094254 L18.75,-0.060572494 L19.21875,-0.06184124 L19.6875,-0.062470626 L20.15625,-0.06410105 L20.625,-0.06504633 L21.09375,-0.068967074 L21.5625,-0.07151848 L22.03125,-0.0739486 L22.5,-0.07643119 L22.96875,-0.07932292 L23.4375,-0.08271935 L23.90625,-0.087024085 L24.375,-0.09101001 L24.84375,-0.09461393 L25.3125,-0.098685056 L25.78125,-0.10138816 L26.25,-0.10559758 L26.71875,-0.109712884 L27.1875,-0.113371104 L27.65625,-0.11639556 L28.125,-0.12238377 L28.59375,-0.12601852 L29.0625,-0.12921062 L29.53125,-0.13404858 L30,-0.13821146 L30.46875,-0.1423802 L30.9375,-0.1478091 L31.40625,-0.15344556 L31.875,-0.15857938 L32.34375,-0.16347845 L32.8125,-0.16855156 L33.28125,-0.17304999 L33.75,-0.17849693 L34.21875,-0.18451123 L34.6875,-0.19033094 L35.15625,-0.19633365 L35.625,-0.20341247 L36.09375,-0.20951018 L36.5625,-0.21533665 L37.03125,-0.22203207 L37.5,-0.22866239 L37.96875,-0.23541391 L38.4375,-0.24341647 L38.90625,-0.2515287 L39.375,-0.25812867 L39.84375,-0.26594526 L40.3125,-0.2743883 L40.78125,-0.28142336 L41.25,-0.2898042 L41.71875,-0.2981035 L42.1875,-0.3072136 L42.65625,-0.31582275 L43.125,-0.32581308 L43.59375,-0.3356003 L44.0625,-0.344537 L44.53125,-0.35556015 L45,-0.3668809 L45.46875,-0.3776137 L45.9375,-0.38940772 L46.40625,-0.40169725 L46.875,-0.4127787 L47.34375,-0.42458698 L47.8125,-0.43661103 L48.28125,-0.44714612 L48.75,-0.4595114 L49.21875,-0.47446692 L49.6875,-0.4897935 L50.15625,-0.5053809 L50.625,-0.5236147 L51.09375,-0.54048747 L51.5625,-0.55587864 L52.03125,-0.5733473 L52.5,-0.59062773 L52.96875,-0.6071569 L53.4375,-0.6268261 L53.90625,-0.648538 L54.375,-0.6686219 L54.84375,-0.69026375 L55.3125,-0.71344256 L55.78125,-0.7352897 L56.25,-0.7582753 L56.71875,-0.7842792 L57.1875,-0.81028193 L57.65625,-0.8368343 L58.125,-0.8670402 L58.59375,-0.89706564 L59.0625,-0.9270867 L59.53125,-0.9614944 L60,-0.997378 L60.46875,-1.0324622 L60.9375,-1.0716043 L61.40625,-1.1131059 L61.875,-1.1534177 L62.34375,-1.1978859 L62.8125,-1.247608 L63.28125,-1.2973758 L63.75,-1.3515257 L64.21875,-1.4140584 L64.6875,-1.4783988 L65.15625,-1.5451168 L65.625,-1.6203345 L66.09375,-1.6997892 L66.5625,-1.7819849 L67.03125,-1.8749056 L67.5,-1.9766841 L67.96875,-2.0828993 L68.4375,-2.203804 L68.90625,-2.3425212 L69.375,-2.4933102 L69.84375,-2.6649094 L70.3125,-2.8648996 L70.78125,-3.0895643 L71.25,-3.3506575 L71.71875,-3.6659925 L72.1875,-4.0382013 L72.65625,-4.48807 L73.125,-5.063597 L73.59375,-5.809151 L74.0625,-6.8036437 L74.53125,-8.246009 L75,-10.509385 L75.46875,-14.551706 L75.9375,-24.055727 L76.40625,-73.42751 L76.875,-66.4709 L77.34375,-22.157894 L77.8125,-13.052839 L78.28125,-9.087707 L78.75,-6.8511176 L79.21875,-5.4177456 L79.6875,-4.4067206 L80.15625,-3.6422417 L80.625,-3.0431654 L81.09375,-2.5524566 L81.5625,-2.1316156 L82.03125,-1.7646164 L82.5,-1.4374565 L82.96875,-1.1357051 L83.4375,-0.8524279 L83.90625,-0.58938193 L84.375,-0.35896906 L84.84375,-0.2637967 L85.3125,-0.4340142 L85.78125,-0.7172561 L86.25,-1.0555497 L86.71875,-1.4531682 L87.1875,-1.9196482 L87.65625,-2.4895139 L88.125,-3.226147 L88.59375,-4.2097316 L89.0625,-5.6043806 L89.53125,-7.796042 L90,-11.765726 L90.46875,-21.30857 L90.9375,-79.575356 L91.40625,-54.176197 L91.875,-21.176058 L92.34375,-13.5388775 L92.8125,-10.143648 L93.28125,-8.203013 L93.75,-6.9409413 L94.21875,-6.0599008 L94.6875,-5.4001527 L95.15625,-4.885508 L95.625,-4.4804683 L96.09375,-4.147749 L96.5625,-3.8647044 L97.03125,-3.6266134 L97.5,-3.4234834 L97.96875,-3.2427561 L98.4375,-3.085759 L98.90625,-2.9499614 L99.375,-2.826513 L99.84375,-2.7150106 L100.3125,-2.617048 L100.78125,-2.5264835 L101.25,-2.4411461 L101.71875,-2.3651865 L102.1875,-2.2958395 L102.65625,-2.2296975 L103.125,-2.1699283 L103.59375,-2.1166153 L104.0625,-2.0660427 L104.53125,-2.020026 L105,-1.980352 L105.46875,-1.9435043 L105.9375,-1.908849 L106.40625,-1.8794131 L106.875,-1.8532245 L107.34375,-1.8280668 L107.8125,-1.8077099 L108.28125,-1.7935383 L108.75,-1.7821087 L109.21875,-1.7773899 L109.6875,-1.7837114 L110.15625,-1.7961367 L110.625,-1.8185527 L111.09375,-1.8620379 L111.5625,-1.9275562 L112.03125,-2.0215743 L112.5,-2.1764352 L112.96875,-2.429277 L113.4375,-2.8638601 L113.90625,-3.8104107 L114.375,-6.9566455 L114.84375,-108.36469 L115.3125,-4.475442 L115.78125,-2.108832 L116.25,-1.3200214 L116.71875,-0.9730992 L117.1875,-0.8067161 L117.65625,-0.72064596 L118.125,-0.6885827 L118.59375,-0.6785012 L119.0625,-0.6712213 L119.53125,-0.6701879 L120,-0.66849 L120.46875,-0.6601992 L120.9375,-0.65407157 L121.40625,-0.65002406 L121.875,-0.6429644 L122.34375,-0.63793355 L122.8125,-0.6354338 L123.28125,-0.6297408 L123.75,-0.623815 L124.21875,-0.61974007 L124.6875,-0.61326116 L125.15625,-0.6047643 L125.625,-0.59904486 L126.09375,-0.592643 L126.5625,-0.5844869 L127.03125,-0.5781679 L127.5,-0.5719203 L127.96875,-0.5631121 L128.4375,-0.55515754 L128.90625,-0.5474677 L129.375,-0.5384827 L129.84375,-0.5305561 L130.3125,-0.5241291 L130.78125,-0.51657856 L131.25,-0.5083847 L131.71875,-0.501161 L132.1875,-0.49254003 L132.65625,-0.48372123 L133.125,-0.47678375 L133.59375,-0.4703958 L134.0625,-0.46357238 L134.53125,-0.45816684 L135,-0.4518424 L135.46875,-0.44384813 L135.9375,-0.43626592 L136.40625,-0.42937493 L136.875,-0.4224347 L137.34375,-0.4166146 L137.8125,-0.4122346 L138.28125,-0.40668714 L138.75,-0.4003345 L139.21875,-0.39439553 L139.6875,-0.38811725 L140.15625,-0.37978417 L140.625,-0.3735218 L141.09375,-0.3677779 L141.5625,-0.36195067 L142.03125,-0.3567265 L142.5,-0.35162956 L142.96875,-0.3454936 L143.4375,-0.3400008 L143.90625,-0.33479106 L144.375,-0.32919565 L144.84375,-0.32394722 L145.3125,-0.3192073 L145.78125,-0.31381002 L146.25,-0.30824322 L146.71875,-0.30333838 L147.1875,-0.29824615 L147.65625,-0.29307032 L148.125,-0.2889706 L148.59375,-0.28504878 L149.0625,-0.28069204 L149.53125,-0.2768785 L150,-0.27269226 L150.46875,-0.26818284 L150.9375,-0.26361814 L151.40625,-0.25927716 L151.875,-0.25502318 L152.34375,-0.2509745 L152.8125,-0.24752639 L153.28125,-0.2442541 L153.75,-0.24071032 L154.21875,-0.23718813 L154.6875,-0.23339114 L155.15625,-0.22952242 L155.625,-0.22622795 L156.09375,-0.22489335 L156.5625,-0.22042504 L157.03125,-0.21695991 L157.5,-0.21405639 L157.96875,-0.21104752 L158.4375,-0.20815575 L158.90625,-0.20532604 L159.375,-0.20246525 L159.84375,-0.19976118 L160.3125,-0.1972339 L160.78125,-0.19453387 L161.25,-0.19188698 L161.71875,-0.18917263 L162.1875,-0.18676758 L162.65625,-0.18427905 L163.125,-0.18212134 L163.59375,-0.18031202 L164.0625,-0.17815197 L164.53125,-0.17635374 L165,-0.17434332 L165.46875,-0.17214079 L165.9375,-0.17022493 L166.40625,-0.16858527 L166.875,-0.1668058 L167.34375,-0.1651514 L167.8125,-0.1637216 L168.28125,-0.1619846 L168.75,-0.16041845 L169.21875,-0.15895386 L169.6875,-0.1575557 L170.15625,-0.1561354 L170.625,-0.1549458 L171.09375,-0.15370834 L171.5625,-0.15232348 L172.03125,-0.15108176 L172.5,-0.14997028 L172.96875,-0.14869075 L173.4375,-0.1475221 L173.90625,-0.14687917 L174.375,-0.1456483 L174.84375,-0.14466192 L175.3125,-0.14386408 L175.78125,-0.1428225 L176.25,-0.14187217 L176.71875,-0.1410031 L177.1875,-0.14030302 L177.65625,-0.13947135 L178.125,-0.13889691 L178.59375,-0.13830507 L179.0625,-0.13755424 L179.53125,-0.13694808 L180,-0.1363164 L180.46875,-0.13561183 L180.9375,-0.13504994 L181.40625,-0.13446279 L181.875,-0.13409477 L182.34375,-0.13267869 L182.8125,-0.13271016 L183.28125,-0.13217771 L183.75,-0.13164067 L184.21875,-0.13111357 L184.6875,-0.1305506 L185.15625,-0.1300642 L185.625,-0.12967037 L186.09375,-0.1292371 L186.5625,-0.12864204 L187.03125,-0.12827839 L187.5,-0.12781224 L187.96875,-0.12729454 L188.4375,-0.12707382 L188.90625,-0.12654333 L189.375,-0.12601483 L189.84375,-0.12553605 L190.3125,-0.12522464 L190.78125,-0.12448843 L191.25,-0.124212116 L191.71875,-0.12383592 L192.1875,-0.123560905 L192.65625,-0.12310291 L193.125,-0.12290869 L193.59375,-0.122492224 L194.0625,-0.12199628 L194.53125,-0.12142191 L195,-0.12111141 L195.46875,-0.12073131 L195.9375,-0.12033849 L196.40625,-0.12028436 L196.875,-0.11970418 L197.34375,-0.11937266 L197.8125,-0.118996516 L198.28125,-0.11850675 L198.75,-0.11815504 L199.21875,-0.117655255 L199.6875,-0.11727713 L200.15625,-0.116763934 L200.625,-0.116213806 L201.09375,-0.11584552 L201.5625,-0.11533114 L202.03125,-0.114982605 L202.5,-0.114694074 L202.96875,-0.11419223 L203.4375,-0.11395342 L203.90625,-0.11339874 L204.375,-0.11308723 L204.84375,-0.1126478 L205.3125,-0.1121854 L205.78125,-0.1116837 L206.25,-0.11120126 L206.71875,-0.11086224 L207.1875,-0.11029987 L207.65625,-0.10980546 L208.125,-0.109548315 L208.59375,-0.109166786 L209.0625,-0.108790256 L209.53125,-0.10831586 L210,-0.108036004 L210.46875,-0.10751856 L210.9375,-0.10702196 L211.40625,-0.10669512 L211.875,-0.106242426 L212.34375,-0.1058181 L212.8125,-0.105406284 L213.28125,-0.10501608 L213.75,-0.10455701 L214.21875,-0.104188 L214.6875,-0.10363185 L215.15625,-0.1032321 L215.625,-0.1027153 L216.09375,-0.10244043 L216.5625,-0.10185705 L217.03125,-0.10157465 L217.5,-0.10102115 L217.96875,-0.10073026 L218.4375,-0.100339785 L218.90625,-0.099865526 L219.375,-0.09943472 L219.84375,-0.098964095 L220.3125,-0.09864116 L220.78125,-0.09819082 L221.25,-0.09788803 L221.71875,-0.097543046 L222.1875,-0.09711924 L222.65625,-0.09678367 L223.125,-0.09654029 L223.59375,-0.0959705 L224.0625,-0.09564357 L224.53125,-0.0952516 L225,-0.095019035 L225.46875,-0.09479727 L225.9375,-0.09442496 L226.40625,-0.094134465 L226.875,-0.093637936 L227.34375,-0.09338023 L227.8125,-0.09310725 L228.28125,-0.09276746 L228.75,-0.09253954 L229.21875,-0.09282175 L229.6875,-0.09385483 L230.15625,-0.08870549 L230.625,-0.08988922 L231.09375,-0.09009357 L231.5625,-0.08980649 L232.03125,-0.08946816 L232.5,-0.08949685 L232.96875,-0.08905487 L233.4375,-0.08888165 L233.90625,-0.08870454 L234.375,-0.088376656 L234.84375,-0.08806881 L235.3125,-0.08782683 L235.78125,-0.087510586 L236.25,-0.08718773 L236.71875,-0.087106355 L237.1875,-0.08699607 L237.65625,-0.08666867 L238.125,-0.08650125 L238.59375,-0.086112216 L239.0625,-0.085959405 L239.53125,-0.085736014 L240,-0.08550837 L240.46875,-0.08528038 L240.9375,-0.08495763 L241.40625,-0.08490264 L241.875,-0.084759265 L242.34375,-0.084484294 L242.8125,-0.08427273 L243.28125,-0.08407875 L243.75,-0.083754055 L244.21875,-0.083596066 L244.6875,-0.08350193 L245.15625,-0.08321018 L245.625,-0.08317939 L246.09375,-0.08302055 L246.5625,-0.082719035 L247.03125,-0.08252145 L247.5,-0.08244014 L247.96875,-0.08225787 L248.4375,-0.082066946 L248.90625,-0.08192514 L249.375,-0.08184471 L249.84375,-0.08165163 L250.3125,-0.08133434 L250.78125,-0.08123653 L251.25,-0.08103987 L251.71875,-0.08107828 L252.1875,-0.0809689 L252.65625,-0.08062685 L253.125,-0.08062631 L253.59375,-0.08032582 L254.0625,-0.08017601 L254.53125,-0.07999567 L255,-0.07997321 L255.46875,-0.07979269 L255.9375,-0.079631805 L256.40625,-0.07958264 L256.875,-0.079399385 L257.34375,-0.079223886 L257.8125,-0.0791939 L258.28125,-0.07885719 L258.75,-0.07896176 L259.21875,-0.078820795 L259.6875,-0.07863024 L260.15625,-0.07828169 L260.625,-0.078386866 L261.09375,-0.07816826 L261.5625,-0.078027226 L262.03125,-0.07771272 L262.5,-0.077812046 L262.96875,-0.077716745 L263.4375,-0.077511854 L263.90625,-0.0773442 L264.375,-0.07725287 L264.84375,-0.07718393 L265.3125,-0.07695588 L265.78125,-0.07691213 L266.25,-0.07684534 L266.71875,-0.07664632 L267.1875,-0.07647533 L267.65625,-0.07640578 L268.125,-0.07618143 L268.59375,-0.07604065 L269.0625,-0.076040916 L269.53125,-0.07591991 L270,-0.076457374 L270.46875,-0.07586632 L270.9375,-0.07523105 L271.40625,-0.07521638 L271.875,-0.07512337 L272.34375,-0.075023875 L272.8125,-0.07515591 L273.28125,-0.07890019 L273.75,-0.07343804 L274.21875,-0.073842324 L274.6875,-0.073727354 L275.15625,-0.0737246 L275.625,-0.0735146 L276.09375,-0.073531486 L276.5625,-0.07339355 L277.03125,-0.07328333 L277.5,-0.07308044 L277.96875,-0.07301805 L278.4375,-0.07275806 L278.90625,-0.07271929 L279.375,-0.07240216 L279.84375,-0.07230563 L280.3125,-0.072224736 L280.78125,-0.07209472 L281.25,-0.07198353 L281.71875,-0.07178869 L282.1875,-0.07169258 L282.65625,-0.07146196 L283.125,-0.07132078 L283.59375,-0.07120975 L284.0625,-0.0709411 L284.53125,-0.07080237 L285,-0.07065301 L285.46875,-0.07048367 L285.9375,-0.07047231 L286.40625,-0.070296414 L286.875,-0.070107505 L287.34375,-0.06990068 L287.8125,-0.06989223 L288.28125,-0.06963801 L288.75,-0.06949316 L289.21875,-0.069383375 L289.6875,-0.06897928 L290.15625,-0.069099255 L290.625,-0.06889198 L291.09375,-0.06865462 L291.5625,-0.06868345 L292.03125,-0.06845406 L292.5,-0.068232365 L292.96875,-0.06821412 L293.4375,-0.06802274 L293.90625,-0.06781429 L294.375,-0.06775976 L294.84375,-0.06759668 L295.3125,-0.06740789 L295.78125,-0.06726793 L296.25,-0.06725094 L296.71875,-0.06708952 L297.1875,-0.06700863 L297.65625,-0.06671013 L298.125,-0.0667073 L298.59375,-0.066442214 L299.0625,-0.06652465 L299.53125,-0.066275135 L300,-0.06614573 L300.46875,-0.066066384 L300.9375,-0.06579781 L301.40625,-0.06579583 L301.875,-0.065659605 L302.34375,-0.06542785 L302.8125,-0.06586729 L303.28125,-0.06539893 L303.75,-0.065358914 L304.21875,-0.065089986 L304.6875,-0.064990915 L305.15625,-0.06478833 L305.625,-0.064635515 L306.09375,-0.06461172 L306.5625,-0.064541586 L307.03125,-0.064447194 L307.5,-0.06421424 L307.96875,-0.0641172 L308.4375,-0.06411115 L308.90625,-0.06395652 L309.375,-0.06387017 L309.84375,-0.063662946 L310.3125,-0.0637365 L310.78125,-0.06354187 L311.25,-0.063514315 L311.71875,-0.06339531 L312.1875,-0.06319909 L312.65625,-0.06326786 L313.125,-0.063159645 L313.59375,-0.06296836 L314.0625,-0.06283784 L314.53125,-0.062798634 L315,-0.062751606 L315.46875,-0.062693805 L315.9375,-0.062622875 L316.40625,-0.06266826 L316.875,-0.06254195 L317.34375,-0.062408198 L317.8125,-0.062311374 L318.28125,-0.062146146 L318.75,-0.062076893 L319.21875,-0.062049333 L319.6875,-0.06209001 L320.15625,-0.062081702 L320.625,-0.06178494 L321.09375,-0.061925586 L321.5625,-0.06196722 L322.03125,-0.06525212 L322.5,-0.06014926 L322.96875,-0.060881115 L323.4375,-0.061102435 L323.90625,-0.061102405 L324.375,-0.0610887 L324.84375,-0.06093985 L325.3125,-0.06084719 L325.78125,-0.06087656 L326.25,-0.06069559 L326.71875,-0.060729634 L327.1875,-0.060579006 L327.65625,-0.06050255 L328.125,-0.060545802 L328.59375,-0.06049973 L329.0625,-0.060299885 L329.53125,-0.060261015 L330,-0.060340658 L330.46875,-0.06016542 L330.9375,-0.060203385 L331.40625,-0.06002444 L331.875,-0.059903886 L332.34375,-0.059844874 L332.8125,-0.059864864 L333.28125,-0.05974634 L333.75,-0.05969511 L334.21875,-0.05964104 L334.6875,-0.059675038 L335.15625,-0.059382644 L335.625,-0.05940252 L336.09375,-0.05937004 L336.5625,-0.059215553 L337.03125,-0.059202947 L337.5,-0.059064 L337.96875,-0.05900454 L338.4375,-0.058832664 L338.90625,-0.058836155 L339.375,-0.058828607 L339.84375,-0.058671664 L340.3125,-0.058674473 L340.78125,-0.058467805 L341.25,-0.058528397 L341.71875,-0.058297276 L342.1875,-0.05831444 L342.65625,-0.05830924 L343.125,-0.058100335 L343.59375,-0.057762966 L344.0625,-0.05703448 L344.53125,-0.06236551 L345,-0.058466822 L345.46875,-0.058168795 L345.9375,-0.057998464 L346.40625,-0.05776003 L346.875,-0.057792637 L347.34375,-0.057789505 L347.8125,-0.057495207 L348.28125,-0.057405237 L348.75,-0.057485443 L349.21875,-0.05739805 L349.6875,-0.057159908 L350.15625,-0.057236157 L350.625,-0.0570744 L351.09375,-0.056989294 L351.5625,-0.056934085 L352.03125,-0.056935217 L352.5,-0.056786872 L352.96875,-0.056622326 L353.4375,-0.056752924 L353.90625,-0.056682 L354.375,-0.056397542 L354.84375,-0.056407742 L355.3125,-0.056425568 L355.78125,-0.056362808 L356.25,-0.056145664 L356.71875,-0.056022342 L357.1875,-0.05594429 L357.65625,-0.055816434 L358.125,-0.055889443 L358.59375,-0.05577505 L359.0625,-0.055699855 L359.53125,-0.05562743 L360,-0.0555485 L360.46875,-0.05544576 L360.9375,-0.055481173 L361.40625,-0.055367846 L361.875,-0.055296887 L362.34375,-0.0552083 L362.8125,-0.05510189 L363.28125,-0.055050787 L363.75,-0.05499581 L364.21875,-0.054849863 L364.6875,-0.054865796 L365.15625,-0.05462145 L365.625,-0.054652438 L366.09375,-0.054549653 L366.5625,-0.05454369 L367.03125,-0.05442459 L367.5,-0.0544532 L367.96875,-0.05427361 L368.4375,-0.054244798 L368.90625,-0.05415126 L369.375,-0.05414868 L369.84375,-0.053983267 L370.3125,-0.05408168 L370.78125,-0.053966075 L371.25,-0.053925104 L371.71875,-0.053907145 L372.1875,-0.053796757 L372.65625,-0.05370897 L373.125,-0.05374307 L373.59375,-0.053563397 L374.0625,-0.05352499 L374.53125,-0.05346407 L375,-0.053317524 L375.46875,-0.053222906 L375.9375,-0.05333909 L376.40625,-0.053217124 L376.875,-0.053224254 L377.34375,-0.05306984 L377.8125,-0.05319328 L378.28125,-0.053128645 L378.75,-0.052947305 L379.21875,-0.053001344 L379.6875,-0.05303105 L380.15625,-0.052946676 L380.625,-0.05286416 L381.09375,-0.052976854 L381.5625,-0.053161886 L382.03125,-0.053408366 L382.5,-0.054039475 L382.96875,-0.05908141 L383.4375,-0.047986437 L383.90625,-0.050638173 L384.375,-0.051085055 L384.84375,-0.05131609 L385.3125,-0.051428575 L385.78125,-0.05599248 L386.25,-0.052343223 L386.71875,-0.05178789 L387.1875,-0.0517471 L387.65625,-0.051625125 L388.125,-0.051659413 L388.59375,-0.05157478 L389.0625,-0.051475883 L389.53125,-0.05142925 L390,-0.051484946 L390.46875,-0.05143557 L390.9375,-0.05139161 L391.40625,-0.05137268 L391.875,-0.051281903 L392.34375,-0.051169228 L392.8125,-0.05123792 L393.28125,-0.05119726 L393.75,-0.051147312 L394.21875,-0.0511049 L394.6875,-0.051047195 L395.15625,-0.051007703 L395.625,-0.05075993 L396.09375,-0.0509158 L396.5625,-0.050799917 L397.03125,-0.05078276 L397.5,-0.05083048 L397.96875,-0.050852977 L398.4375,-0.050558135 L398.90625,-0.050620448 L399.375,-0.050578516 L399.84375,-0.050611503 L400.3125,-0.05055894 L400.78125,-0.050481196 L401.25,-0.05048926 L401.71875,-0.050348278 L402.1875,-0.05029801 L402.65625,-0.05028667 L403.125,-0.050416127 L403.59375,-0.05016649 L404.0625,-0.05028285 L404.53125,-0.05022862 L405,-0.050116606 L405.46875,-0.05017351 L405.9375,-0.05006425 L406.40625,-0.050065245 L406.875,-0.049796734 L407.34375,-0.050015055 L407.8125,-0.049931172 L408.28125,-0.049844883 L408.75,-0.049705822 L409.21875,-0.049670935 L409.6875,-0.04971509 L410.15625,-0.049646027 L410.625,-0.04959652 L411.09375,-0.04955883 L411.5625,-0.049585864 L412.03125,-0.04965749 L412.5,-0.049304716 L412.96875,-0.049488187 L413.4375,-0.049417976 L413.90625,-0.049234524 L414.375,-0.04924616 L414.84375,-0.04930775 L415.3125,-0.049325284 L415.78125,-0.049240366 L416.25,-0.04912273 L416.71875,-0.049076512 L417.1875,-0.04894329 L417.65625,-0.049055565 L418.125,-0.04897973 L418.59375,-0.048932116 L419.0625,-0.048967455 L419.53125,-0.04889107 L420,-0.048779797 L420.46875,-0.04890039 L420.9375,-0.048749402 L421.40625,-0.048713025 L421.875,-0.048691127 L422.34375,-0.048739057 L422.8125,-0.04891319 L423.28125,-0.04991392 L423.75,-0.049679942 L424.21875,-0.04824854 L424.6875,-0.04824091 L425.15625,-0.048185967 L425.625,-0.04827798 L426.09375,-0.048174255 L426.5625,-0.048096217 L427.03125,-0.048314717 L427.5,-0.048137628 L427.96875,-0.047886226 L428.4375,-0.047984276 L428.90625,-0.047892317 L429.375,-0.047757182 L429.84375,-0.047804262 L430.3125,-0.047805123 L430.78125,-0.04776175 L431.25,-0.047707014 L431.71875,-0.04780062 L432.1875,-0.04755299 L432.65625,-0.04761717 L433.125,-0.047543723 L433.59375,-0.04743714 L434.0625,-0.047488138 L434.53125,-0.04744767 L435,-0.047400776 L435.46875,-0.047260612 L435.9375,-0.047238275 L436.40625,-0.047193363 L436.875,-0.047137722 L437.34375,-0.04719318 L437.8125,-0.047219306 L438.28125,-0.04721471 L438.75,-0.04695219 L439.21875,-0.04712496 L439.6875,-0.04697968 L440.15625,-0.046922088 L440.625,-0.046850704 L441.09375,-0.046864297 L441.5625,-0.046861432 L442.03125,-0.046834994 L442.5,-0.04667622 L442.96875,-0.046835057 L443.4375,-0.046696246 L443.90625,-0.046687454 L444.375,-0.046688758 L444.84375,-0.046783958 L445.3125,-0.04657665 L445.78125,-0.046515442 L446.25,-0.046609532 L446.71875,-0.046573196 L447.1875,-0.046589084 L447.65625,-0.046377286 L448.125,-0.046354797 L448.59375,-0.04646262 L449.0625,-0.046306357 L449.53125,-0.046374906 L450,-0.04640517 L450.46875,-0.04624003 L450.9375,-0.046165925 L451.40625,-0.04619039 L451.875,-0.046042632 L452.34375,-0.0461449 L452.8125,-0.046105 L453.28125,-0.04612471 L453.75,-0.046104264 L454.21875,-0.046258908 L454.6875,-0.046210516 L455.15625,-0.046377648 L455.625,-0.049410276 L456.09375,-0.045249905 L456.5625,-0.04566147 L457.03125,-0.04577593 L457.5,-0.045666285 L457.96875,-0.045697447 L458.4375,-0.04567621 L458.90625,-0.045523297 L459.375,-0.0455603 L459.84375,-0.045476764 L460.3125,-0.045552455 L460.78125,-0.04551214 L461.25,-0.045499455 L461.71875,-0.045531634 L462.1875,-0.045411754 L462.65625,-0.045596533 L463.125,-0.04539992 L463.59375,-0.045381464 L464.0625,-0.04531944 L464.53125,-0.045278024 L465,-0.04533142 L465.46875,-0.04520835 L465.9375,-0.0452456 L466.40625,-0.04524436 L466.875,-0.045114707 L467.34375,-0.045102753 L467.8125,-0.045231223 L468.28125,-0.045156214 L468.75,-0.045191232 L469.21875,-0.045202266 L469.6875,-0.044928238 L470.15625,-0.04506819 L470.625,-0.04512417 L471.09375,-0.045059144 L471.5625,-0.04497356 L472.03125,-0.045005705 L472.5,-0.04495121 L472.96875,-0.04488301 L473.4375,-0.044766743 L473.90625,-0.044903964 L474.375,-0.044803936 L474.84375,-0.04473396 L475.3125,-0.044773225 L475.78125,-0.044755995 L476.25,-0.044660296 L476.71875,-0.044709828 L477.1875,-0.04458848 L477.65625,-0.044699807 L478.125,-0.044484213 L478.59375,-0.044521865 L479.0625,-0.044594802 L479.53125,-0.044537418 L480,-0.044585537" fill="none" stroke="#ff0000" stroke-linejoin="round" stroke-width="2"/>
</g>
<g>
<circle cx="0" cy="-33.44976462599567" fill="" r="0"/>
<circle cx="0.46875" cy="-10.250676063907099" fill="" r="0"/>
<circle cx="0.9375" cy="-5.310319005368967" fill="" r="0"/>
<circle cx="1.40625" cy="-3.5213405707740804" fill="" r="0"/>
<circle cx="1.875" cy="-2.6015488381146707" fill="" r="0"/>
<circle cx="2.34375" cy="-2.0730128980511813" fill="" r="0"/>
<circle cx="2.8125" cy="-1.6605863294368817" fill="" r="0"/>
<circle cx="3.28125" cy="-1.3914683709912345" fill="" r="0"/>
<circle cx="3.75" cy="-1.178553062226248" fill="" r="0"/>
<circle cx="4.21875" cy="-1.024649598095834" fill="" r="0"/>
<circle cx="4.6875" cy="-0.897695140777129" fill="" r="0"/>
<circle cx="5.15625" cy="-0.7705934641935948" fill="" r="0"/>
<circle cx="5.625" cy="-0.682995367702581" fill="" r="0"/>
<circle cx="6.09375" cy="-0.6011462039359383" fill="" r="0"/>
<circle cx="6.5625" cy="-0.5342282273598399" fill="" r="0"/>
<circle cx="7.03125" cy="-0.4831525418136372" fill="" r="0"/>
<circle cx="7.5" cy="-0.4251537189786258" fill="" r="0"/>
<circle cx="7.96875" cy="-0.38468826178444526" fill="" r="0"/>
<circle cx="8.4375" cy="-0.3427457247820469" fill="" r="0"/>
<circle cx="8.90625" cy="-0.3105212262764915" fill="" r="0"/>
<circle cx="9.375" cy="-0.28274849432623567" fill="" r="0"/>
<circle cx="9.84375" cy="-0.2505070868412277" fill="" r="0"/>
<circle cx="10.3125" cy="-0.2281942363848275" fill="" r="0"/>
<circle cx="10.78125" cy="-0.20329323195748542" fill="" r="0"/>
<circle cx="11.25" cy="-0.18648491358120586" fill="" r="0"/>
<circle cx="11.71875" cy="-0.16807281612373637" fill="" r="0"/>
<circle cx="12.1875" cy="-0.15553745464680807" fill="" r="0"/>
<circle cx="12.65625" cy="-0.13787707596510318" fill="" r="0"/>
<circle cx="13.125" cy="-0.12614176499754523" fill="" r="0"/>
<circle cx="13.59375" cy="-0.11518438800379306" fill="" r="0"/>
<circle cx="14.0625" cy="-0.10375679122973946" fill="" r="0"/>
<circle cx="14.53125" cy="-0.09460166374770482" fill="" r="0"/>
<circle cx="15" cy="-0.08938284144597206" fill="" r="0"/>
<circle cx="15.46875" cy="-0.08149534577416019" fill="" r="0"/>
<circle cx="15.9375" cy="-0.07888357085199592" fill="" r="0"/>
<circle cx="16.40625" cy="-0.07194356261401229" fill="" r="0"/>
<circle cx="16.875" cy="-0.06856353785862547" fill="" r="0"/>
<circle cx="17.34375" cy="-0.06505156480400955" fill="" r="0"/>
<circle cx="17.8125" cy="-0.06363565879546974" fill="" r="0"/>
<circle cx="18.28125" cy="-0.06094254219529218" fill="" r="0"/>
<circle cx="18.75" cy="-0.06057249371502601" fill="" r="0"/>
<circle cx="19.21875" cy="-0.061841239616036554" fill="" r="0"/>
<circle cx="19.6875" cy="-0.062470625270763525" fill="" r="0"/>
<circle cx="20.15625" cy="-0.06410104628235701" fill="" r="0"/>
<circle cx="20.625" cy="-0.0650463347088296" fill="" r="0"/>
<circle cx="21.09375" cy="-0.06896707348911682" fill="" r="0"/>
<circle cx="21.5625" cy="-0.07151848004044585" fill="" r="0"/>
<circle cx="22.03125" cy="-0.07394860221490215" fill="" r="0"/>
<circle cx="22.5" cy="-0.0764311943090045" fill="" r="0"/>
<circle cx="22.96875" cy="-0.07932292175954951" fill="" r="0"/>
<circle cx="23.4375" cy="-0.08271934470642256" fill="" r="0"/>
<circle cx="23.90625" cy="-0.08702408768120744" fill="" r="0"/>
<circle cx="24.375" cy="-0.09101000966349138" fill="" r="0"/>
<circle cx="24.84375" cy="-0.09461393494614012" fill="" r="0"/>
<circle cx="25.3125" cy="-0.09868505248798212" fill="" r="0"/>
<circle cx="25.78125" cy="-0.10138815368967408" fill="" r="0"/>
<circle cx="26.25" cy="-0.10559758111485111" fill="" r="0"/>
<circle cx="26.71875" cy="-0.10971288328637595" fill="" r="0"/>
<circle cx="27.1875" cy="-0.11337110403338682" fill="" r="0"/>
<circle cx="27.65625" cy="-0.11639556510708658" fill="" r="0"/>
<circle cx="28.125" cy="-0.12238377459039369" fill="" r="0"/>
<circle cx="28.59375" cy="-0.126018531384449" fill="" r="0"/>
<circle cx="29.0625" cy="-0.1292106254311588" fill="" r="0"/>
<circle cx="29.53125" cy="-0.13404857725484398" fill="" r="0"/>
<circle cx="30" cy="-0.13821145586265146" fill="" r="0"/>
<circle cx="30.46875" cy="-0.1423801987673191" fill="" r="0"/>
<circle cx="30.9375" cy="-0.14780910681357415" fill="" r="0"/>
<circle cx="31.40625" cy="-0.15344555564879603" fill="" r="0"/>
<circle cx="31.875" cy="-0.15857937628715177" fill="" r="0"/>
<circle cx="32.34375" cy="-0.16347845243067127" fill="" r="0"/>
<circle cx="32.8125" cy="-0.16855156103946578" fill="" r="0"/>
<circle cx="33.28125" cy="-0.17304998908123012" fill="" r="0"/>
<circle cx="33.75" cy="-0.1784969343451434" fill="" r="0"/>
<circle cx="34.21875" cy="-0.1845112321821863" fill="" r="0"/>
<circle cx="34.6875" cy="-0.19033094224220046" fill="" r="0"/>
<circle cx="35.15625" cy="-0.19633365096648092" fill="" r="0"/>
<circle cx="35.625" cy="-0.2034124770571849" fill="" r="0"/>
<circle cx="36.09375" cy="-0.20951018178656478" fill="" r="0"/>
<circle cx="36.5625" cy="-0.21533664689361692" fill="" r="0"/>
<circle cx="37.03125" cy="-0.22203206664342873" fill="" r="0"/>
<circle cx="37.5" cy="-0.22866238532959862" fill="" r="0"/>
<circle cx="37.96875" cy="-0.2354139059437541" fill="" r="0"/>
<circle cx="38.4375" cy="-0.24341647454787116" fill="" r="0"/>
<circle cx="38.90625" cy="-0.25152872381787755" fill="" r="0"/>
<circle cx="39.375" cy="-0.25812867376829174" fill="" r="0"/>
<circle cx="39.84375" cy="-0.2659452593490048" fill="" r="0"/>
<circle cx="40.3125" cy="-0.27438831493208066" fill="" r="0"/>
<circle cx="40.78125" cy="-0.28142334824627807" fill="" r="0"/>
<circle cx="41.25" cy="-0.2898041851128768" fill="" r="0"/>
<circle cx="41.71875" cy="-0.2981035159214148" fill="" r="0"/>
<circle cx="42.1875" cy="-0.3072135915726472" fill="" r="0"/>
<circle cx="42.65625" cy="-0.3158227431770542" fill="" r="0"/>
<circle cx="43.125" cy="-0.3258130774247459" fill="" r="0"/>
<circle cx="43.59375" cy="-0.33560027988100977" fill="" r="0"/>
<circle cx="44.0625" cy="-0.3445369966607778" fill="" r="0"/>
<circle cx="44.53125" cy="-0.35556015843057526" fill="" r="0"/>
<circle cx="45" cy="-0.36688089343780905" fill="" r="0"/>
<circle cx="45.46875" cy="-0.37761369150373264" fill="" r="0"/>
<circle cx="45.9375" cy="-0.3894077387797779" fill="" r="0"/>
<circle cx="46.40625" cy="-0.4016972421971308" fill="" r="0"/>
<circle cx="46.875" cy="-0.4127786995189726" fill="" r="0"/>
<circle cx="47.34375" cy="-0.4245869759519976" fill="" r="0"/>
<circle cx="47.8125" cy="-0.43661103102128285" fill="" r="0"/>
<circle cx="48.28125" cy="-0.4471461113704633" fill="" r="0"/>
<circle cx="48.75" cy="-0.4595114123905915" fill="" r="0"/>
<circle cx="49.21875" cy="-0.4744669147620601" fill="" r="0"/>
<circle cx="49.6875" cy="-0.48979351374186403" fill="" r="0"/>
<circle cx="50.15625" cy="-0.5053809439407824" fill="" r="0"/>
<circle cx="50.625" cy="-0.5236147235915437" fill="" r="0"/>
<circle cx="51.09375" cy="-0.5404874686093388" fill="" r="0"/>
<circle cx="51.5625" cy="-0.5558786609565926" fill="" r="0"/>
<circle cx="52.03125" cy="-0.5733472648621112" fill="" r="0"/>
<circle cx="52.5" cy="-0.5906277442880489" fill="" r="0"/>
<circle cx="52.96875" cy="-0.6071568511222304" fill="" r="0"/>
<circle cx="53.4375" cy="-0.6268261197702151" fill="" r="0"/>
<circle cx="53.90625" cy="-0.6485379919463201" fill="" r="0"/>
<circle cx="54.375" cy="-0.668621889994479" fill="" r="0"/>
<circle cx="54.84375" cy="-0.6902637746026246" fill="" r="0"/>
<circle cx="55.3125" cy="-0.7134425527372995" fill="" r="0"/>
<circle cx="55.78125" cy="-0.735289711196029" fill="" r="0"/>
<circle cx="56.25" cy="-0.7582752409997385" fill="" r="0"/>
<circle cx="56.71875" cy="-0.7842792252799982" fill="" r="0"/>
<circle cx="57.1875" cy="-0.8102819521008956" fill="" r="0"/>
<circle cx="57.65625" cy="-0.8368342874228412" fill="" r="0"/>
<circle cx="58.125" cy="-0.8670401881998228" fill="" r="0"/>
<circle cx="58.59375" cy="-0.8970656263927952" fill="" r="0"/>
<circle cx="59.0625" cy="-0.927086715942928" fill="" r="0"/>
<circle cx="59.53125" cy="-0.9614943817541232" fill="" r="0"/>
<circle cx="60" cy="-0.997377964490923" fill="" r="0"/>
<circle cx="60.46875" cy="-1.0324622860669603" fill="" r="0"/>
<circle cx="60.9375" cy="-1.0716041967883736" fill="" r="0"/>
<circle cx="61.40625" cy="-1.1131058655419992" fill="" r="0"/>
<circle cx="61.875" cy="-1.1534177254225226" fill="" r="0"/>
<circle cx="62.34375" cy="-1.197885834446011" fill="" r="0"/>
<circle cx="62.8125" cy="-1.2476079623955543" fill="" r="0"/>
<circle cx="63.28125" cy="-1.2973757935284091" fill="" r="0"/>
<circle cx="63.75" cy="-1.351525632319617" fill="" r="0"/>
<circle cx="64.21875" cy="-1.4140584128135432" fill="" r="0"/>
<circle cx="64.6875" cy="-1.4783987784372485" fill="" r="0"/>
<circle cx="65.15625" cy="-1.5451167271044384" fill="" r="0"/>
<circle cx="65.625" cy="-1.6203344617097615" fill="" r="0"/>
<circle cx="66.09375" cy="-1.6997892104833396" fill="" r="0"/>
<circle cx="66.5625" cy="-1.7819849649163197" fill="" r="0"/>
<circle cx="67.03125" cy="-1.8749056209092716" fill="" r="0"/>
<circle cx="67.5" cy="-1.9766840919155464" fill="" r="0"/>
<circle cx="67.96875" cy="-2.082899436800591" fill="" r="0"/>
<circle cx="68.4375" cy="-2.203803956379562" fill="" r="0"/>
<circle cx="68.90625" cy="-2.3425211312907286" fill="" r="0"/>
<circle cx="69.375" cy="-2.493310196369804" fill="" r="0"/>
<circle cx="69.84375" cy="-2.66490936135555" fill="" r="0"/>
<circle cx="70.3125" cy="-2.8648997014242092" fill="" r="0"/>
<circle cx="70.78125" cy="-3.0895643736491762" fill="" r="0"/>
<circle cx="71.25" cy="-3.350657454090053" fill="" r="0"/>
<circle cx="71.71875" cy="-3.6659925838988165" fill="" r="0"/>
<circle cx="72.1875" cy="-4.038201097539338" fill="" r="0"/>
<circle cx="72.65625" cy="-4.488069966873917" fill="" r="0"/>
<circle cx="73.125" cy="-5.063597331037952" fill="" r="0"/>
<circle cx="73.59375" cy="-5.809151141922478" fill="" r="0"/>
<circle cx="74.0625" cy="-6.803643771536234" fill="" r="0"/>
<circle cx="74.53125" cy="-8.246009222935452" fill="" r="0"/>
<circle cx="75" cy="-10.50938523225536" fill="" r="0"/>
<circle cx="75.46875" cy="-14.551706396385836" fill="" r="0"/>
<circle cx="75.9375" cy="-24.055727359556148" fill="" r="0"/>
<circle cx="76.40625" cy="-73.42751079167573" fill="" r="0"/>
<circle cx="76.875" cy="-66.47089830845563" fill="" r="0"/>
<circle cx="77.34375" cy="-22.15789416428502" fill="" r="0"/>
<circle cx="77.8125" cy="-13.052839011689949" fill="" r="0"/>
<circle cx="78.28125" cy="-9.087706899646706" fill="" r="0"/>
<circle cx="78.75" cy="-6.851117481208463" fill="" r="0"/>
<circle cx="79.21875" cy="-5.417745583239332" fill="" r="0"/>
<circle cx="79.6875" cy="-4.406720496530363" fill="" r="0"/>
<circle cx="80.15625" cy="-3.6422417045601083" fill="" r="0"/>
<circle cx="80.625" cy="-3.0431653314231917" fill="" r="0"/>
<circle cx="81.09375" cy="-2.5524566406124123" fill="" r="0"/>
<circle cx="81.5625" cy="-2.1316156344704646" fill="" r="0"/>
<circle cx="82.03125" cy="-1.764616414289815" fill="" r="0"/>
<circle cx="82.5" cy="-1.4374565279714546" fill="" r="0"/>
<circle cx="82.96875" cy="-1.1357051683681716" fill="" r="0"/>
<circle cx="83.4375" cy="-0.8524278902421767" fill="" r="0"/>
<circle cx="83.90625" cy="-0.5893819454328801" fill="" r="0"/>
<circle cx="84.375" cy="-0.3589690588501206" fill="" r="0"/>
<circle cx="84.84375" cy="-0.26379670179199327" fill="" r="0"/>
<circle cx="85.3125" cy="-0.4340141876902377" fill="" r="0"/>
<circle cx="85.78125" cy="-0.7172561557033643" fill="" r="0"/>
<circle cx="86.25" cy="-1.0555497271541623" fill="" r="0"/>
<circle cx="86.71875" cy="-1.4531681450937555" fill="" r="0"/>
<circle cx="87.1875" cy="-1.9196481797771678" fill="" r="0"/>
<circle cx="87.65625" cy="-2.4895139116409286" fill="" r="0"/>
<circle cx="88.125" cy="-3.226146987796874" fill="" r="0"/>
<circle cx="88.59375" cy="-4.209731736237032" fill="" r="0"/>
<circle cx="89.0625" cy="-5.604380795751645" fill="" r="0"/>
<circle cx="89.53125" cy="-7.796042132805721" fill="" r="0"/>
<circle cx="90" cy="-11.765726202215221" fill="" r="0"/>
<circle cx="90.46875" cy="-21.308570070643018" fill="" r="0"/>
<circle cx="90.9375" cy="-79.57535585992686" fill="" r="0"/>
<circle cx="91.40625" cy="-54.17619755787324" fill="" r="0"/>
<circle cx="91.875" cy="-21.176056956637293" fill="" r="0"/>
<circle cx="92.34375" cy="-13.538877367100268" fill="" r="0"/>
<circle cx="92.8125" cy="-10.143648099044503" fill="" r="0"/>
<circle cx="93.28125" cy="-8.203013172534153" fill="" r="0"/>
<circle cx="93.75" cy="-6.940941441993845" fill="" r="0"/>
<circle cx="94.21875" cy="-6.059900728981212" fill="" r="0"/>
<circle cx="94.6875" cy="-5.400152457965947" fill="" r="0"/>
<circle cx="95.15625" cy="-4.8855078279276345" fill="" r="0"/>
<circle cx="95.625" cy="-4.480468095576984" fill="" r="0"/>
<circle cx="96.09375" cy="-4.147749018489296" fill="" r="0"/>
<circle cx="96.5625" cy="-3.8647043790365405" fill="" r="0"/>
<circle cx="97.03125" cy="-3.6266133041330977" fill="" r="0"/>
<circle cx="97.5" cy="-3.4234833036039776" fill="" r="0"/>
<circle cx="97.96875" cy="-3.242756215502579" fill="" r="0"/>
<circle cx="98.4375" cy="-3.0857588905540556" fill="" r="0"/>
<circle cx="98.90625" cy="-2.9499614740027074" fill="" r="0"/>
<circle cx="99.375" cy="-2.8265130290506844" fill="" r="0"/>
<circle cx="99.84375" cy="-2.7150106811704964" fill="" r="0"/>
<circle cx="100.3125" cy="-2.617047996485473" fill="" r="0"/>
<circle cx="100.78125" cy="-2.526483484473808" fill="" r="0"/>
<circle cx="101.25" cy="-2.441146017909886" fill="" r="0"/>
<circle cx="101.71875" cy="-2.3651863377673767" fill="" r="0"/>
<circle cx="102.1875" cy="-2.295839637190756" fill="" r="0"/>
<circle cx="102.65625" cy="-2.2296974057020007" fill="" r="0"/>
<circle cx="103.125" cy="-2.169928209257794" fill="" r="0"/>
<circle cx="103.59375" cy="-2.116615412578026" fill="" r="0"/>
<circle cx="104.0625" cy="-2.0660426462204984" fill="" r="0"/>
<circle cx="104.53125" cy="-2.020026075283986" fill="" r="0"/>
<circle cx="105" cy="-1.9803520991502912" fill="" r="0"/>
<circle cx="105.46875" cy="-1.9435043037354052" fill="" r="0"/>
<circle cx="105.9375" cy="-1.9088490577046069" fill="" r="0"/>
<circle cx="106.40625" cy="-1.8794131622045671" fill="" r="0"/>
<circle cx="106.875" cy="-1.8532244871416292" fill="" r="0"/>
<circle cx="107.34375" cy="-1.8280668380631597" fill="" r="0"/>
<circle cx="107.8125" cy="-1.8077099378014914" fill="" r="0"/>
<circle cx="108.28125" cy="-1.7935383289266107" fill="" r="0"/>
<circle cx="108.75" cy="-1.7821087027900429" fill="" r="0"/>
<circle cx="109.21875" cy="-1.7773898461827986" fill="" r="0"/>
<circle cx="109.6875" cy="-1.7837113830567957" fill="" r="0"/>
<circle cx="110.15625" cy="-1.7961367001985753" fill="" r="0"/>
<circle cx="110.625" cy="-1.81855276867631" fill="" r="0"/>
<circle cx="111.09375" cy="-1.8620379422930335" fill="" r="0"/>
<circle cx="111.5625" cy="-1.927556132684595" fill="" r="0"/>
<circle cx="112.03125" cy="-2.02157418739097" fill="" r="0"/>
<circle cx="112.5" cy="-2.1764352609466733" fill="" r="0"/>
<circle cx="112.96875" cy="-2.4292769918644637" fill="" r="0"/>
<circle cx="113.4375" cy="-2.8638600577347857" fill="" r="0"/>
<circle cx="113.90625" cy="-3.810410686785886" fill="" r="0"/>
<circle cx="114.375" cy="-6.956645640603779" fill="" r="0"/>
<circle cx="114.84375" cy="-108.36469537360921" fill="" r="0"/>
<circle cx="115.3125" cy="-4.475441873670386" fill="" r="0"/>
<circle cx="115.78125" cy="-2.108831802369378" fill="" r="0"/>
<circle cx="116.25" cy="-1.3200214473850242" fill="" r="0"/>
<circle cx="116.71875" cy="-0.9730991719134612" fill="" r="0"/>
<circle cx="117.1875" cy="-0.8067160773392471" fill="" r="0"/>
<circle cx="117.65625" cy="-0.7206459454989017" fill="" r="0"/>
<circle cx="118.125" cy="-0.6885827447437648" fill="" r="0"/>
<circle cx="118.59375" cy="-0.678501173439122" fill="" r="0"/>
<circle cx="119.0625" cy="-0.6712212971413987" fill="" r="0"/>
<circle cx="119.53125" cy="-0.670187888883531" fill="" r="0"/>
<circle cx="120" cy="-0.668489983726369" fill="" r="0"/>
<circle cx="120.46875" cy="-0.6601992373989413" fill="" r="0"/>
<circle cx="120.9375" cy="-0.6540715499232559" fill="" r="0"/>
<circle cx="121.40625" cy="-0.6500240510756374" fill="" r="0"/>
<circle cx="121.875" cy="-0.642964438881002" fill="" r="0"/>
<circle cx="122.34375" cy="-0.6379335422721472" fill="" r="0"/>
<circle cx="122.8125" cy="-0.6354338050358205" fill="" r="0"/>
<circle cx="123.28125" cy="-0.6297407792765164" fill="" r="0"/>
<circle cx="123.75" cy="-0.6238150216123167" fill="" r="0"/>
<circle cx="124.21875" cy="-0.6197400458943241" fill="" r="0"/>
<circle cx="124.6875" cy="-0.6132611707802815" fill="" r="0"/>
<circle cx="125.15625" cy="-0.6047642793510498" fill="" r="0"/>
<circle cx="125.625" cy="-0.5990448835061957" fill="" r="0"/>
<circle cx="126.09375" cy="-0.5926430436310789" fill="" r="0"/>
<circle cx="126.5625" cy="-0.5844868929824681" fill="" r="0"/>
<circle cx="127.03125" cy="-0.5781679036488281" fill="" r="0"/>
<circle cx="127.5" cy="-0.5719203000406743" fill="" r="0"/>
<circle cx="127.96875" cy="-0.5631120760898037" fill="" r="0"/>
<circle cx="128.4375" cy="-0.5551575713687434" fill="" r="0"/>
<circle cx="128.90625" cy="-0.547467704091938" fill="" r="0"/>
<circle cx="129.375" cy="-0.538482715559356" fill="" r="0"/>
<circle cx="129.84375" cy="-0.5305561106660406" fill="" r="0"/>
<circle cx="130.3125" cy="-0.5241290787518594" fill="" r="0"/>
<circle cx="130.78125" cy="-0.5165785370033766" fill="" r="0"/>
<circle cx="131.25" cy="-0.5083846954144494" fill="" r="0"/>
<circle cx="131.71875" cy="-0.5011609739484071" fill="" r="0"/>
<circle cx="132.1875" cy="-0.4925400453765286" fill="" r="0"/>
<circle cx="132.65625" cy="-0.4837212404727585" fill="" r="0"/>
<circle cx="133.125" cy="-0.4767837608502385" fill="" r="0"/>
<circle cx="133.59375" cy="-0.47039579661669223" fill="" r="0"/>
<circle cx="134.0625" cy="-0.4635723965898035" fill="" r="0"/>
<circle cx="134.53125" cy="-0.45816683716490914" fill="" r="0"/>
<circle cx="135" cy="-0.4518424011859725" fill="" r="0"/>
<circle cx="135.46875" cy="-0.44384813881182267" fill="" r="0"/>
<circle cx="135.9375" cy="-0.4362659037572797" fill="" r="0"/>
<circle cx="136.40625" cy="-0.42937494512044483" fill="" r="0"/>
<circle cx="136.875" cy="-0.42243470207692363" fill="" r="0"/>
<circle cx="137.34375" cy="-0.41661458998829715" fill="" r="0"/>
<circle cx="137.8125" cy="-0.4122345916345741" fill="" r="0"/>
<circle cx="138.28125" cy="-0.40668712571471777" fill="" r="0"/>
<circle cx="138.75" cy="-0.40033450202623966" fill="" r="0"/>
<circle cx="139.21875" cy="-0.39439551611293205" fill="" r="0"/>
<circle cx="139.6875" cy="-0.38811726618813724" fill="" r="0"/>
<circle cx="140.15625" cy="-0.37978416608969007" fill="" r="0"/>
<circle cx="140.625" cy="-0.37352180759582854" fill="" r="0"/>
<circle cx="141.09375" cy="-0.367777916263256" fill="" r="0"/>
<circle cx="141.5625" cy="-0.36195066771162293" fill="" r="0"/>
<circle cx="142.03125" cy="-0.3567264938137928" fill="" r="0"/>
<circle cx="142.5" cy="-0.35162954677026736" fill="" r="0"/>
<circle cx="142.96875" cy="-0.34549361509196075" fill="" r="0"/>
<circle cx="143.4375" cy="-0.3400008031154082" fill="" r="0"/>
<circle cx="143.90625" cy="-0.33479107272324377" fill="" r="0"/>
<circle cx="144.375" cy="-0.3291956485233365" fill="" r="0"/>
<circle cx="144.84375" cy="-0.3239472168646394" fill="" r="0"/>
<circle cx="145.3125" cy="-0.31920732532277096" fill="" r="0"/>
<circle cx="145.78125" cy="-0.3138100330827742" fill="" r="0"/>
<circle cx="146.25" cy="-0.30824321690012635" fill="" r="0"/>
<circle cx="146.71875" cy="-0.30333837187548035" fill="" r="0"/>
<circle cx="147.1875" cy="-0.2982461458015254" fill="" r="0"/>
<circle cx="147.65625" cy="-0.29307031602377615" fill="" r="0"/>
<circle cx="148.125" cy="-0.28897057830761796" fill="" r="0"/>
<circle cx="148.59375" cy="-0.2850487941858487" fill="" r="0"/>
<circle cx="149.0625" cy="-0.2806920473449844" fill="" r="0"/>
<circle cx="149.53125" cy="-0.2768785089342326" fill="" r="0"/>
<circle cx="150" cy="-0.2726922677157774" fill="" r="0"/>
<circle cx="150.46875" cy="-0.2681828425143251" fill="" r="0"/>
<circle cx="150.9375" cy="-0.2636181452339544" fill="" r="0"/>
<circle cx="151.40625" cy="-0.2592771652190253" fill="" r="0"/>
<circle cx="151.875" cy="-0.2550231839766601" fill="" r="0"/>
<circle cx="152.34375" cy="-0.2509744923903606" fill="" r="0"/>
<circle cx="152.8125" cy="-0.24752639141946306" fill="" r="0"/>
<circle cx="153.28125" cy="-0.24425409301867207" fill="" r="0"/>
<circle cx="153.75" cy="-0.24071031723502953" fill="" r="0"/>
<circle cx="154.21875" cy="-0.23718812364052408" fill="" r="0"/>
<circle cx="154.6875" cy="-0.23339113708675202" fill="" r="0"/>
<circle cx="155.15625" cy="-0.22952242383602794" fill="" r="0"/>
<circle cx="155.625" cy="-0.22622794812062966" fill="" r="0"/>
<circle cx="156.09375" cy="-0.22489335206304464" fill="" r="0"/>
<circle cx="156.5625" cy="-0.22042504539094188" fill="" r="0"/>
<circle cx="157.03125" cy="-0.216959901841602" fill="" r="0"/>
<circle cx="157.5" cy="-0.2140563872616967" fill="" r="0"/>
<circle cx="157.96875" cy="-0.21104751625110332" fill="" r="0"/>
<circle cx="158.4375" cy="-0.20815575721193513" fill="" r="0"/>
<circle cx="158.90625" cy="-0.20532604259163312" fill="" r="0"/>
<circle cx="159.375" cy="-0.20246525615190175" fill="" r="0"/>
<circle cx="159.84375" cy="-0.19976118592374198" fill="" r="0"/>
<circle cx="160.3125" cy="-0.19723389548141285" fill="" r="0"/>
<circle cx="160.78125" cy="-0.19453386427342614" fill="" r="0"/>
<circle cx="161.25" cy="-0.1918869736049012" fill="" r="0"/>
<circle cx="161.71875" cy="-0.18917262761090023" fill="" r="0"/>
<circle cx="162.1875" cy="-0.18676757774064123" fill="" r="0"/>
<circle cx="162.65625" cy="-0.18427905963370178" fill="" r="0"/>
<circle cx="163.125" cy="-0.1821213334800957" fill="" r="0"/>
<circle cx="163.59375" cy="-0.18031202720172446" fill="" r="0"/>
<circle cx="164.0625" cy="-0.17815196400153216" fill="" r="0"/>
<circle cx="164.53125" cy="-0.17635374044887608" fill="" r="0"/>
<circle cx="165" cy="-0.17434331567587863" fill="" r="0"/>
<circle cx="165.46875" cy="-0.1721407915992647" fill="" r="0"/>
<circle cx="165.9375" cy="-0.17022493826496665" fill="" r="0"/>
<circle cx="166.40625" cy="-0.16858526923644063" fill="" r="0"/>
<circle cx="166.875" cy="-0.16680580291799868" fill="" r="0"/>
<circle cx="167.34375" cy="-0.1651513984309137" fill="" r="0"/>
<circle cx="167.8125" cy="-0.16372160114358839" fill="" r="0"/>
<circle cx="168.28125" cy="-0.16198458562243123" fill="" r="0"/>
<circle cx="168.75" cy="-0.16041845482827632" fill="" r="0"/>
<circle cx="169.21875" cy="-0.15895386466266745" fill="" r="0"/>
<circle cx="169.6875" cy="-0.15755569332394995" fill="" r="0"/>
<circle cx="170.15625" cy="-0.15613540226671216" fill="" r="0"/>
<circle cx="170.625" cy="-0.1549457999766464" fill="" r="0"/>
<circle cx="171.09375" cy="-0.1537083412573493" fill="" r="0"/>
<circle cx="171.5625" cy="-0.1523234799187868" fill="" r="0"/>
<circle cx="172.03125" cy="-0.1510817497327217" fill="" r="0"/>
<circle cx="172.5" cy="-0.14997027266563753" fill="" r="0"/>
<circle cx="172.96875" cy="-0.14869074183871595" fill="" r="0"/>
<circle cx="173.4375" cy="-0.1475221091216929" fill="" r="0"/>
<circle cx="173.90625" cy="-0.1468791707534921" fill="" r="0"/>
<circle cx="174.375" cy="-0.1456483020867065" fill="" r="0"/>
<circle cx="174.84375" cy="-0.1446619254704347" fill="" r="0"/>
<circle cx="175.3125" cy="-0.1438640778652523" fill="" r="0"/>
<circle cx="175.78125" cy="-0.1428225061510923" fill="" r="0"/>
<circle cx="176.25" cy="-0.14187216495517652" fill="" r="0"/>
<circle cx="176.71875" cy="-0.14100309750790682" fill="" r="0"/>
<circle cx="177.1875" cy="-0.1403030218270822" fill="" r="0"/>
<circle cx="177.65625" cy="-0.13947135928439705" fill="" r="0"/>
<circle cx="178.125" cy="-0.1388969127119581" fill="" r="0"/>
<circle cx="178.59375" cy="-0.13830506306433277" fill="" r="0"/>
<circle cx="179.0625" cy="-0.13755424204060632" fill="" r="0"/>
<circle cx="179.53125" cy="-0.13694807438355683" fill="" r="0"/>
<circle cx="180" cy="-0.13631640700322606" fill="" r="0"/>
<circle cx="180.46875" cy="-0.13561182964662413" fill="" r="0"/>
<circle cx="180.9375" cy="-0.13504993958422357" fill="" r="0"/>
<circle cx="181.40625" cy="-0.13446279177630635" fill="" r="0"/>
<circle cx="181.875" cy="-0.1340947778870577" fill="" r="0"/>
<circle cx="182.34375" cy="-0.13267868177941722" fill="" r="0"/>
<circle cx="182.8125" cy="-0.13271015275967268" fill="" r="0"/>
<circle cx="183.28125" cy="-0.13217770614413712" fill="" r="0"/>
<circle cx="183.75" cy="-0.13164066648463052" fill="" r="0"/>
<circle cx="184.21875" cy="-0.1311135774699546" fill="" r="0"/>
<circle cx="184.6875" cy="-0.13055058574302097" fill="" r="0"/>
<circle cx="185.15625" cy="-0.1300642032849811" fill="" r="0"/>
<circle cx="185.625" cy="-0.12967036162662018" fill="" r="0"/>
<circle cx="186.09375" cy="-0.12923710364361995" fill="" r="0"/>
<circle cx="186.5625" cy="-0.12864203208011288" fill="" r="0"/>
<circle cx="187.03125" cy="-0.12827839385246592" fill="" r="0"/>
<circle cx="187.5" cy="-0.12781223614675116" fill="" r="0"/>
<circle cx="187.96875" cy="-0.12729454416340036" fill="" r="0"/>
<circle cx="188.4375" cy="-0.12707383177417927" fill="" r="0"/>
<circle cx="188.90625" cy="-0.12654332770308913" fill="" r="0"/>
<circle cx="189.375" cy="-0.12601483531789964" fill="" r="0"/>
<circle cx="189.84375" cy="-0.12553605670743395" fill="" r="0"/>
<circle cx="190.3125" cy="-0.12522463721277674" fill="" r="0"/>
<circle cx="190.78125" cy="-0.12448842485237777" fill="" r="0"/>
<circle cx="191.25" cy="-0.12421211728002533" fill="" r="0"/>
<circle cx="191.71875" cy="-0.12383592191683723" fill="" r="0"/>
<circle cx="192.1875" cy="-0.12356090578212697" fill="" r="0"/>
<circle cx="192.65625" cy="-0.12310291366011403" fill="" r="0"/>
<circle cx="193.125" cy="-0.12290868925960126" fill="" r="0"/>
<circle cx="193.59375" cy="-0.12249222258143365" fill="" r="0"/>
<circle cx="194.0625" cy="-0.12199628678670274" fill="" r="0"/>
<circle cx="194.53125" cy="-0.12142190741976519" fill="" r="0"/>
<circle cx="195" cy="-0.12111141073036999" fill="" r="0"/>
<circle cx="195.46875" cy="-0.1207313095933234" fill="" r="0"/>
<circle cx="195.9375" cy="-0.12033849554263232" fill="" r="0"/>
<circle cx="196.40625" cy="-0.12028436199070155" fill="" r="0"/>
<circle cx="196.875" cy="-0.11970418192673468" fill="" r="0"/>
<circle cx="197.34375" cy="-0.11937265592894865" fill="" r="0"/>
<circle cx="197.8125" cy="-0.11899651725154768" fill="" r="0"/>
<circle cx="198.28125" cy="-0.11850675343225676" fill="" r="0"/>
<circle cx="198.75" cy="-0.11815504315689393" fill="" r="0"/>
<circle cx="199.21875" cy="-0.11765525559460074" fill="" r="0"/>
<circle cx="199.6875" cy="-0.11727713212454786" fill="" r="0"/>
<circle cx="200.15625" cy="-0.11676393184465526" fill="" r="0"/>
<circle cx="200.625" cy="-0.11621380612716325" fill="" r="0"/>
<circle cx="201.09375" cy="-0.11584551987152406" fill="" r="0"/>
<circle cx="201.5625" cy="-0.1153311424632137" fill="" r="0"/>
<circle cx="202.03125" cy="-0.11498260381764601" fill="" r="0"/>
<circle cx="202.5" cy="-0.11469407399110207" fill="" r="0"/>
<circle cx="202.96875" cy="-0.11419223317264783" fill="" r="0"/>
<circle cx="203.4375" cy="-0.1139534173175468" fill="" r="0"/>
<circle cx="203.90625" cy="-0.11339873461301771" fill="" r="0"/>
<circle cx="204.375" cy="-0.11308722846259353" fill="" r="0"/>
<circle cx="204.84375" cy="-0.11264780186135044" fill="" r="0"/>
<circle cx="205.3125" cy="-0.11218540242589753" fill="" r="0"/>
<circle cx="205.78125" cy="-0.11168369799718353" fill="" r="0"/>
<circle cx="206.25" cy="-0.11120125935892088" fill="" r="0"/>
<circle cx="206.71875" cy="-0.11086223875838891" fill="" r="0"/>
<circle cx="207.1875" cy="-0.11029986935146427" fill="" r="0"/>
<circle cx="207.65625" cy="-0.10980545929189658" fill="" r="0"/>
<circle cx="208.125" cy="-0.10954831304667145" fill="" r="0"/>
<circle cx="208.59375" cy="-0.1091667878478568" fill="" r="0"/>
<circle cx="209.0625" cy="-0.10879025888169876" fill="" r="0"/>
<circle cx="209.53125" cy="-0.10831586629807469" fill="" r="0"/>
<circle cx="210" cy="-0.1080360024287467" fill="" r="0"/>
<circle cx="210.46875" cy="-0.10751856053082508" fill="" r="0"/>
<circle cx="210.9375" cy="-0.10702195481113648" fill="" r="0"/>
<circle cx="211.40625" cy="-0.10669512215663668" fill="" r="0"/>
<circle cx="211.875" cy="-0.10624242919225532" fill="" r="0"/>
<circle cx="212.34375" cy="-0.1058181009516973" fill="" r="0"/>
<circle cx="212.8125" cy="-0.10540628559492544" fill="" r="0"/>
<circle cx="213.28125" cy="-0.10501608332907678" fill="" r="0"/>
<circle cx="213.75" cy="-0.10455700846238963" fill="" r="0"/>
<circle cx="214.21875" cy="-0.10418800059177331" fill="" r="0"/>
<circle cx="214.6875" cy="-0.10363184386216902" fill="" r="0"/>
<circle cx="215.15625" cy="-0.10323210255735255" fill="" r="0"/>
<circle cx="215.625" cy="-0.10271529922183585" fill="" r="0"/>
<circle cx="216.09375" cy="-0.102440430570852" fill="" r="0"/>
<circle cx="216.5625" cy="-0.10185705213527015" fill="" r="0"/>
<circle cx="217.03125" cy="-0.101574648192918" fill="" r="0"/>
<circle cx="217.5" cy="-0.10102115074071584" fill="" r="0"/>
<circle cx="217.96875" cy="-0.10073026337656114" fill="" r="0"/>
<circle cx="218.4375" cy="-0.1003397874845638" fill="" r="0"/>
<circle cx="218.90625" cy="-0.09986552785874504" fill="" r="0"/>
<circle cx="219.375" cy="-0.09943472175339825" fill="" r="0"/>
<circle cx="219.84375" cy="-0.0989640975237567" fill="" r="0"/>
<circle cx="220.3125" cy="-0.09864115540165568" fill="" r="0"/>
<circle cx="220.78125" cy="-0.09819082112544268" fill="" r="0"/>
<circle cx="221.25" cy="-0.09788802686539738" fill="" r="0"/>
<circle cx="221.71875" cy="-0.09754304788223654" fill="" r="0"/>
<circle cx="222.1875" cy="-0.09711924362409984" fill="" r="0"/>
<circle cx="222.65625" cy="-0.09678367074332649" fill="" r="0"/>
<circle cx="223.125" cy="-0.09654028465606566" fill="" r="0"/>
<circle cx="223.59375" cy="-0.09597049611275604" fill="" r="0"/>
<circle cx="224.0625" cy="-0.09564356937668905" fill="" r="0"/>
<circle cx="224.53125" cy="-0.09525160092899836" fill="" r="0"/>
<circle cx="225" cy="-0.09501903424096766" fill="" r="0"/>
<circle cx="225.46875" cy="-0.09479726528752644" fill="" r="0"/>
<circle cx="225.9375" cy="-0.09442496264413744" fill="" r="0"/>
<circle cx="226.40625" cy="-0.09413446118679464" fill="" r="0"/>
<circle cx="226.875" cy="-0.09363793638561278" fill="" r="0"/>
<circle cx="227.34375" cy="-0.09338022557444416" fill="" r="0"/>
<circle cx="227.8125" cy="-0.09310725580815563" fill="" r="0"/>
<circle cx="228.28125" cy="-0.09276746174276536" fill="" r="0"/>
<circle cx="228.75" cy="-0.09253953921666719" fill="" r="0"/>
<circle cx="229.21875" cy="-0.09282174427489776" fill="" r="0"/>
<circle cx="229.6875" cy="-0.09385483155746242" fill="" r="0"/>
<circle cx="230.15625" cy="-0.08870549020517424" fill="" r="0"/>
<circle cx="230.625" cy="-0.08988922267037897" fill="" r="0"/>
<circle cx="231.09375" cy="-0.09009356698538577" fill="" r="0"/>
<circle cx="231.5625" cy="-0.08980648885454168" fill="" r="0"/>
<circle cx="232.03125" cy="-0.0894681606236091" fill="" r="0"/>
<circle cx="232.5" cy="-0.08949684833502616" fill="" r="0"/>
<circle cx="232.96875" cy="-0.08905486647929892" fill="" r="0"/>
<circle cx="233.4375" cy="-0.08888164653369758" fill="" r="0"/>
<circle cx="233.90625" cy="-0.08870453933101403" fill="" r="0"/>
<circle cx="234.375" cy="-0.08837665285829761" fill="" r="0"/>
<circle cx="234.84375" cy="-0.08806881120365023" fill="" r="0"/>
<circle cx="235.3125" cy="-0.08782683455602619" fill="" r="0"/>
<circle cx="235.78125" cy="-0.08751058259874266" fill="" r="0"/>
<circle cx="236.25" cy="-0.08718773349855592" fill="" r="0"/>
<circle cx="236.71875" cy="-0.0871063529797015" fill="" r="0"/>
<circle cx="237.1875" cy="-0.08699606997923968" fill="" r="0"/>
<circle cx="237.65625" cy="-0.08666867233694778" fill="" r="0"/>
<circle cx="238.125" cy="-0.08650124998201046" fill="" r="0"/>
<circle cx="238.59375" cy="-0.0861122127254533" fill="" r="0"/>
<circle cx="239.0625" cy="-0.0859594075177909" fill="" r="0"/>
<circle cx="239.53125" cy="-0.08573601046855968" fill="" r="0"/>
<circle cx="240" cy="-0.08550837036934401" fill="" r="0"/>
<circle cx="240.46875" cy="-0.0852803808940127" fill="" r="0"/>
<circle cx="240.9375" cy="-0.08495763033505864" fill="" r="0"/>
<circle cx="241.40625" cy="-0.08490263345418793" fill="" r="0"/>
<circle cx="241.875" cy="-0.08475926201389392" fill="" r="0"/>
<circle cx="242.34375" cy="-0.08448429753854989" fill="" r="0"/>
<circle cx="242.8125" cy="-0.08427272912464158" fill="" r="0"/>
<circle cx="243.28125" cy="-0.08407875058521351" fill="" r="0"/>
<circle cx="243.75" cy="-0.08375405578070684" fill="" r="0"/>
<circle cx="244.21875" cy="-0.08359606412619357" fill="" r="0"/>
<circle cx="244.6875" cy="-0.08350192792766715" fill="" r="0"/>
<circle cx="245.15625" cy="-0.08321017464135358" fill="" r="0"/>
<circle cx="245.625" cy="-0.08317939282069049" fill="" r="0"/>
<circle cx="246.09375" cy="-0.08302055356905585" fill="" r="0"/>
<circle cx="246.5625" cy="-0.08271903747663027" fill="" r="0"/>
<circle cx="247.03125" cy="-0.0825214550470523" fill="" r="0"/>
<circle cx="247.5" cy="-0.08244013812708205" fill="" r="0"/>
<circle cx="247.96875" cy="-0.08225786506871563" fill="" r="0"/>
<circle cx="248.4375" cy="-0.08206694303950174" fill="" r="0"/>
<circle cx="248.90625" cy="-0.0819251362343512" fill="" r="0"/>
<circle cx="249.375" cy="-0.08184471163493402" fill="" r="0"/>
<circle cx="249.84375" cy="-0.08165163109922295" fill="" r="0"/>
<circle cx="250.3125" cy="-0.08133433954475164" fill="" r="0"/>
<circle cx="250.78125" cy="-0.08123652745329965" fill="" r="0"/>
<circle cx="251.25" cy="-0.08103987034517003" fill="" r="0"/>
<circle cx="251.71875" cy="-0.0810782833303857" fill="" r="0"/>
<circle cx="252.1875" cy="-0.08096890217100723" fill="" r="0"/>
<circle cx="252.65625" cy="-0.08062685352208868" fill="" r="0"/>
<circle cx="253.125" cy="-0.08062630908311913" fill="" r="0"/>
<circle cx="253.59375" cy="-0.08032582226552988" fill="" r="0"/>
<circle cx="254.0625" cy="-0.08017601209756701" fill="" r="0"/>
<circle cx="254.53125" cy="-0.079995671780077" fill="" r="0"/>
<circle cx="255" cy="-0.07997321435869682" fill="" r="0"/>
<circle cx="255.46875" cy="-0.0797926905212688" fill="" r="0"/>
<circle cx="255.9375" cy="-0.07963180904268964" fill="" r="0"/>
<circle cx="256.40625" cy="-0.07958264074231745" fill="" r="0"/>
<circle cx="256.875" cy="-0.07939938678948792" fill="" r="0"/>
<circle cx="257.34375" cy="-0.07922388712398318" fill="" r="0"/>
<circle cx="257.8125" cy="-0.0791938954001395" fill="" r="0"/>
<circle cx="258.28125" cy="-0.07885719404179234" fill="" r="0"/>
<circle cx="258.75" cy="-0.07896176300274323" fill="" r="0"/>
<circle cx="259.21875" cy="-0.07882079237222993" fill="" r="0"/>
<circle cx="259.6875" cy="-0.07863023830717254" fill="" r="0"/>
<circle cx="260.15625" cy="-0.0782816952012844" fill="" r="0"/>
<circle cx="260.625" cy="-0.07838686506301691" fill="" r="0"/>
<circle cx="261.09375" cy="-0.07816825459706411" fill="" r="0"/>
<circle cx="261.5625" cy="-0.07802722338595261" fill="" r="0"/>
<circle cx="262.03125" cy="-0.07771272470387612" fill="" r="0"/>
<circle cx="262.5" cy="-0.07781204744700165" fill="" r="0"/>
<circle cx="262.96875" cy="-0.07771674592364741" fill="" r="0"/>
<circle cx="263.4375" cy="-0.07751185790703523" fill="" r="0"/>
<circle cx="263.90625" cy="-0.07734420005443769" fill="" r="0"/>
<circle cx="264.375" cy="-0.07725287425639968" fill="" r="0"/>
<circle cx="264.84375" cy="-0.0771839290107984" fill="" r="0"/>
<circle cx="265.3125" cy="-0.07695587811605036" fill="" r="0"/>
<circle cx="265.78125" cy="-0.07691212452559323" fill="" r="0"/>
<circle cx="266.25" cy="-0.0768453387407462" fill="" r="0"/>
<circle cx="266.71875" cy="-0.07664632244092824" fill="" r="0"/>
<circle cx="267.1875" cy="-0.07647533185005514" fill="" r="0"/>
<circle cx="267.65625" cy="-0.07640577689524833" fill="" r="0"/>
<circle cx="268.125" cy="-0.07618142548992363" fill="" r="0"/>
<circle cx="268.59375" cy="-0.07604064801683336" fill="" r="0"/>
<circle cx="269.0625" cy="-0.07604091365363462" fill="" r="0"/>
<circle cx="269.53125" cy="-0.07591991035488689" fill="" r="0"/>
<circle cx="270" cy="-0.07645737427084116" fill="" r="0"/>
<circle cx="270.46875" cy="-0.07586632198686742" fill="" r="0"/>
<circle cx="270.9375" cy="-0.07523105411958263" fill="" r="0"/>
<circle cx="271.40625" cy="-0.07521638238801892" fill="" r="0"/>
<circle cx="271.875" cy="-0.07512336950647193" fill="" r="0"/>
<circle cx="272.34375" cy="-0.07502387542638468" fill="" r="0"/>
<circle cx="272.8125" cy="-0.075155906362067" fill="" r="0"/>
<circle cx="273.28125" cy="-0.0789001888271425" fill="" r="0"/>
<circle cx="273.75" cy="-0.07343804013288881" fill="" r="0"/>
<circle cx="274.21875" cy="-0.07384232395549047" fill="" r="0"/>
<circle cx="274.6875" cy="-0.07372735181928382" fill="" r="0"/>
<circle cx="275.15625" cy="-0.07372459997457727" fill="" r="0"/>
<circle cx="275.625" cy="-0.07351460396728411" fill="" r="0"/>
<circle cx="276.09375" cy="-0.07353148534316874" fill="" r="0"/>
<circle cx="276.5625" cy="-0.07339355096913601" fill="" r="0"/>
<circle cx="277.03125" cy="-0.07328333291217208" fill="" r="0"/>
<circle cx="277.5" cy="-0.07308043914811194" fill="" r="0"/>
<circle cx="277.96875" cy="-0.07301805518630244" fill="" r="0"/>
<circle cx="278.4375" cy="-0.072758060056507" fill="" r="0"/>
<circle cx="278.90625" cy="-0.0727192908989384" fill="" r="0"/>
<circle cx="279.375" cy="-0.07240215452901558" fill="" r="0"/>
<circle cx="279.84375" cy="-0.07230562617811055" fill="" r="0"/>
<circle cx="280.3125" cy="-0.07222473620027246" fill="" r="0"/>
<circle cx="280.78125" cy="-0.0720947226221519" fill="" r="0"/>
<circle cx="281.25" cy="-0.07198353321604953" fill="" r="0"/>
<circle cx="281.71875" cy="-0.07178868853531922" fill="" r="0"/>
<circle cx="282.1875" cy="-0.07169257510451224" fill="" r="0"/>
<circle cx="282.65625" cy="-0.07146196424584417" fill="" r="0"/>
<circle cx="283.125" cy="-0.07132078200717809" fill="" r="0"/>
<circle cx="283.59375" cy="-0.07120974768958056" fill="" r="0"/>
<circle cx="284.0625" cy="-0.0709411002275552" fill="" r="0"/>
<circle cx="284.53125" cy="-0.07080237058812258" fill="" r="0"/>
<circle cx="285" cy="-0.07065300857315433" fill="" r="0"/>
<circle cx="285.46875" cy="-0.07048366788647334" fill="" r="0"/>
<circle cx="285.9375" cy="-0.07047230661792224" fill="" r="0"/>
<circle cx="286.40625" cy="-0.0702964139505279" fill="" r="0"/>
<circle cx="286.875" cy="-0.07010750557590187" fill="" r="0"/>
<circle cx="287.34375" cy="-0.06990067382653947" fill="" r="0"/>
<circle cx="287.8125" cy="-0.069892224912806" fill="" r="0"/>
<circle cx="288.28125" cy="-0.06963800719557121" fill="" r="0"/>
<circle cx="288.75" cy="-0.06949315628684155" fill="" r="0"/>
<circle cx="289.21875" cy="-0.0693833768576515" fill="" r="0"/>
<circle cx="289.6875" cy="-0.0689792757219798" fill="" r="0"/>
<circle cx="290.15625" cy="-0.06909925685798059" fill="" r="0"/>
<circle cx="290.625" cy="-0.0688919808596223" fill="" r="0"/>
<circle cx="291.09375" cy="-0.0686546170833542" fill="" r="0"/>
<circle cx="291.5625" cy="-0.06868345543967572" fill="" r="0"/>
<circle cx="292.03125" cy="-0.06845405985721217" fill="" r="0"/>
<circle cx="292.5" cy="-0.06823236276270725" fill="" r="0"/>
<circle cx="292.96875" cy="-0.06821411772535001" fill="" r="0"/>
<circle cx="293.4375" cy="-0.06802274358464466" fill="" r="0"/>
<circle cx="293.90625" cy="-0.06781428997306935" fill="" r="0"/>
<circle cx="294.375" cy="-0.06775976208585159" fill="" r="0"/>
<circle cx="294.84375" cy="-0.06759667772788287" fill="" r="0"/>
<circle cx="295.3125" cy="-0.06740789479745272" fill="" r="0"/>
<circle cx="295.78125" cy="-0.06726793244583341" fill="" r="0"/>
<circle cx="296.25" cy="-0.06725093712137391" fill="" r="0"/>
<circle cx="296.71875" cy="-0.06708952079983742" fill="" r="0"/>
<circle cx="297.1875" cy="-0.06700863061269896" fill="" r="0"/>
<circle cx="297.65625" cy="-0.06671013289080892" fill="" r="0"/>
<circle cx="298.125" cy="-0.06670729852225737" fill="" r="0"/>
<circle cx="298.59375" cy="-0.06644221192510152" fill="" r="0"/>
<circle cx="299.0625" cy="-0.06652464578354765" fill="" r="0"/>
<circle cx="299.53125" cy="-0.0662751380989136" fill="" r="0"/>
<circle cx="300" cy="-0.06614573621261591" fill="" r="0"/>
<circle cx="300.46875" cy="-0.06606638266728221" fill="" r="0"/>
<circle cx="300.9375" cy="-0.06579781496330041" fill="" r="0"/>
<circle cx="301.40625" cy="-0.06579582972188945" fill="" r="0"/>
<circle cx="301.875" cy="-0.06565960149929881" fill="" r="0"/>
<circle cx="302.34375" cy="-0.06542784884374984" fill="" r="0"/>
<circle cx="302.8125" cy="-0.065867288954495" fill="" r="0"/>
<circle cx="303.28125" cy="-0.06539893365764356" fill="" r="0"/>
<circle cx="303.75" cy="-0.06535891074343375" fill="" r="0"/>
<circle cx="304.21875" cy="-0.06508998476642415" fill="" r="0"/>
<circle cx="304.6875" cy="-0.06499091524312071" fill="" r="0"/>
<circle cx="305.15625" cy="-0.06478832987279752" fill="" r="0"/>
<circle cx="305.625" cy="-0.06463551710379697" fill="" r="0"/>
<circle cx="306.09375" cy="-0.06461171555151995" fill="" r="0"/>
<circle cx="306.5625" cy="-0.06454158405528466" fill="" r="0"/>
<circle cx="307.03125" cy="-0.06444719242128763" fill="" r="0"/>
<circle cx="307.5" cy="-0.06421423922492907" fill="" r="0"/>
<circle cx="307.96875" cy="-0.06411720114993832" fill="" r="0"/>
<circle cx="308.4375" cy="-0.06411115294910588" fill="" r="0"/>
<circle cx="308.90625" cy="-0.06395652412628652" fill="" r="0"/>
<circle cx="309.375" cy="-0.06387017034269939" fill="" r="0"/>
<circle cx="309.84375" cy="-0.06366294792991274" fill="" r="0"/>
<circle cx="310.3125" cy="-0.06373649835538864" fill="" r="0"/>
<circle cx="310.78125" cy="-0.06354186423010308" fill="" r="0"/>
<circle cx="311.25" cy="-0.06351431127050858" fill="" r="0"/>
<circle cx="311.71875" cy="-0.06339530704349916" fill="" r="0"/>
<circle cx="312.1875" cy="-0.06319908788467876" fill="" r="0"/>
<circle cx="312.65625" cy="-0.06326785350964433" fill="" r="0"/>
<circle cx="313.125" cy="-0.06315964123149106" fill="" r="0"/>
<circle cx="313.59375" cy="-0.06296835508050434" fill="" r="0"/>
<circle cx="314.0625" cy="-0.0628378425049631" fill="" r="0"/>
<circle cx="314.53125" cy="-0.06279863156284274" fill="" r="0"/>
<circle cx="315" cy="-0.06275160829139266" fill="" r="0"/>
<circle cx="315.46875" cy="-0.0626938076667978" fill="" r="0"/>
<circle cx="315.9375" cy="-0.06262287559786409" fill="" r="0"/>
<circle cx="316.40625" cy="-0.06266825613225334" fill="" r="0"/>
<circle cx="316.875" cy="-0.06254195001375444" fill="" r="0"/>
<circle cx="317.34375" cy="-0.06240819590142818" fill="" r="0"/>
<circle cx="317.8125" cy="-0.06231137444158788" fill="" r="0"/>
<circle cx="318.28125" cy="-0.06214614709270066" fill="" r="0"/>
<circle cx="318.75" cy="-0.062076891909676586" fill="" r="0"/>
<circle cx="319.21875" cy="-0.06204933148011486" fill="" r="0"/>
<circle cx="319.6875" cy="-0.062090008177452624" fill="" r="0"/>
<circle cx="320.15625" cy="-0.06208170024329917" fill="" r="0"/>
<circle cx="320.625" cy="-0.0617849411156523" fill="" r="0"/>
<circle cx="321.09375" cy="-0.061925587067129514" fill="" r="0"/>
<circle cx="321.5625" cy="-0.06196722016174557" fill="" r="0"/>
<circle cx="322.03125" cy="-0.06525212034829403" fill="" r="0"/>
<circle cx="322.5" cy="-0.06014926129677093" fill="" r="0"/>
<circle cx="322.96875" cy="-0.060881116313806376" fill="" r="0"/>
<circle cx="323.4375" cy="-0.061102434845284666" fill="" r="0"/>
<circle cx="323.90625" cy="-0.061102403352145576" fill="" r="0"/>
<circle cx="324.375" cy="-0.061088699623494405" fill="" r="0"/>
<circle cx="324.84375" cy="-0.060939846704049554" fill="" r="0"/>
<circle cx="325.3125" cy="-0.06084718971723274" fill="" r="0"/>
<circle cx="325.78125" cy="-0.06087656119105326" fill="" r="0"/>
<circle cx="326.25" cy="-0.060695589540664195" fill="" r="0"/>
<circle cx="326.71875" cy="-0.0607296328689063" fill="" r="0"/>
<circle cx="327.1875" cy="-0.060579007358947556" fill="" r="0"/>
<circle cx="327.65625" cy="-0.060502552985603905" fill="" r="0"/>
<circle cx="328.125" cy="-0.06054580177137301" fill="" r="0"/>
<circle cx="328.59375" cy="-0.06049973211871468" fill="" r="0"/>
<circle cx="329.0625" cy="-0.06029988384483917" fill="" r="0"/>
<circle cx="329.53125" cy="-0.0602610132493056" fill="" r="0"/>
<circle cx="330" cy="-0.06034065927115083" fill="" r="0"/>
<circle cx="330.46875" cy="-0.06016542093572646" fill="" r="0"/>
<circle cx="330.9375" cy="-0.06020338374561707" fill="" r="0"/>
<circle cx="331.40625" cy="-0.06002443988200307" fill="" r="0"/>
<circle cx="331.875" cy="-0.05990388669610094" fill="" r="0"/>
<circle cx="332.34375" cy="-0.059844875071937136" fill="" r="0"/>
<circle cx="332.8125" cy="-0.05986486297104068" fill="" r="0"/>
<circle cx="333.28125" cy="-0.05974633977549202" fill="" r="0"/>
<circle cx="333.75" cy="-0.05969510797119683" fill="" r="0"/>
<circle cx="334.21875" cy="-0.05964104072555967" fill="" r="0"/>
<circle cx="334.6875" cy="-0.0596750385337227" fill="" r="0"/>
<circle cx="335.15625" cy="-0.05938264304844835" fill="" r="0"/>
<circle cx="335.625" cy="-0.059402521451679846" fill="" r="0"/>
<circle cx="336.09375" cy="-0.05937003945957653" fill="" r="0"/>
<circle cx="336.5625" cy="-0.05921555460142044" fill="" r="0"/>
<circle cx="337.03125" cy="-0.059202947810441366" fill="" r="0"/>
<circle cx="337.5" cy="-0.05906400082639465" fill="" r="0"/>
<circle cx="337.96875" cy="-0.05900454142796076" fill="" r="0"/>
<circle cx="338.4375" cy="-0.05883266420452987" fill="" r="0"/>
<circle cx="338.90625" cy="-0.05883615640312088" fill="" r="0"/>
<circle cx="339.375" cy="-0.05882860830952507" fill="" r="0"/>
<circle cx="339.84375" cy="-0.058671665486847616" fill="" r="0"/>
<circle cx="340.3125" cy="-0.0586744729784286" fill="" r="0"/>
<circle cx="340.78125" cy="-0.05846780570062785" fill="" r="0"/>
<circle cx="341.25" cy="-0.058528398423453115" fill="" r="0"/>
<circle cx="341.71875" cy="-0.05829727724578993" fill="" r="0"/>
<circle cx="342.1875" cy="-0.05831443872350244" fill="" r="0"/>
<circle cx="342.65625" cy="-0.058309239241486205" fill="" r="0"/>
<circle cx="343.125" cy="-0.05810033486301549" fill="" r="0"/>
<circle cx="343.59375" cy="-0.05776296462847931" fill="" r="0"/>
<circle cx="344.0625" cy="-0.057034480128080725" fill="" r="0"/>
<circle cx="344.53125" cy="-0.06236550943162892" fill="" r="0"/>
<circle cx="345" cy="-0.05846682323663817" fill="" r="0"/>
<circle cx="345.46875" cy="-0.05816879617266056" fill="" r="0"/>
<circle cx="345.9375" cy="-0.05799846325186089" fill="" r="0"/>
<circle cx="346.40625" cy="-0.057760031002001125" fill="" r="0"/>
<circle cx="346.875" cy="-0.05779263825721453" fill="" r="0"/>
<circle cx="347.34375" cy="-0.05778950467987953" fill="" r="0"/>
<circle cx="347.8125" cy="-0.05749520798724009" fill="" r="0"/>
<circle cx="348.28125" cy="-0.05740523616738579" fill="" r="0"/>
<circle cx="348.75" cy="-0.05748544163353678" fill="" r="0"/>
<circle cx="349.21875" cy="-0.05739804930543971" fill="" r="0"/>
<circle cx="349.6875" cy="-0.057159907786900756" fill="" r="0"/>
<circle cx="350.15625" cy="-0.057236156636832666" fill="" r="0"/>
<circle cx="350.625" cy="-0.05707440262843661" fill="" r="0"/>
<circle cx="351.09375" cy="-0.05698929478476059" fill="" r="0"/>
<circle cx="351.5625" cy="-0.05693408623807245" fill="" r="0"/>
<circle cx="352.03125" cy="-0.05693521760050881" fill="" r="0"/>
<circle cx="352.5" cy="-0.056786871787633114" fill="" r="0"/>
<circle cx="352.96875" cy="-0.05662232691373608" fill="" r="0"/>
<circle cx="353.4375" cy="-0.056752925237787126" fill="" r="0"/>
<circle cx="353.90625" cy="-0.05668200090018192" fill="" r="0"/>
<circle cx="354.375" cy="-0.05639754312479199" fill="" r="0"/>
<circle cx="354.84375" cy="-0.0564077426170708" fill="" r="0"/>
<circle cx="355.3125" cy="-0.05642556593762251" fill="" r="0"/>
<circle cx="355.78125" cy="-0.0563628075709484" fill="" r="0"/>
<circle cx="356.25" cy="-0.056145664425043255" fill="" r="0"/>
<circle cx="356.71875" cy="-0.0560223405559335" fill="" r="0"/>
<circle cx="357.1875" cy="-0.05594428960769826" fill="" r="0"/>
<circle cx="357.65625" cy="-0.05581643342091926" fill="" r="0"/>
<circle cx="358.125" cy="-0.05588944182030768" fill="" r="0"/>
<circle cx="358.59375" cy="-0.05577504917533206" fill="" r="0"/>
<circle cx="359.0625" cy="-0.055699854474800886" fill="" r="0"/>
<circle cx="359.53125" cy="-0.05562743334066543" fill="" r="0"/>
<circle cx="360" cy="-0.05554849901061037" fill="" r="0"/>
<circle cx="360.46875" cy="-0.05544576096194534" fill="" r="0"/>
<circle cx="360.9375" cy="-0.05548117428560201" fill="" r="0"/>
<circle cx="361.40625" cy="-0.055367844898926356" fill="" r="0"/>
<circle cx="361.875" cy="-0.055296887016955946" fill="" r="0"/>
<circle cx="362.34375" cy="-0.05520829907508354" fill="" r="0"/>
<circle cx="362.8125" cy="-0.05510189175574992" fill="" r="0"/>
<circle cx="363.28125" cy="-0.05505078633265735" fill="" r="0"/>
<circle cx="363.75" cy="-0.054995807005088895" fill="" r="0"/>
<circle cx="364.21875" cy="-0.05484986229615661" fill="" r="0"/>
<circle cx="364.6875" cy="-0.05486579718928254" fill="" r="0"/>
<circle cx="365.15625" cy="-0.05462145141110754" fill="" r="0"/>
<circle cx="365.625" cy="-0.0546524385906117" fill="" r="0"/>
<circle cx="366.09375" cy="-0.054549651885740645" fill="" r="0"/>
<circle cx="366.5625" cy="-0.05454368780120137" fill="" r="0"/>
<circle cx="367.03125" cy="-0.05442459173606059" fill="" r="0"/>
<circle cx="367.5" cy="-0.05445320190144136" fill="" r="0"/>
<circle cx="367.96875" cy="-0.054273607671073414" fill="" r="0"/>
<circle cx="368.4375" cy="-0.05424479639639459" fill="" r="0"/>
<circle cx="368.90625" cy="-0.05415125877661753" fill="" r="0"/>
<circle cx="369.375" cy="-0.054148680156258906" fill="" r="0"/>
<circle cx="369.84375" cy="-0.05398326679597692" fill="" r="0"/>
<circle cx="370.3125" cy="-0.05408167894934488" fill="" r="0"/>
<circle cx="370.78125" cy="-0.05396607516779359" fill="" r="0"/>
<circle cx="371.25" cy="-0.05392510315369098" fill="" r="0"/>
<circle cx="371.71875" cy="-0.053907145968873735" fill="" r="0"/>
<circle cx="372.1875" cy="-0.05379675640795264" fill="" r="0"/>
<circle cx="372.65625" cy="-0.05370897058469629" fill="" r="0"/>
<circle cx="373.125" cy="-0.05374307341437275" fill="" r="0"/>
<circle cx="373.59375" cy="-0.05356339870880389" fill="" r="0"/>
<circle cx="374.0625" cy="-0.053524987826043105" fill="" r="0"/>
<circle cx="374.53125" cy="-0.053464070453295785" fill="" r="0"/>
<circle cx="375" cy="-0.053317524170481086" fill="" r="0"/>
<circle cx="375.46875" cy="-0.05322290717582391" fill="" r="0"/>
<circle cx="375.9375" cy="-0.05333908876723866" fill="" r="0"/>
<circle cx="376.40625" cy="-0.053217123480712836" fill="" r="0"/>
<circle cx="376.875" cy="-0.053224254914626824" fill="" r="0"/>
<circle cx="377.34375" cy="-0.05306984233261889" fill="" r="0"/>
<circle cx="377.8125" cy="-0.05319327889111077" fill="" r="0"/>
<circle cx="378.28125" cy="-0.05312864340572985" fill="" r="0"/>
<circle cx="378.75" cy="-0.05294730346238417" fill="" r="0"/>
<circle cx="379.21875" cy="-0.05300134412815209" fill="" r="0"/>
<circle cx="379.6875" cy="-0.05303105003864081" fill="" r="0"/>
<circle cx="380.15625" cy="-0.052946676690909016" fill="" r="0"/>
<circle cx="380.625" cy="-0.052864161199394785" fill="" r="0"/>
<circle cx="381.09375" cy="-0.052976854214080216" fill="" r="0"/>
<circle cx="381.5625" cy="-0.05316188631719247" fill="" r="0"/>
<circle cx="382.03125" cy="-0.05340836395720585" fill="" r="0"/>
<circle cx="382.5" cy="-0.0540394753959926" fill="" r="0"/>
<circle cx="382.96875" cy="-0.059081407331998397" fill="" r="0"/>
<circle cx="383.4375" cy="-0.04798643765084469" fill="" r="0"/>
<circle cx="383.90625" cy="-0.05063817257227197" fill="" r="0"/>
<circle cx="384.375" cy="-0.051085055597182114" fill="" r="0"/>
<circle cx="384.84375" cy="-0.05131608844851867" fill="" r="0"/>
<circle cx="385.3125" cy="-0.05142857692920754" fill="" r="0"/>
<circle cx="385.78125" cy="-0.05599247859688573" fill="" r="0"/>
<circle cx="386.25" cy="-0.05234322288764662" fill="" r="0"/>
<circle cx="386.71875" cy="-0.051787892333764886" fill="" r="0"/>
<circle cx="387.1875" cy="-0.051747098398276584" fill="" r="0"/>
<circle cx="387.65625" cy="-0.051625123727351646" fill="" r="0"/>
<circle cx="388.125" cy="-0.051659413543452944" fill="" r="0"/>
<circle cx="388.59375" cy="-0.05157477980244903" fill="" r="0"/>
<circle cx="389.0625" cy="-0.051475882263225956" fill="" r="0"/>
<circle cx="389.53125" cy="-0.05142924822812003" fill="" r="0"/>
<circle cx="390" cy="-0.05148494572237123" fill="" r="0"/>
<circle cx="390.46875" cy="-0.051435569939047215" fill="" r="0"/>
<circle cx="390.9375" cy="-0.0513916084283807" fill="" r="0"/>
<circle cx="391.40625" cy="-0.05137268213575442" fill="" r="0"/>
<circle cx="391.875" cy="-0.051281901881796786" fill="" r="0"/>
<circle cx="392.34375" cy="-0.05116922703855085" fill="" r="0"/>
<circle cx="392.8125" cy="-0.051237917976892366" fill="" r="0"/>
<circle cx="393.28125" cy="-0.051197262154123985" fill="" r="0"/>
<circle cx="393.75" cy="-0.051147310417941426" fill="" r="0"/>
<circle cx="394.21875" cy="-0.05110490087821001" fill="" r="0"/>
<circle cx="394.6875" cy="-0.05104719601928676" fill="" r="0"/>
<circle cx="395.15625" cy="-0.05100770381444434" fill="" r="0"/>
<circle cx="395.625" cy="-0.05075992988113629" fill="" r="0"/>
<circle cx="396.09375" cy="-0.05091580086035041" fill="" r="0"/>
<circle cx="396.5625" cy="-0.050799916867968004" fill="" r="0"/>
<circle cx="397.03125" cy="-0.050782758750231326" fill="" r="0"/>
<circle cx="397.5" cy="-0.05083048108107211" fill="" r="0"/>
<circle cx="397.96875" cy="-0.0508529752660523" fill="" r="0"/>
<circle cx="398.4375" cy="-0.05055813536700672" fill="" r="0"/>
<circle cx="398.90625" cy="-0.05062044818462786" fill="" r="0"/>
<circle cx="399.375" cy="-0.05057851783425945" fill="" r="0"/>
<circle cx="399.84375" cy="-0.05061150378582503" fill="" r="0"/>
<circle cx="400.3125" cy="-0.05055893950011026" fill="" r="0"/>
<circle cx="400.78125" cy="-0.05048119798157154" fill="" r="0"/>
<circle cx="401.25" cy="-0.05048926115398931" fill="" r="0"/>
<circle cx="401.71875" cy="-0.05034827982128795" fill="" r="0"/>
<circle cx="402.1875" cy="-0.050298009534846" fill="" r="0"/>
<circle cx="402.65625" cy="-0.050286667995289386" fill="" r="0"/>
<circle cx="403.125" cy="-0.050416127232872476" fill="" r="0"/>
<circle cx="403.59375" cy="-0.050166490742146394" fill="" r="0"/>
<circle cx="404.0625" cy="-0.05028285162618803" fill="" r="0"/>
<circle cx="404.53125" cy="-0.050228622817800966" fill="" r="0"/>
<circle cx="405" cy="-0.050116607640405667" fill="" r="0"/>
<circle cx="405.46875" cy="-0.050173510980487196" fill="" r="0"/>
<circle cx="405.9375" cy="-0.05006424934169508" fill="" r="0"/>
<circle cx="406.40625" cy="-0.05006524436200863" fill="" r="0"/>
<circle cx="406.875" cy="-0.049796732263743065" fill="" r="0"/>
<circle cx="407.34375" cy="-0.05001505321524852" fill="" r="0"/>
<circle cx="407.8125" cy="-0.04993117380604218" fill="" r="0"/>
<circle cx="408.28125" cy="-0.04984488313333289" fill="" r="0"/>
<circle cx="408.75" cy="-0.04970582118038198" fill="" r="0"/>
<circle cx="409.21875" cy="-0.04967093576603015" fill="" r="0"/>
<circle cx="409.6875" cy="-0.04971508897545257" fill="" r="0"/>
<circle cx="410.15625" cy="-0.049646025630144794" fill="" r="0"/>
<circle cx="410.625" cy="-0.049596517917417794" fill="" r="0"/>
<circle cx="411.09375" cy="-0.049558829154402115" fill="" r="0"/>
<circle cx="411.5625" cy="-0.049585862332800164" fill="" r="0"/>
<circle cx="412.03125" cy="-0.049657490005116885" fill="" r="0"/>
<circle cx="412.5" cy="-0.049304716696517724" fill="" r="0"/>
<circle cx="412.96875" cy="-0.049488187577780236" fill="" r="0"/>
<circle cx="413.4375" cy="-0.04941797609184268" fill="" r="0"/>
<circle cx="413.90625" cy="-0.04923452332895203" fill="" r="0"/>
<circle cx="414.375" cy="-0.049246157472278604" fill="" r="0"/>
<circle cx="414.84375" cy="-0.049307748109398856" fill="" r="0"/>
<circle cx="415.3125" cy="-0.049325282451082315" fill="" r="0"/>
<circle cx="415.78125" cy="-0.049240364958639156" fill="" r="0"/>
<circle cx="416.25" cy="-0.04912272715664472" fill="" r="0"/>
<circle cx="416.71875" cy="-0.04907651244678142" fill="" r="0"/>
<circle cx="417.1875" cy="-0.0489432902881231" fill="" r="0"/>
<circle cx="417.65625" cy="-0.04905556549953682" fill="" r="0"/>
<circle cx="418.125" cy="-0.04897972777628628" fill="" r="0"/>
<circle cx="418.59375" cy="-0.04893211690874591" fill="" r="0"/>
<circle cx="419.0625" cy="-0.048967456323365" fill="" r="0"/>
<circle cx="419.53125" cy="-0.04889107071065454" fill="" r="0"/>
<circle cx="420" cy="-0.04877979860399898" fill="" r="0"/>
<circle cx="420.46875" cy="-0.04890038678780258" fill="" r="0"/>
<circle cx="420.9375" cy="-0.0487494012695263" fill="" r="0"/>
<circle cx="421.40625" cy="-0.04871302587826315" fill="" r="0"/>
<circle cx="421.875" cy="-0.048691125760510275" fill="" r="0"/>
<circle cx="422.34375" cy="-0.048739058479761725" fill="" r="0"/>
<circle cx="422.8125" cy="-0.04891318915591646" fill="" r="0"/>
<circle cx="423.28125" cy="-0.049913919805483556" fill="" r="0"/>
<circle cx="423.75" cy="-0.04967994372482441" fill="" r="0"/>
<circle cx="424.21875" cy="-0.048248540432663974" fill="" r="0"/>
<circle cx="424.6875" cy="-0.04824091271388691" fill="" r="0"/>
<circle cx="425.15625" cy="-0.048185967979764724" fill="" r="0"/>
<circle cx="425.625" cy="-0.048277980497444896" fill="" r="0"/>
<circle cx="426.09375" cy="-0.0481742543187245" fill="" r="0"/>
<circle cx="426.5625" cy="-0.04809621605431303" fill="" r="0"/>
<circle cx="427.03125" cy="-0.04831471698283473" fill="" r="0"/>
<circle cx="427.5" cy="-0.04813762821401831" fill="" r="0"/>
<circle cx="427.96875" cy="-0.047886225984236204" fill="" r="0"/>
<circle cx="428.4375" cy="-0.047984276332135714" fill="" r="0"/>
<circle cx="428.90625" cy="-0.04789231560854157" fill="" r="0"/>
<circle cx="429.375" cy="-0.04775718182127626" fill="" r="0"/>
<circle cx="429.84375" cy="-0.04780426209656408" fill="" r="0"/>
<circle cx="430.3125" cy="-0.04780512445700064" fill="" r="0"/>
<circle cx="430.78125" cy="-0.047761750731138586" fill="" r="0"/>
<circle cx="431.25" cy="-0.047707012394412045" fill="" r="0"/>
<circle cx="431.71875" cy="-0.04780061968641297" fill="" r="0"/>
<circle cx="432.1875" cy="-0.04755299036540398" fill="" r="0"/>
<circle cx="432.65625" cy="-0.04761716987670611" fill="" r="0"/>
<circle cx="433.125" cy="-0.04754372199293778" fill="" r="0"/>
<circle cx="433.59375" cy="-0.0474371387040112" fill="" r="0"/>
<circle cx="434.0625" cy="-0.04748813804430935" fill="" r="0"/>
<circle cx="434.53125" cy="-0.04744766850363469" fill="" r="0"/>
<circle cx="435" cy="-0.04740077549221918" fill="" r="0"/>
<circle cx="435.46875" cy="-0.047260610416679984" fill="" r="0"/>
<circle cx="435.9375" cy="-0.04723827619967091" fill="" r="0"/>
<circle cx="436.40625" cy="-0.04719336292660812" fill="" r="0"/>
<circle cx="436.875" cy="-0.04713772337642712" fill="" r="0"/>
<circle cx="437.34375" cy="-0.04719317994232125" fill="" r="0"/>
<circle cx="437.8125" cy="-0.04721930793734409" fill="" r="0"/>
<circle cx="438.28125" cy="-0.04721470819201055" fill="" r="0"/>
<circle cx="438.75" cy="-0.04695219137958436" fill="" r="0"/>
<circle cx="439.21875" cy="-0.047124957995011506" fill="" r="0"/>
<circle cx="439.6875" cy="-0.04697968214337124" fill="" r="0"/>
<circle cx="440.15625" cy="-0.04692208745711901" fill="" r="0"/>
<circle cx="440.625" cy="-0.04685070506292641" fill="" r="0"/>
<circle cx="441.09375" cy="-0.04686429734934059" fill="" r="0"/>
<circle cx="441.5625" cy="-0.04686143384104441" fill="" r="0"/>
<circle cx="442.03125" cy="-0.046834995323898725" fill="" r="0"/>
<circle cx="442.5" cy="-0.04667621857997968" fill="" r="0"/>
<circle cx="442.96875" cy="-0.04683505834578363" fill="" r="0"/>
<circle cx="443.4375" cy="-0.04669624711428388" fill="" r="0"/>
<circle cx="443.90625" cy="-0.04668745496379537" fill="" r="0"/>
<circle cx="444.375" cy="-0.04668875935598002" fill="" r="0"/>
<circle cx="444.84375" cy="-0.046783956565615084" fill="" r="0"/>
<circle cx="445.3125" cy="-0.046576649507693364" fill="" r="0"/>
<circle cx="445.78125" cy="-0.04651544080290525" fill="" r="0"/>
<circle cx="446.25" cy="-0.04660953219126982" fill="" r="0"/>
<circle cx="446.71875" cy="-0.046573196419581644" fill="" r="0"/>
<circle cx="447.1875" cy="-0.046589084439987605" fill="" r="0"/>
<circle cx="447.65625" cy="-0.046377286933554335" fill="" r="0"/>
<circle cx="448.125" cy="-0.04635479850320976" fill="" r="0"/>
<circle cx="448.59375" cy="-0.04646262090872926" fill="" r="0"/>
<circle cx="449.0625" cy="-0.04630635658017842" fill="" r="0"/>
<circle cx="449.53125" cy="-0.04637490629347264" fill="" r="0"/>
<circle cx="450" cy="-0.04640516849073673" fill="" r="0"/>
<circle cx="450.46875" cy="-0.04624003088508791" fill="" r="0"/>
<circle cx="450.9375" cy="-0.046165923499878456" fill="" r="0"/>
<circle cx="451.40625" cy="-0.04619038856081759" fill="" r="0"/>
<circle cx="451.875" cy="-0.046042631118269214" fill="" r="0"/>
<circle cx="452.34375" cy="-0.04614489956972496" fill="" r="0"/>
<circle cx="452.8125" cy="-0.046105000909494306" fill="" r="0"/>
<circle cx="453.28125" cy="-0.04612471183599216" fill="" r="0"/>
<circle cx="453.75" cy="-0.046104261668049276" fill="" r="0"/>
<circle cx="454.21875" cy="-0.046258907111053384" fill="" r="0"/>
<circle cx="454.6875" cy="-0.046210516458381" fill="" r="0"/>
<circle cx="455.15625" cy="-0.046377647667280926" fill="" r="0"/>
<circle cx="455.625" cy="-0.049410275378323806" fill="" r="0"/>
<circle cx="456.09375" cy="-0.045249906139650055" fill="" r="0"/>
<circle cx="456.5625" cy="-0.04566146998797921" fill="" r="0"/>
<circle cx="457.03125" cy="-0.045775929562304286" fill="" r="0"/>
<circle cx="457.5" cy="-0.045666284171655684" fill="" r="0"/>
<circle cx="457.96875" cy="-0.04569744605228229" fill="" r="0"/>
<circle cx="458.4375" cy="-0.04567620748808678" fill="" r="0"/>
<circle cx="458.90625" cy="-0.04552329858839299" fill="" r="0"/>
<circle cx="459.375" cy="-0.04556030178169489" fill="" r="0"/>
<circle cx="459.84375" cy="-0.045476762957770256" fill="" r="0"/>
<circle cx="460.3125" cy="-0.04555245316319628" fill="" r="0"/>
<circle cx="460.78125" cy="-0.04551213895743843" fill="" r="0"/>
<circle cx="461.25" cy="-0.04549945458835449" fill="" r="0"/>
<circle cx="461.71875" cy="-0.045531632886918846" fill="" r="0"/>
<circle cx="462.1875" cy="-0.045411756224781614" fill="" r="0"/>
<circle cx="462.65625" cy="-0.04559653320986262" fill="" r="0"/>
<circle cx="463.125" cy="-0.04539991818662128" fill="" r="0"/>
<circle cx="463.59375" cy="-0.04538146329978498" fill="" r="0"/>
<circle cx="464.0625" cy="-0.0453194404990065" fill="" r="0"/>
<circle cx="464.53125" cy="-0.04527802506002826" fill="" r="0"/>
<circle cx="465" cy="-0.04533141710856748" fill="" r="0"/>
<circle cx="465.46875" cy="-0.04520835099626468" fill="" r="0"/>
<circle cx="465.9375" cy="-0.04524559842316659" fill="" r="0"/>
<circle cx="466.40625" cy="-0.04524435880647606" fill="" r="0"/>
<circle cx="466.875" cy="-0.045114705474110034" fill="" r="0"/>
<circle cx="467.34375" cy="-0.04510275245526926" fill="" r="0"/>
<circle cx="467.8125" cy="-0.04523122458893285" fill="" r="0"/>
<circle cx="468.28125" cy="-0.04515621583921506" fill="" r="0"/>
<circle cx="468.75" cy="-0.0451912314137909" fill="" r="0"/>
<circle cx="469.21875" cy="-0.04520226551020279" fill="" r="0"/>
<circle cx="469.6875" cy="-0.04492823777074563" fill="" r="0"/>
<circle cx="470.15625" cy="-0.04506818915978097" fill="" r="0"/>
<circle cx="470.625" cy="-0.04512416868798989" fill="" r="0"/>
<circle cx="471.09375" cy="-0.04505914396985496" fill="" r="0"/>
<circle cx="471.5625" cy="-0.04497355975893985" fill="" r="0"/>
<circle cx="472.03125" cy="-0.045005706417551646" fill="" r="0"/>
<circle cx="472.5" cy="-0.0449512132001535" fill="" r="0"/>
<circle cx="472.96875" cy="-0.0448830105605779" fill="" r="0"/>
<circle cx="473.4375" cy="-0.04476674405331891" fill="" r="0"/>
<circle cx="473.90625" cy="-0.04490396268100302" fill="" r="0"/>
<circle cx="474.375" cy="-0.04480393578366925" fill="" r="0"/>
<circle cx="474.84375" cy="-0.04473396004445126" fill="" r="0"/>
<circle cx="475.3125" cy="-0.04477322423263877" fill="" r="0"/>
<circle cx="475.78125" cy="-0.04475599388990638" fill="" r="0"/>
<circle cx="476.25" cy="-0.044660294828877574" fill="" r="0"/>
<circle cx="476.71875" cy="-0.04470982887757728" fill="" r="0"/>
<circle cx="477.1875" cy="-0.0445884802640326" fill="" r="0"/>
<circle cx="477.65625" cy="-0.044699805657843344" fill="" r="0"/>
<circle cx="478.125" cy="-0.044484214080794025" fill="" r="0"/>
<circle cx="478.59375" cy="-0.04452186318202929" fill="" r="0"/>
<circle cx="479.0625" cy="-0.04459480028279677" fill="" r="0"/>
<circle cx="479.53125" cy="-0.04453741577139122" fill="" r="0"/>
<circle cx="480" cy="-0.04458553648521371" fill="" r="0"/>
</g>
</g>
<g>
<g>
<line stroke="black" stroke-width="1" x1="0" x2="0" y1="0" y2="10"/>
<line stroke="black" stroke-width="1" x1="87.07482993197279" x2="87.07482993197279" y1="0" y2="10"/>
<line stroke="black" stroke-width="1" x1="174.14965986394557" x2="174.14965986394557" y1="0" y2="10"/>
<line stroke="black" stroke-width="1" x1="261.2244897959184" x2="261.2244897959184" y1="0" y2="10"/>
<line stroke="black" stroke-width="1" x1="348.29931972789115" x2="348.29931972789115" y1="0" y2="10"/>
<line stroke="black" stroke-width="1" x1="435.3741496598639" x2="435.3741496598639" y1="0" y2="10"/>
</g>
<line stroke="black" stroke-width="1" x1="0" x2="480" y1="0" y2="0"/>
<g>
<text font-size="12" text-anchor="middle" x="0" y="20">
0
</text>
<text font-size="12" text-anchor="middle" x="87.07482993197279" y="20">
4000
</text>
<text font-size="12" text-anchor="middle" x="174.14965986394557" y="20">
8000
</text>
<text font-size="12" text-anchor="middle" x="261.2244897959184" y="20">
12000
</text>
<text font-size="12" text-anchor="middle" x="348.29931972789115" y="20">
16000
</text>
<text font-size="12" text-anchor="middle" x="435.3741496598639" y="20">
20000
</text>
</g>
<text font-size="12" text-anchor="middle" x="240" y="30">
Frequency (Hz)
</text>
</g>
<g>
<g>
<line stroke="black" stroke-width="1" x1="0" x2="-10" y1="-0" y2="-0"/>
<line stroke="black" stroke-width="1" x1="0" x2="-10" y1="-103.76293221839046" y2="-103.76293221839046"/>
<line stroke="black" stroke-width="1" x1="0" x2="-10" y1="-207.52586443678092" y2="-207.52586443678092"/>
<line stroke="black" stroke-width="1" x1="0" x2="-10" y1="-311.2887966551714" y2="-311.2887966551714"/>
</g>
<line stroke="black" stroke-width="1" x1="0" x2="0" y1="0" y2="-340"/>
<g>
<text dominant-baseline="middle" font-size="12" text-anchor="end" x="-15" y="-0">
0
</text>
<text dominant-baseline="middle" font-size="12" text-anchor="end" x="-15" y="-103.76293221839046">
10000
</text>
<text dominant-baseline="middle" font-size="12" text-anchor="end" x="-15" y="-207.52586443678092">
20000
</text>
<text dominant-baseline="middle" font-size="12" text-anchor="end" x="-15" y="-311.2887966551714">
30000
</text>
</g>
<text font-size="12" text-anchor="middle" transform="rotate(-90 -60 -170)" x="-60" y="-182">
Amplitude
</text>
</g>
</g>
</svg>